<svg width="54" height="54" viewBox="0 0 54 54" fill="none" xmlns="http://www.w3.org/2000/svg">
<rect opacity="0.12" width="54" height="54" rx="4" fill="#9B51E0"/>
<path d="M14.8378 18.9105C15.4313 18.9105 15.9125 18.4294 15.9125 17.8359C15.9125 17.2424 15.4313 16.7612 14.8378 16.7612C14.2443 16.7612 13.7632 17.2424 13.7632 17.8359C13.7632 18.4294 14.2443 18.9105 14.8378 18.9105Z" fill="#9B51E0"/>
<path d="M18.5986 15.1493C19.1921 15.1493 19.6732 14.6682 19.6732 14.0746C19.6732 13.4811 19.1921 13 18.5986 13C18.0051 13 17.5239 13.4811 17.5239 14.0746C17.5239 14.6682 18.0051 15.1493 18.5986 15.1493Z" fill="#9B51E0"/>
<path d="M44.2199 19.5162L44.094 19.2645C43.9083 18.8916 43.5853 18.6053 43.1929 18.4656C42.8004 18.326 42.3691 18.344 41.9897 18.5159L33.958 22.1831L33.9647 22.1983C33.714 22.2651 33.4799 22.383 33.277 22.5447C33.0742 22.7064 32.907 22.9083 32.786 23.1378C32.665 23.3672 32.5928 23.6192 32.5739 23.878C32.5551 24.1367 32.59 24.3965 32.6764 24.6411L32.5184 24.7465C30.41 23.692 25.2966 24.5421 20.519 26.2039C20.2383 26.3016 19.9584 26.4022 19.6794 26.5058C19.1514 24.5497 20.5178 23.126 20.5921 23.0506L19.8309 22.2922C19.3102 22.8552 18.9208 23.5267 18.6905 24.2582C18.4186 25.115 18.4111 26.0339 18.6689 26.8951C17.8092 27.2384 16.9831 27.6013 16.2013 27.9784C15.7678 26.369 15.7293 24.7084 15.7883 23.5084C15.8005 23.2659 15.764 23.0234 15.681 22.7952C15.598 22.567 15.4702 22.3577 15.305 22.1797C15.1399 22.0016 14.9408 21.8585 14.7195 21.7586C14.4982 21.6587 14.2591 21.6041 14.0163 21.598C13.7736 21.5919 13.5321 21.6345 13.306 21.7232C13.08 21.8119 12.874 21.9449 12.7001 22.1145C12.5263 22.284 12.3882 22.4866 12.2938 22.7104C12.1995 22.9341 12.1509 23.1745 12.1509 23.4173V27.2175C12.1508 27.2945 12.1201 27.3683 12.0657 27.4226C12.0112 27.477 11.9374 27.5076 11.8604 27.5077C11.6805 27.5076 11.5023 27.5431 11.3362 27.6122C11.17 27.6813 11.0191 27.7825 10.8922 27.9101C10.7654 28.0377 10.665 28.1891 10.5968 28.3557C10.5287 28.5222 10.4942 28.7006 10.4952 28.8805C10.5191 29.7524 10.6744 30.6156 10.9561 31.441C10.1339 32.3212 9.83984 33.1191 10.0822 33.8162C10.9849 36.4113 13.0588 38.4179 15.9219 39.4662C17.3293 39.9746 18.8151 40.2315 20.3115 40.2252C21.9454 40.2196 23.5669 39.9403 25.1087 39.399C28.2077 38.3211 30.781 36.3152 32.3543 33.7509C33.9488 31.1521 34.3299 28.2916 33.4272 25.6965C33.4097 25.6471 33.3895 25.5987 33.3668 25.5514C33.5933 25.7118 33.8526 25.8198 34.1259 25.8678C34.3993 25.9157 34.6799 25.9023 34.9474 25.8286L34.9538 25.8416L35.0341 25.8025C35.197 25.7492 35.3518 25.6738 35.4942 25.5784L43.4763 21.6901C43.669 21.5975 43.8414 21.4675 43.9834 21.3076C44.1254 21.1477 44.2341 20.9612 44.3033 20.7589C44.3725 20.5566 44.4008 20.3426 44.3865 20.1292C44.3722 19.9159 44.3156 19.7075 44.2199 19.5163L44.2199 19.5162ZM11.0973 33.4631C11.023 33.2494 11.146 32.9236 11.4326 32.5411C11.7498 33.1437 12.1833 33.6775 12.7079 34.1116C12.4717 34.0895 12.2372 34.0514 12.0062 33.9974C11.4973 33.874 11.1746 33.6843 11.0975 33.4634V33.463L11.0973 33.4631ZM30.3497 27.5702C30.2365 28.5333 30.0479 28.7317 30.0399 28.7397L30.0504 28.7501C29.6055 29.053 29.1176 29.3551 28.5929 29.6533C28.9435 28.9592 29.1751 28.2113 29.2781 27.4405C29.2958 27.3104 29.3601 27.1911 29.4589 27.1046C29.5578 27.0182 29.6847 26.9705 29.816 26.9704C29.8919 26.9703 29.9669 26.9864 30.0361 27.0174C30.1053 27.0485 30.1671 27.0938 30.2176 27.1505C30.268 27.2071 30.3058 27.2738 30.3286 27.3462C30.3514 27.4185 30.3587 27.4949 30.3498 27.5702L30.3497 27.5702ZM19.798 28.9263L20.6236 28.2383C20.4285 28.0059 20.2533 27.7575 20.0997 27.4957C20.3561 27.401 20.6142 27.3085 20.8721 27.2187C23.8106 26.1966 26.6752 25.5482 28.9375 25.3931C29.9902 25.3209 30.8775 25.363 31.5032 25.5148C32.0124 25.6383 32.3351 25.8281 32.412 26.0493C32.4889 26.2704 32.3536 26.6195 32.0311 27.0323C31.8444 27.2653 31.6393 27.483 31.4179 27.6833C31.4633 27.2613 31.3406 26.8384 31.0764 26.5061C30.8122 26.1739 30.4278 25.959 30.0064 25.9081C29.585 25.8572 29.1605 25.9743 28.8248 26.2341C28.4891 26.4939 28.2693 26.8755 28.2128 27.2962C27.9399 29.3052 26.7523 30.4759 26.421 30.7674C25.1861 31.3392 23.9233 31.8486 22.6373 32.2937C22.0891 32.4843 21.5447 32.6617 21.0041 32.8258C18.8812 32.4161 17.3802 31.1332 16.5397 29.0076C17.3411 28.6167 18.1946 28.2408 19.0841 27.8859C19.2874 28.2552 19.5266 28.6037 19.798 28.9264L19.798 28.9263ZM11.6539 28.6682C11.6809 28.6409 11.7131 28.6192 11.7485 28.6044C11.784 28.5897 11.822 28.5822 11.8604 28.5823C12.2224 28.5819 12.5694 28.438 12.8253 28.182C13.0812 27.9261 13.2252 27.5791 13.2256 27.2172V23.4173C13.2257 23.2196 13.3043 23.0301 13.4441 22.8903C13.5839 22.7505 13.7734 22.6719 13.9711 22.6718C14.0722 22.6718 14.1722 22.6924 14.265 22.7323C14.3579 22.7722 14.4417 22.8306 14.5113 22.9039C14.5809 22.9772 14.6349 23.0638 14.6699 23.1586C14.705 23.2534 14.7205 23.3543 14.7153 23.4553C14.6385 25.0164 14.7183 27.313 15.5352 29.3888C16.0057 30.5843 16.6712 31.5682 17.513 32.3127C17.9924 32.7355 18.532 33.0847 19.1141 33.3489C17.9143 33.6552 16.6961 33.8844 15.467 34.0351C15.2761 34.0573 14.926 33.9629 14.926 33.9629C13.7259 33.7629 12.8145 33.0046 12.217 31.7093C11.8181 30.8155 11.5983 29.8522 11.57 28.8738C11.5696 28.8357 11.5769 28.7979 11.5913 28.7626C11.6057 28.7273 11.627 28.6952 11.6539 28.6682ZM34.3533 24.8148L34.4792 24.7309C34.5386 24.6921 34.5898 24.6419 34.6298 24.5832C34.6697 24.5245 34.6976 24.4584 34.7119 24.3888C34.7262 24.3193 34.7265 24.2476 34.7129 24.1779C34.6993 24.1082 34.672 24.0419 34.6326 23.9828C34.5932 23.9237 34.5425 23.873 34.4834 23.8337C34.4243 23.7943 34.358 23.767 34.2883 23.7535C34.2186 23.7399 34.1469 23.7403 34.0774 23.7546C34.0078 23.7689 33.9418 23.7968 33.8831 23.8368L33.6448 23.9956C33.6479 23.8596 33.6854 23.7265 33.7538 23.6089C33.8222 23.4913 33.9193 23.3929 34.0361 23.323C34.1528 23.253 34.2853 23.2138 34.4213 23.2089C34.5573 23.204 34.6923 23.2337 34.8137 23.2951C34.9352 23.3565 35.039 23.4477 35.1157 23.5601C35.1924 23.6726 35.2393 23.8026 35.2521 23.938C35.265 24.0735 35.2433 24.21 35.1891 24.3348C35.1349 24.4596 35.0499 24.5687 34.9422 24.6518L34.6467 24.7959C34.5511 24.8211 34.4515 24.8275 34.3535 24.8148L34.3533 24.8148Z" fill="#9B51E0"/>
<path d="M16.9868 19.9852H18.0615V21.0599H16.9868V19.9852Z" fill="#9B51E0"/>
<path d="M16.4492 24.8211H17.5239V25.8958H16.4492V24.8211Z" fill="#9B51E0"/>
<path d="M19.6733 29.657H20.748V30.7316H19.6733V29.657Z" fill="#9B51E0"/>
<path d="M11.0767 19.4479H12.1513V20.5225H11.0767V19.4479Z" fill="#9B51E0"/>
<path d="M15.6145 33.8653L16.2106 32.9712C14.8973 32.0957 14.8394 31.2891 14.8378 31.2552C14.8383 31.2643 14.8378 31.269 14.8378 31.269H13.7632C13.7632 31.4084 13.8151 32.666 15.6145 33.8653Z" fill="#9B51E0"/>
<path d="M20.2109 19.4479C20.2109 18.8999 20.4545 18.2424 20.9154 17.5464C21.1373 17.2106 21.3885 16.895 21.6659 16.6034L21.2855 16.2239L20.9056 15.844C20.8334 15.9163 19.1362 17.6344 19.1362 19.4479H20.2109Z" fill="#9B51E0"/>
</svg>
