<svg width="142" height="112" viewBox="0 0 142 112" fill="none" xmlns="http://www.w3.org/2000/svg">
<g opacity="0.02">
<path d="M19.9019 24.3148C22.3435 24.3148 24.3228 22.3355 24.3228 19.8939C24.3228 17.4523 22.3435 15.473 19.9019 15.473C17.4603 15.473 15.481 17.4523 15.481 19.8939C15.481 22.3355 17.4603 24.3148 19.9019 24.3148Z" fill="#333333"/>
<path d="M35.373 8.8418C37.8146 8.8418 39.7939 6.86249 39.7939 4.4209C39.7939 1.9793 37.8146 0 35.373 0C32.9315 0 30.9521 1.9793 30.9521 4.4209C30.9521 6.86249 32.9315 8.8418 35.373 8.8418Z" fill="#333333"/>
<path d="M140.775 26.8064L140.257 25.7711C139.493 24.2371 138.164 23.0591 136.55 22.4847C134.935 21.9104 133.161 21.9844 131.6 22.6914L98.5588 37.7777L98.5865 37.8401C97.5553 38.1148 96.5921 38.6001 95.7576 39.2652C94.9231 39.9303 94.2353 40.761 93.7375 41.705C93.2397 42.6489 92.9427 43.6857 92.8651 44.75C92.7876 45.8144 92.9312 46.8832 93.2869 47.8894L92.6367 48.3229C83.9632 43.9849 62.9275 47.4821 43.2733 54.3187C42.1185 54.7203 40.9672 55.1342 39.8195 55.5605C37.6474 47.5136 43.2683 41.6567 43.5742 41.3464L40.4425 38.2264C38.3006 40.5427 36.6984 43.3048 35.7511 46.3141C34.6327 49.8391 34.6018 53.6192 35.6624 57.1619C32.1257 58.5741 28.7271 60.067 25.5112 61.6185C23.7277 54.9976 23.5693 48.1662 23.8122 43.2297C23.8622 42.2321 23.7121 41.2345 23.3706 40.2957C23.0292 39.3569 22.5033 38.496 21.8239 37.7636C21.1446 37.0312 20.3256 36.4422 19.4151 36.0312C18.5046 35.6202 17.5211 35.3956 16.5225 35.3706C15.5239 35.3456 14.5303 35.5207 13.6004 35.8856C12.6705 36.2505 11.823 36.7978 11.1079 37.4953C10.3928 38.1928 9.82446 39.0263 9.43643 39.9468C9.04841 40.8673 8.84853 41.8561 8.84857 42.8551V58.4885C8.84791 58.8051 8.72175 59.1085 8.49774 59.3323C8.27374 59.556 7.97015 59.6818 7.65354 59.6821C6.91328 59.6818 6.18028 59.828 5.49671 60.1121C4.81315 60.3962 4.19252 60.8127 3.67054 61.3376C3.14856 61.8625 2.73554 62.4855 2.45525 63.1706C2.17496 63.8558 2.03294 64.5896 2.03734 65.3298C2.13534 68.9163 2.77446 72.4675 3.93308 75.8632C0.550817 79.4842 -0.658851 82.7664 0.338338 85.6342C4.05162 96.3101 12.5834 104.565 24.3618 108.877C30.1514 110.969 36.2637 112.026 42.4195 112C49.1414 111.977 55.812 110.828 62.1544 108.601C74.9034 104.167 85.4893 95.9147 91.9615 85.3656C98.5212 74.6745 100.089 62.9072 96.3755 52.2312C96.3034 52.0279 96.2204 51.8287 96.1268 51.6344C97.0586 52.2941 98.1253 52.7386 99.2499 52.9357C100.374 53.1329 101.529 53.0778 102.629 52.7745L102.656 52.8281L102.986 52.6673C103.656 52.4479 104.293 52.1377 104.879 51.7452L137.716 35.7496C138.508 35.3686 139.217 34.8337 139.802 34.1761C140.386 33.5184 140.833 32.7511 141.118 31.9189C141.403 31.0866 141.519 30.2061 141.46 29.3284C141.401 28.4508 141.168 27.5937 140.775 26.8069L140.775 26.8064ZM4.51415 84.1816C4.20828 83.3027 4.71447 81.9621 5.89347 80.3888C7.19838 82.8677 8.98155 85.0635 11.14 86.8494C10.1681 86.7587 9.2036 86.6017 8.25313 86.3796C6.15956 85.8718 4.83218 85.0918 4.51498 84.1827V84.1814L4.51415 84.1816ZM83.7151 59.9391C83.2492 63.9013 82.4734 64.7175 82.4408 64.7504L82.4836 64.7932C80.6536 66.0394 78.6465 67.2822 76.4878 68.5087C77.9302 65.6536 78.8831 62.5765 79.3066 59.4058C79.3795 58.8705 79.6438 58.3796 80.0507 58.0241C80.4575 57.6685 80.9793 57.4723 81.5196 57.4717C81.8316 57.4716 82.1401 57.5376 82.4249 57.6653C82.7096 57.793 82.964 57.9795 83.1715 58.2126C83.3789 58.4457 83.5347 58.7201 83.6285 59.0177C83.7223 59.3153 83.752 59.6294 83.7157 59.9394L83.7151 59.9391ZM40.3074 65.518L43.7038 62.6878C42.9011 61.7316 42.1801 60.7096 41.5486 59.6327C42.6032 59.2433 43.6651 58.8626 44.7261 58.4932C56.8145 54.2886 68.5989 51.6212 77.9055 50.9829C82.236 50.6861 85.8863 50.8591 88.4604 51.4838C90.5551 51.9917 91.8827 52.7725 92.1991 53.6824C92.5155 54.5923 91.9587 56.0282 90.6319 57.7264C89.8639 58.6851 89.0204 59.5807 88.1095 60.4047C88.2961 58.6684 87.7914 56.9286 86.7046 55.5618C85.6179 54.195 84.0365 53.3112 82.3029 53.1018C80.5693 52.8924 78.8229 53.3742 77.442 54.443C76.061 55.5117 75.1566 57.0813 74.9244 58.812C73.8015 67.0766 68.9159 71.8929 67.5531 73.0921C62.4729 75.4442 57.2778 77.5398 51.9874 79.3709C49.7324 80.1552 47.4928 80.8848 45.2688 81.5598C36.5355 79.8743 30.3607 74.5968 26.903 65.8523C30.1999 64.2442 33.7112 62.698 37.3703 61.238C38.2069 62.7574 39.1906 64.191 40.3071 65.5183L40.3074 65.518ZM6.8039 64.4561C6.91493 64.3437 7.04726 64.2546 7.19315 64.194C7.33904 64.1334 7.49556 64.1024 7.65354 64.103C9.14246 64.1013 10.5699 63.5091 11.6227 62.4563C12.6756 61.4035 13.2678 59.976 13.2695 58.4871V42.8551C13.27 42.0418 13.5933 41.262 14.1683 40.6869C14.7434 40.1119 15.5232 39.7886 16.3365 39.7881C16.7522 39.7883 17.1636 39.873 17.5456 40.0372C17.9277 40.2013 18.2723 40.4414 18.5587 40.7429C18.845 41.0443 19.0671 41.4009 19.2113 41.7908C19.3556 42.1807 19.4191 42.5959 19.3979 43.0112C19.0818 49.4334 19.4104 58.8814 22.7708 67.4206C24.7063 72.3389 27.444 76.3862 30.9072 79.4491C32.8794 81.1884 35.0992 82.6251 37.4938 83.7119C32.5579 84.9718 27.5466 85.9148 22.4904 86.5349C21.7048 86.6261 20.2647 86.2376 20.2647 86.2376C15.3277 85.4148 11.5782 82.2956 9.12018 76.967C7.4792 73.29 6.57502 69.327 6.4588 65.3022C6.45725 65.1453 6.48698 64.9897 6.54623 64.8444C6.60548 64.6992 6.69308 64.5672 6.8039 64.4561ZM100.185 48.6039L100.703 48.2588C100.948 48.0992 101.158 47.8926 101.323 47.6511C101.487 47.4096 101.602 47.1379 101.66 46.8517C101.719 46.5656 101.72 46.2706 101.665 45.9839C101.609 45.6972 101.496 45.4245 101.334 45.1814C101.172 44.9383 100.964 44.7298 100.72 44.5679C100.477 44.4059 100.205 44.2938 99.9178 44.2379C99.6311 44.1821 99.3361 44.1836 99.05 44.2424C98.7638 44.3012 98.4922 44.4162 98.2507 44.5806L97.2704 45.2341C97.2832 44.6744 97.4375 44.1271 97.719 43.6433C98.0004 43.1594 98.3999 42.7547 98.8801 42.4669C99.3603 42.1792 99.9055 42.0178 100.465 41.9977C101.024 41.9777 101.58 42.0997 102.079 42.3523C102.579 42.605 103.006 42.9801 103.322 43.4426C103.637 43.905 103.83 44.4399 103.883 44.9972C103.936 45.5545 103.846 46.1161 103.623 46.6295C103.4 47.143 103.051 47.5916 102.608 47.9336L101.392 48.5263C100.999 48.63 100.589 48.6565 100.186 48.6042L100.185 48.6039Z" fill="#333333"/>
<path d="M28.7427 28.736H33.1636V33.1569H28.7427V28.736Z" fill="#333333"/>
<path d="M26.5312 48.6299H30.9521V53.0508H26.5312V48.6299Z" fill="#333333"/>
<path d="M39.7944 68.5239H44.2153V72.9448H39.7944V68.5239Z" fill="#333333"/>
<path d="M4.4292 26.5254H8.8501V30.9463H4.4292V26.5254Z" fill="#333333"/>
<path d="M23.0968 85.8362L25.549 82.158C20.1467 78.5563 19.9082 75.2382 19.9019 75.0986C19.9038 75.1359 19.9019 75.1553 19.9019 75.1553H15.481C15.481 75.7289 15.6945 80.9024 23.0968 85.8362Z" fill="#333333"/>
<path d="M42.0059 26.5254C42.0059 24.2713 43.008 21.5663 44.904 18.7029C45.8171 17.3215 46.8504 16.0235 47.9918 14.8238L46.4268 13.2627L44.8637 11.6996C44.5667 11.997 37.585 19.0651 37.585 26.5254H42.0059Z" fill="#333333"/>
</g>
</svg>
