<svg width="117" height="116" viewBox="0 0 117 116" fill="none" xmlns="http://www.w3.org/2000/svg">
<g opacity="0.018">
<path d="M88.1564 41.767H63.3781C65.6169 41.767 67.4376 39.9463 67.4376 37.7042C67.4376 35.4621 65.6136 33.6546 63.3781 33.6546H53.2443C51.0055 33.6546 49.1881 35.4621 49.1881 37.7042C49.1881 39.9463 51.0087 41.767 53.2443 41.767H28.4627C21.5685 41.767 15.8595 47.9467 14.75 54.5249H101.879C100.763 47.9434 95.0539 41.767 88.1564 41.767Z" fill="black"/>
<path d="M102.08 61.4881V60.3292H14.7465H14.5423H0V66.1303H14.5423V102.076C14.5423 109.774 20.7781 116 28.4624 116H88.1595C95.8504 116 102.083 109.774 102.083 102.076V67.2892H116.006V61.4881H102.08Z" fill="black"/>
<path d="M37.0057 13.9398C37.4107 14.4732 37.842 14.9868 38.293 15.4708L39.4157 16.5968C40.1269 17.3112 40.7886 18.0257 41.3154 18.6677C41.5788 18.9903 41.7961 19.2965 41.9574 19.55C42.1121 19.8002 42.2537 19.9945 42.2866 20.2842C42.3261 20.5937 42.1648 21.0118 41.8488 21.43C41.5327 21.8415 41.0915 22.2399 40.5746 22.6383C41.187 22.8753 41.8553 22.9543 42.5665 22.8687C43.2743 22.7864 44.0513 22.4703 44.6999 21.7954C45.3419 21.1205 45.7008 20.1229 45.7568 19.2438C45.8193 18.3549 45.6844 17.5516 45.4835 16.8272C45.0786 15.3852 44.4069 14.2164 43.6892 13.1431C43.3303 12.6163 42.8858 12.083 42.5698 11.6714C42.2537 11.2994 41.9607 10.9175 41.694 10.5388C40.6075 9.02765 39.847 7.66461 39.5639 6.06452C39.2675 4.44468 39.5968 2.37379 40.5746 0C38.0362 0.533362 35.7776 2.65693 35.0402 5.62664C34.6747 7.09174 34.7537 8.7017 35.1455 10.1141C35.534 11.5562 36.2221 12.827 37.0057 13.9398Z" fill="black"/>
<path d="M52.049 13.9399C52.454 14.4733 52.8886 14.9869 53.3364 15.4709L54.4558 16.5968C55.1669 17.3113 55.8254 18.0257 56.3653 18.6677C56.6188 18.9904 56.8361 19.2966 57.0007 19.5501C57.1621 19.8003 57.2971 19.9946 57.3234 20.2843C57.3662 20.5938 57.2082 21.0119 56.8921 21.43C56.5793 21.8416 56.1349 22.2399 55.6114 22.6383C56.2303 22.8754 56.902 22.9544 57.6098 22.8688C58.3144 22.7865 59.1013 22.4704 59.7433 21.7955C60.3919 21.1205 60.7442 20.123 60.8034 19.2439C60.866 18.355 60.7343 17.5516 60.5335 16.8273C60.1219 15.3853 59.447 14.2165 58.7292 13.1432C58.377 12.6164 57.9292 12.083 57.6131 11.6715C57.3036 11.2994 57.004 10.9175 56.7439 10.5389C55.6542 9.02771 54.8903 7.66468 54.6072 6.06459C54.3109 4.45134 54.6335 2.38044 55.6081 0.00665283C53.073 0.540015 50.8177 2.66359 50.0835 5.63329C49.7181 7.09839 49.7938 8.70836 50.1856 10.1208C50.5806 11.5562 51.2556 12.8271 52.049 13.9399Z" fill="black"/>
<path d="M65.7542 13.9398C66.1559 14.4732 66.5872 14.9868 67.0382 15.4708L68.1609 16.5968C68.8721 17.3112 69.5272 18.0257 70.0606 18.6677C70.324 18.9903 70.5413 19.2965 70.7026 19.55C70.8574 19.8002 70.9923 19.9945 71.0319 20.2842C71.0747 20.5937 70.91 21.0118 70.594 21.43C70.2812 21.8415 69.8367 22.2399 69.3132 22.6383C69.9322 22.8753 70.6038 22.9543 71.3051 22.8687C72.013 22.7864 72.7966 22.4703 73.4452 21.7954C74.0872 21.1205 74.4427 20.1229 74.4987 19.2438C74.5646 18.3549 74.4296 17.5516 74.2287 16.8272C73.8238 15.3852 73.1554 14.2164 72.4344 13.1431C72.0755 12.6163 71.6311 12.083 71.315 11.6714C70.9989 11.2994 70.7026 10.9175 70.4392 10.5388C69.3528 9.02765 68.5922 7.66461 68.3124 6.06452C68.0128 4.44468 68.342 2.37379 69.3132 0C66.7781 0.533362 64.5163 2.65693 63.7854 5.62664C63.4232 7.09174 63.4989 8.7017 63.8907 10.1141C64.2792 11.5562 64.9607 12.827 65.7542 13.9398Z" fill="black"/>
</g>
</svg>
