<svg width="54" height="54" viewBox="0 0 54 54" fill="none" xmlns="http://www.w3.org/2000/svg">
<rect opacity="0.12" width="54" height="54" rx="4" fill="#27AE60"/>
<path d="M34.2122 23.5762H28.5311C29.0444 23.5762 29.4618 23.1587 29.4618 22.6447C29.4618 22.1306 29.0437 21.7162 28.5311 21.7162H26.2076C25.6943 21.7162 25.2777 22.1306 25.2777 22.6447C25.2777 23.1587 25.6951 23.5762 26.2076 23.5762H20.5258C18.9451 23.5762 17.6362 24.993 17.3818 26.5012H37.3584C37.1025 24.9923 35.7936 23.5762 34.2122 23.5762Z" fill="#27AE60"/>
<path d="M37.4044 28.0977V27.832H17.381H17.3342H14V29.1621H17.3342V37.4036C17.3342 39.1685 18.7639 40.5959 20.5258 40.5959H34.2129C35.9762 40.5959 37.4052 39.1685 37.4052 37.4036V29.4278H40.5975V28.0977H37.4044Z" fill="#27AE60"/>
<path d="M22.4846 17.1961C22.5775 17.3184 22.6764 17.4361 22.7798 17.5471L23.0372 17.8052C23.2002 17.969 23.352 18.1329 23.4727 18.2801C23.5331 18.354 23.5829 18.4242 23.6199 18.4824C23.6554 18.5397 23.6879 18.5843 23.6954 18.6507C23.7045 18.7216 23.6675 18.8175 23.595 18.9134C23.5226 19.0077 23.4214 19.0991 23.3029 19.1904C23.4433 19.2448 23.5965 19.2629 23.7596 19.2433C23.9219 19.2244 24.1 19.1519 24.2487 18.9972C24.3959 18.8424 24.4782 18.6137 24.491 18.4122C24.5054 18.2083 24.4744 18.0242 24.4284 17.8581C24.3355 17.5275 24.1815 17.2595 24.017 17.0134C23.9347 16.8926 23.8328 16.7703 23.7603 16.676C23.6879 16.5907 23.6207 16.5031 23.5595 16.4163C23.3104 16.0698 23.1361 15.7573 23.0711 15.3905C23.0032 15.0191 23.0787 14.5443 23.3029 14C22.7209 14.1223 22.2031 14.6092 22.034 15.2901C21.9502 15.626 21.9683 15.9951 22.0581 16.3189C22.1472 16.6496 22.305 16.9409 22.4846 17.1961Z" fill="#27AE60"/>
<path d="M25.9337 17.1961C26.0265 17.3184 26.1261 17.4361 26.2288 17.5471L26.4855 17.8053C26.6485 17.9691 26.7995 18.1329 26.9233 18.2801C26.9814 18.354 27.0312 18.4242 27.069 18.4824C27.106 18.5397 27.1369 18.5843 27.1429 18.6507C27.1528 18.7217 27.1165 18.8175 27.0441 18.9134C26.9723 19.0078 26.8704 19.0991 26.7504 19.1904C26.8923 19.2448 27.0463 19.2629 27.2086 19.2433C27.3702 19.2244 27.5506 19.1519 27.6978 18.9972C27.8465 18.8424 27.9272 18.6137 27.9408 18.4122C27.9552 18.2084 27.925 18.0242 27.8789 17.8581C27.7846 17.5275 27.6298 17.2595 27.4653 17.0134C27.3845 16.8926 27.2818 16.7703 27.2094 16.676C27.1384 16.5907 27.0697 16.5031 27.0101 16.4163C26.7602 16.0698 26.5851 15.7573 26.5202 15.3905C26.4522 15.0206 26.5262 14.5458 26.7497 14.0015C26.1684 14.1238 25.6513 14.6107 25.483 15.2916C25.3992 15.6275 25.4166 15.9966 25.5064 16.3205C25.597 16.6496 25.7517 16.9409 25.9337 17.1961Z" fill="#27AE60"/>
<path d="M29.0759 17.1961C29.168 17.3184 29.2669 17.4361 29.3703 17.5471L29.6277 17.8052C29.7907 17.969 29.9409 18.1329 30.0632 18.2801C30.1236 18.354 30.1734 18.4242 30.2104 18.4824C30.2459 18.5397 30.2769 18.5843 30.2859 18.6507C30.2957 18.7216 30.258 18.8175 30.1855 18.9134C30.1138 19.0077 30.0119 19.0991 29.8919 19.1904C30.0338 19.2448 30.1878 19.2629 30.3486 19.2433C30.5109 19.2244 30.6905 19.1519 30.8392 18.9972C30.9864 18.8424 31.068 18.6137 31.0808 18.4122C31.0959 18.2083 31.0649 18.0242 31.0189 17.8581C30.926 17.5275 30.7728 17.2595 30.6075 17.0134C30.5252 16.8926 30.4233 16.7703 30.3508 16.676C30.2784 16.5907 30.2104 16.5031 30.15 16.4163C29.9009 16.0698 29.7266 15.7573 29.6624 15.3905C29.5937 15.0191 29.6692 14.5443 29.8919 14C29.3106 14.1223 28.7921 14.6092 28.6245 15.2901C28.5414 15.626 28.5588 15.9951 28.6486 16.3189C28.7377 16.6496 28.894 16.9409 29.0759 17.1961Z" fill="#27AE60"/>
</svg>
