<svg width="54" height="54" viewBox="0 0 54 54" fill="none" xmlns="http://www.w3.org/2000/svg">
<rect opacity="0.12" width="54" height="54" rx="4" fill="#EF5DA8"/>
<path d="M38.6681 26.0644H38.0606L37.3957 23.1872C37.155 22.1556 36.238 21.4334 35.1834 21.4334H31.8133V18.6708C31.8133 17.1921 30.6097 16 29.1425 16H16.5333C15.1348 16 14 17.1348 14 18.5333V31.9678C14 33.3662 15.1348 34.501 16.5333 34.501H17.4503C17.9432 36.1402 19.4563 37.3324 21.2445 37.3324C23.0328 37.3324 24.5573 36.1402 25.0502 34.501C25.2661 34.501 30.5848 34.501 30.4607 34.501C30.9536 36.1402 32.4667 37.3324 34.2549 37.3324C36.0546 37.3324 37.5677 36.1402 38.0606 34.501H38.6681C39.929 34.501 40.9378 33.4923 40.9378 32.2314V28.334C40.9378 27.0731 39.929 26.0644 38.6681 26.0644ZM21.2445 35.0398C20.3112 35.0398 19.5709 34.2589 19.5709 33.3547C19.5709 32.4263 20.3161 31.6697 21.2445 31.6697C22.173 31.6697 22.9296 32.4263 22.9296 33.3547C22.9296 34.2738 22.1763 35.0398 21.2445 35.0398ZM25.3712 22.1211L21.9552 24.7805C21.467 25.1603 20.7316 25.0897 20.339 24.5742L19.0207 22.8433C18.631 22.3389 18.7342 21.6168 19.2385 21.2385C19.7314 20.8488 20.4536 20.9519 20.8434 21.4563L21.4623 22.2587L23.9612 20.31C24.4541 19.9318 25.1763 20.012 25.5661 20.5164C25.9558 21.0207 25.8641 21.7314 25.3712 22.1211ZM34.2549 35.0398C33.3214 35.0398 32.5814 34.2589 32.5814 33.3547C32.5814 32.4263 33.3379 31.6697 34.2549 31.6697C35.1834 31.6697 35.94 32.4263 35.94 33.3547C35.94 34.275 35.1851 35.0398 34.2549 35.0398ZM32.4438 23.726H34.6217C34.8854 23.726 35.1261 23.8979 35.2178 24.1501L35.917 26.2019C36.0546 26.6146 35.7565 27.0387 35.3209 27.0387H32.4438C32.0999 27.0387 31.8133 26.7521 31.8133 26.4082V24.3564C31.8133 24.0125 32.0999 23.726 32.4438 23.726Z" fill="#EF5DA8"/>
</svg>
