<svg width="54" height="54" viewBox="0 0 54 54" fill="none" xmlns="http://www.w3.org/2000/svg">
<rect opacity="0.12" width="54" height="54" rx="4" fill="#5D5FEF"/>
<path d="M26 15C24.3458 15 23 16.3458 23 18C23 19.6542 24.3458 21 26 21C27.6542 21 29 19.6542 29 18C29 16.3458 27.6542 15 26 15Z" fill="#5D5FEF"/>
<path d="M26 10C21.5888 10 18 13.734 18 18.3237C18 19.8977 18.4247 21.431 19.2286 22.7579L26 34L32.7714 22.7579C33.5753 21.431 34 19.8977 34 18.3237C34 13.734 30.4112 10 26 10ZM26 23.526C23.2432 23.526 21 21.192 21 18.3237C21 15.4554 23.2432 13.1214 26 13.1214C28.7568 13.1214 31 15.4554 31 18.3237C31 21.192 28.7568 23.526 26 23.526Z" fill="#5D5FEF"/>
<path d="M21 45H31L30.2097 39H21.7705L21 45Z" fill="#5D5FEF"/>
<path d="M23 36H26L23.4965 32L23 36Z" fill="#5D5FEF"/>
<path d="M31.8009 36H40L37.3982 30H31L31.8009 36Z" fill="#5D5FEF"/>
<path d="M12 36H20.2152L21 30H14.616L12 36Z" fill="#5D5FEF"/>
<path d="M27 36H30L29.4932 32L27 36Z" fill="#5D5FEF"/>
<path d="M20 39H11.5148L9 45H19.2457L20 39Z" fill="#5D5FEF"/>
<path d="M41.49 39H33L33.7724 45H44L41.49 39Z" fill="#5D5FEF"/>
</svg>
