<svg width="132" height="104" viewBox="0 0 132 104" fill="none" xmlns="http://www.w3.org/2000/svg">
<g opacity="0.02">
<path d="M120.635 49.066H117.673L114.432 35.039C113.258 30.0097 108.788 26.4889 103.646 26.4889H87.2161V13.0207C87.2161 5.81181 81.3484 0 74.1954 0H12.723C5.90502 0 0.372559 5.53246 0.372559 12.3501V77.8463C0.372559 84.664 5.90502 90.1965 12.723 90.1965H17.1937C19.5967 98.1878 26.9734 104 35.6913 104C44.4092 104 51.8418 98.1878 54.2448 90.1965C55.2972 90.1965 81.2271 90.1965 80.6219 90.1965C83.0248 98.1878 90.4016 104 99.1194 104C107.893 104 115.27 98.1878 117.673 90.1965H120.635C126.782 90.1965 131.7 85.2787 131.7 79.1316V60.1309C131.7 53.9838 126.782 49.066 120.635 49.066ZM35.6913 92.8232C31.1411 92.8232 27.5321 89.0161 27.5321 84.6081C27.5321 80.0815 31.1647 76.3933 35.6913 76.3933C40.2179 76.3933 43.9061 80.0815 43.9061 84.6081C43.9061 89.0887 40.2338 92.8232 35.6913 92.8232ZM55.8094 29.8419L39.1561 42.807C36.7759 44.6585 33.1906 44.314 31.2766 41.8011L24.8498 33.3626C22.9496 30.9037 23.4527 27.3829 25.9116 25.5387C28.3145 23.6388 31.8353 24.1416 33.7355 26.6005L36.7531 30.5124L48.9357 21.0121C51.3387 19.1682 54.8594 19.5594 56.7596 22.0183C58.6595 24.4769 58.2123 27.942 55.8094 29.8419ZM99.1194 92.8232C94.5686 92.8232 90.9606 89.0161 90.9606 84.6081C90.9606 80.0815 94.6488 76.3933 99.1194 76.3933C103.646 76.3933 107.335 80.0815 107.335 84.6081C107.335 89.0947 103.654 92.8232 99.1194 92.8232ZM90.29 37.6657H100.908C102.193 37.6657 103.367 38.5038 103.814 39.7334L107.223 49.7365C107.893 51.7483 106.44 53.816 104.317 53.816H90.29C88.6132 53.816 87.2161 52.4189 87.2161 50.7424V40.7393C87.2161 39.0628 88.6132 37.6657 90.29 37.6657Z" fill="#2E2E2E"/>
</g>
</svg>
