<svg width="110" height="110" viewBox="0 0 110 110" fill="none" xmlns="http://www.w3.org/2000/svg">
<g opacity="0.02">
<path d="M53.4286 15.7142C48.2298 15.7142 44 19.944 44 25.1428C44 30.3416 48.2298 34.5714 53.4286 34.5714C58.6274 34.5714 62.8571 30.3416 62.8571 25.1428C62.8571 19.944 58.6274 15.7142 53.4286 15.7142Z" fill="#2E2E2E"/>
<path d="M53.4285 0C39.5647 0 28.2856 11.7355 28.2856 26.1602C28.2856 31.107 29.6205 35.926 32.1471 40.0961L53.4285 75.4286L74.7099 40.0961C77.2365 35.926 78.5714 31.107 78.5714 26.1602C78.5714 11.7355 67.2923 0 53.4285 0ZM53.4285 42.5103C44.7644 42.5103 37.7142 35.1749 37.7142 26.1602C37.7142 17.1455 44.7644 9.81007 53.4285 9.81007C62.0926 9.81007 69.1428 17.1455 69.1428 26.1602C69.1428 35.1749 62.0926 42.5103 53.4285 42.5103Z" fill="#2E2E2E"/>
<path d="M37.7144 110H69.1429L66.6591 91.1429H40.1359L37.7144 110Z" fill="#2E2E2E"/>
<path d="M44 81.7143H53.4286L45.5603 69.1428L44 81.7143Z" fill="#2E2E2E"/>
<path d="M71.6596 81.7143H97.4283L89.2513 62.8572H69.1426L71.6596 81.7143Z" fill="#2E2E2E"/>
<path d="M9.42871 81.7143H35.2479L37.7144 62.8572H17.6503L9.42871 81.7143Z" fill="#2E2E2E"/>
<path d="M56.5713 81.7143H65.9999L64.407 69.1428L56.5713 81.7143Z" fill="#2E2E2E"/>
<path d="M34.5714 91.1429H7.90366L0 110H32.2009L34.5714 91.1429Z" fill="#2E2E2E"/>
<path d="M102.111 91.1429H75.4282L77.8558 110H110L102.111 91.1429Z" fill="#2E2E2E"/>
</g>
</svg>
