<svg width="54" height="54" viewBox="0 0 54 54" fill="none" xmlns="http://www.w3.org/2000/svg">
<rect opacity="0.12" width="54" height="54" rx="4" fill="#2F80ED"/>
<path d="M39.5835 17.4469C39.6137 17.7499 39.6294 18.057 39.6294 18.3678C39.6294 23.4462 35.4978 27.5777 30.4196 27.5777C25.3413 27.5777 21.2098 23.4462 21.2098 18.3678C21.2098 18.057 21.2255 17.7499 21.2557 17.4469H19.1447L18.3389 11H12V12.842H16.7128L18.7851 29.4196H41.0985L42.507 17.4469H39.5835Z" fill="#2F80ED"/>
<path d="M19.2454 33.1036H16.6047C15.0813 33.1036 13.8418 34.343 13.8418 35.8665C13.8418 37.39 15.0813 38.6294 16.6047 38.6294H16.7631C16.6609 38.9177 16.6047 39.2275 16.6047 39.5504C16.6047 41.074 17.8442 42.3134 19.3677 42.3134C21.273 42.3134 22.6077 40.4212 21.9722 38.6294H30.5779C29.9412 40.4246 31.2812 42.3134 33.1824 42.3134C34.7058 42.3134 35.9453 41.074 35.9453 39.5504C35.9453 39.2275 35.8891 38.9177 35.7869 38.6294H37.7873V36.7875H16.6047C16.0969 36.7875 15.6838 36.3744 15.6838 35.8665C15.6838 35.3587 16.0969 34.9455 16.6047 34.9455H40.4482L40.8817 31.2616H19.0151L19.2454 33.1036Z" fill="#2F80ED"/>
<path d="M30.4196 25.7357C34.4822 25.7357 37.7875 22.4305 37.7875 18.3678C37.7875 14.3052 34.4822 11 30.4196 11C26.3569 11 23.0518 14.3052 23.0518 18.3678C23.0518 22.4305 26.357 25.7357 30.4196 25.7357ZM29.4986 15.6049H31.3406V17.9864L32.9127 19.5586L31.6103 20.861L29.4986 18.7493V15.6049H29.4986Z" fill="#2F80ED"/>
</svg>
