<svg width="105" height="108" viewBox="0 0 105 108" fill="none" xmlns="http://www.w3.org/2000/svg">
<g opacity="0.02">
<path d="M94.492 22.0849C94.5955 23.1228 94.6494 24.1751 94.6494 25.2398C94.6494 42.6366 80.4959 56.7896 63.0996 56.7896C45.7028 56.7896 31.5498 42.6366 31.5498 25.2398C31.5498 24.1751 31.6034 23.1228 31.7069 22.0849H24.4755L21.7151 0H0V6.30996H16.1447L23.2434 63.0996H99.682L104.507 22.0849H94.492Z" fill="#2E2E2E"/>
<path d="M24.8205 75.7196H15.7745C10.5555 75.7196 6.30957 79.9655 6.30957 85.1845C6.30957 90.4037 10.5555 94.6494 15.7745 94.6494H16.3172C15.967 95.6369 15.7745 96.6983 15.7745 97.8044C15.7745 103.024 20.0205 107.269 25.2394 107.269C31.7665 107.269 36.3387 100.787 34.1615 94.6494H63.6419C61.4607 100.799 66.0514 107.269 72.5641 107.269C77.7829 107.269 82.0291 103.024 82.0291 97.8044C82.0291 96.6983 81.8364 95.6369 81.4862 94.6494H88.339V88.3395H15.7745C14.0349 88.3395 12.6195 86.9244 12.6195 85.1845C12.6195 83.4448 14.0349 82.0295 15.7745 82.0295H97.4544L98.9393 69.4096H24.0317L24.8205 75.7196Z" fill="#2E2E2E"/>
<path d="M63.0997 50.4797C77.0169 50.4797 88.3395 39.1571 88.3395 25.2398C88.3395 11.3226 77.0169 0 63.0997 0C49.1822 0 37.8599 11.3226 37.8599 25.2398C37.8599 39.1571 49.1825 50.4797 63.0997 50.4797ZM59.9447 15.7749H66.2547V23.933L71.6402 29.3188L67.1785 33.7806L59.9445 26.5464V15.7749H59.9447Z" fill="#2E2E2E"/>
</g>
</svg>
