<svg width="54" height="54" viewBox="0 0 54 54" fill="none" xmlns="http://www.w3.org/2000/svg">
<rect opacity="0.12" width="54" height="54" rx="4" fill="#EB5757"/>
<path d="M12.6121 18.5229H20.1352C20.3469 18.5229 20.5565 18.5646 20.7521 18.6456C20.9477 18.7266 21.1254 18.8454 21.2751 18.995C21.4248 19.1447 21.5435 19.3225 21.6245 19.518C21.7056 19.7136 21.7473 19.9232 21.7473 20.1349V26.0458C21.7473 26.4733 21.5774 26.8834 21.2751 27.1857C20.9728 27.488 20.5627 27.6579 20.1352 27.6579H12.6121C12.1845 27.6579 11.7745 27.488 11.4722 27.1857C11.1698 26.8834 11 26.4734 11 26.0458V20.135C11 19.9233 11.0417 19.7137 11.1227 19.5181C11.2037 19.3225 11.3225 19.1448 11.4722 18.9951C11.6219 18.8454 11.7996 18.7266 11.9952 18.6456C12.1908 18.5646 12.4004 18.5229 12.6121 18.5229V18.5229Z" fill="#EB5757"/>
<path d="M28.1954 16.3732C29.6792 16.3732 30.882 15.1704 30.882 13.6866C30.882 12.2028 29.6792 11 28.1954 11C26.7116 11 25.5088 12.2028 25.5088 13.6866C25.5088 15.1704 26.7116 16.3732 28.1954 16.3732Z" fill="#EB5757"/>
<path d="M16.9121 29.1897C16.9123 30.024 17.2403 30.8248 17.8256 31.4194H26.5608V29.1868C26.5608 29.0449 26.5044 28.9088 26.4041 28.8085C26.3037 28.7082 26.1677 28.6518 26.0258 28.6518H17.4471C17.3049 28.6525 17.1688 28.7094 17.0685 28.8102C16.9683 28.911 16.912 29.0475 16.9121 29.1897Z" fill="#EB5757"/>
<path d="M43.6349 37.5215C43.3729 36.5528 42.7853 35.7038 41.971 35.1173C41.1567 34.5307 40.1653 34.2425 39.1634 34.3009C39.2476 33.987 39.291 33.6636 39.2925 33.3387C39.2824 32.8234 39.1473 32.3184 38.899 31.8668C38.6507 31.4153 38.2964 31.0308 37.8667 30.7464C36.7127 29.981 35.85 28.0344 35.7196 25.9868H36.7487C37.1742 25.987 37.5823 25.8184 37.8837 25.518C38.185 25.2176 38.3549 24.81 38.356 24.3845V23.3174C38.3549 22.8919 38.185 22.4843 37.8836 22.184C37.5823 21.8836 37.1741 21.7151 36.7487 21.7153H33.0737C29.9667 20.8205 29.0319 19.79 28.4733 19.1726C28.4618 19.16 28.4505 19.1474 28.4395 19.1351C28.4952 18.7231 28.4207 18.304 28.2263 17.9366C28.0318 17.5691 27.7273 17.2718 27.3553 17.0861C27.0897 16.9594 26.799 16.8942 26.5047 16.8954C26.2105 16.8966 25.9203 16.9642 25.6558 17.0932C25.3913 17.2221 25.1593 17.4091 24.9771 17.6401C24.7949 17.8712 24.6671 18.1404 24.6034 18.4277L23.0617 25.7945C23.0162 26.0133 23.0171 26.2392 23.0641 26.4577C23.1112 26.6762 23.2034 26.8824 23.3349 27.0631C23.4663 27.2438 23.6342 27.3951 23.8276 27.5071C24.0209 27.6191 24.2356 27.6894 24.4578 27.7135L27.0995 28.0058C27.2357 28.0203 27.3611 28.0864 27.4498 28.1907C27.5386 28.2949 27.584 28.4293 27.5765 28.566L27.1602 35.6081C26.7281 35.2304 26.4209 34.7305 26.2792 34.1745C26.1375 33.6184 26.1679 33.0324 26.3665 32.4941H18.1534C17.287 33.9292 15.9003 36.62 16.4614 38.3703C16.566 38.6997 16.7477 38.9994 16.9915 39.2444C17.2353 39.4894 17.5341 39.6726 17.863 39.7788C18.1046 39.8526 18.3579 39.8802 18.6097 39.8598C18.6707 40.7289 19.059 41.5426 19.6962 42.1367C20.3335 42.7308 21.1723 43.0611 22.0435 43.0611C22.9148 43.0611 23.7536 42.7307 24.3908 42.1366C25.0281 41.5425 25.4163 40.7288 25.4773 39.8597L34.6869 39.8596C34.7764 39.8547 34.864 39.832 34.9447 39.793C35.0254 39.754 35.0976 39.6994 35.157 39.6323C35.2223 39.9497 35.3283 40.2573 35.4725 40.5476C35.5128 40.6321 35.5746 40.7045 35.6518 40.7576C35.7289 40.8108 35.8186 40.8427 35.9119 40.8503C36.0053 40.8578 36.099 40.8408 36.1837 40.8008C36.2683 40.7608 36.341 40.6992 36.3945 40.6223C36.4569 40.5325 36.5249 40.4448 36.5963 40.3585C36.6677 40.8225 36.8334 41.2669 37.0831 41.6644C37.3328 42.0619 37.6613 42.4041 38.0482 42.6699C38.4352 42.9357 38.8725 43.1194 39.3331 43.2098C39.7938 43.3002 40.2681 43.2953 40.7268 43.1955C41.1855 43.0956 41.6189 42.9029 42.0003 42.6292C42.3817 42.3556 42.703 42.0067 42.9445 41.6041C43.186 41.2015 43.3425 40.7538 43.4044 40.2885C43.4663 39.8231 43.4323 39.35 43.3044 38.8983C43.443 38.8832 43.57 38.8141 43.658 38.706C43.7459 38.5979 43.7877 38.4594 43.7743 38.3207C43.7539 38.0504 43.7072 37.7828 43.6349 37.5215ZM22.0433 41.9912C21.4563 41.9911 20.8902 41.7731 20.4549 41.3792C20.0196 40.9854 19.7461 40.4439 19.6875 39.8598L24.3995 39.8598C24.3408 40.4439 24.0673 40.9854 23.6319 41.3792C23.1965 41.7731 22.6304 41.9911 22.0433 41.9912ZM32.4605 36.1217H30.3731L31.2961 27.3958C31.333 27.0424 31.2513 26.6867 31.064 26.3848C30.8767 26.0828 30.5943 25.8517 30.2612 25.7279L27.6282 24.7453C27.5072 24.7003 27.4066 24.613 27.3451 24.4995C27.2836 24.386 27.2654 24.254 27.2939 24.1281L27.6946 22.4006C29.0643 23.4928 30.7181 24.1701 32.4605 24.3524V36.1217ZM40.2979 42.1499C39.9415 42.1968 39.579 42.162 39.2379 42.0481C38.8969 41.9343 38.5862 41.7443 38.3293 41.4927C38.0725 41.241 37.8763 40.9343 37.7555 40.5956C37.6347 40.257 37.5925 39.8953 37.6321 39.5379L37.7958 39.3342C39.0262 38.5714 40.4924 38.283 41.9201 38.5229L42.047 38.6209C42.2421 38.9584 42.3507 39.3389 42.3632 39.7286C42.3757 40.1182 42.2916 40.5049 42.1185 40.8543C41.9454 41.2036 41.6886 41.5046 41.3709 41.7307C41.0533 41.9567 40.6847 42.1007 40.2979 42.1499Z" fill="#EB5757"/>
</svg>
