<svg width="117" height="115" viewBox="0 0 117 115" fill="none" xmlns="http://www.w3.org/2000/svg">
<g opacity="0.02">
<path d="M5.74354 26.8025H32.5468C33.301 26.8025 34.0479 26.951 34.7447 27.2397C35.4415 27.5283 36.0747 27.9514 36.608 28.4847C37.1413 29.018 37.5644 29.6512 37.853 30.348C38.1417 31.0448 38.2902 31.7917 38.2902 32.5459V53.605C38.2902 55.1282 37.6851 56.5891 36.608 57.6663C35.5308 58.7434 34.07 59.3485 32.5467 59.3485H5.7434C4.22016 59.3485 2.7593 58.7434 1.6822 57.6663C0.605107 56.5892 0 55.1283 0 53.6051V32.546C0 31.7918 0.148561 31.0449 0.437201 30.3481C0.725841 29.6513 1.14891 29.0181 1.68224 28.4848C2.21558 27.9514 2.84874 27.5284 3.54558 27.2397C4.24242 26.9511 4.98929 26.8025 5.74354 26.8025V26.8025Z" fill="#2E2E2E"/>
<path d="M61.2637 19.1437C66.5501 19.1437 70.8356 14.8582 70.8356 9.57183C70.8356 4.28545 66.5501 0 61.2637 0C55.9773 0 51.6919 4.28545 51.6919 9.57183C51.6919 14.8582 55.9773 19.1437 61.2637 19.1437Z" fill="#2E2E2E"/>
<path d="M21.0635 64.806C21.064 67.7784 22.2329 70.6315 24.3181 72.7499H55.4396V64.7957C55.4396 64.2902 55.2387 63.8054 54.8813 63.4479C54.5238 63.0905 54.039 62.8897 53.5335 62.8896H22.9696C22.463 62.892 21.978 63.095 21.6208 63.4541C21.2635 63.8133 21.0631 64.2994 21.0635 64.806Z" fill="#2E2E2E"/>
<path d="M116.271 94.4906C115.338 91.0391 113.244 88.0144 110.343 85.9247C107.442 83.8351 103.91 82.808 100.34 83.0163C100.64 81.898 100.795 80.7458 100.8 79.588C100.764 77.7523 100.283 75.9529 99.3982 74.3442C98.5134 72.7354 97.2513 71.3656 95.7203 70.3522C91.6089 67.6254 88.5353 60.6901 88.0707 53.3949H91.737C93.2529 53.3955 94.7072 52.7948 95.7808 51.7246C96.8543 50.6543 97.4596 49.202 97.4637 47.6861V43.8842C97.4596 42.3684 96.8543 40.9162 95.7807 39.8461C94.7071 38.776 93.2528 38.1755 91.737 38.1763H78.6438C67.5742 34.9884 64.244 31.3169 62.2538 29.1172C62.2126 29.0723 62.1724 29.0275 62.1331 28.9835C62.3318 27.5158 62.0662 26.0227 61.3735 24.7136C60.6808 23.4045 59.5957 22.345 58.2705 21.6837C57.3243 21.2321 56.2885 20.9998 55.2401 21.0041C54.1917 21.0084 53.1578 21.2493 52.2154 21.7087C51.273 22.1681 50.4465 22.8342 49.7973 23.6574C49.1481 24.4807 48.6931 25.4398 48.4661 26.4633L42.9731 52.7097C42.8112 53.4893 42.8142 54.2941 42.9818 55.0725C43.1494 55.8509 43.478 56.5857 43.9465 57.2295C44.4149 57.8734 45.0128 58.4122 45.7018 58.8113C46.3908 59.2103 47.1557 59.4609 47.9473 59.5468L57.359 60.5882C57.8442 60.6396 58.291 60.8754 58.6073 61.2468C58.9235 61.6182 59.0851 62.0969 59.0586 62.584L57.5752 87.6734C56.0359 86.328 54.9414 84.5469 54.4365 82.5658C53.9316 80.5847 54.0401 78.4969 54.7477 76.5789H25.4859C22.3992 81.6918 17.4587 91.2786 19.4577 97.5146C19.8304 98.6883 20.478 99.7559 21.3466 100.629C22.2152 101.502 23.2797 102.154 24.4515 102.533C25.3121 102.796 26.2147 102.894 27.1117 102.822C27.329 105.918 28.7123 108.817 30.9827 110.933C33.2531 113.05 36.2417 114.227 39.3458 114.227C42.4498 114.227 45.4383 113.05 47.7087 110.933C49.979 108.816 51.3623 105.918 51.5795 102.821L84.3912 102.821C84.7101 102.803 85.0224 102.723 85.3099 102.584C85.5974 102.445 85.8546 102.25 86.0664 102.011C86.2989 103.142 86.6766 104.238 87.1901 105.272C87.3339 105.573 87.5542 105.831 87.8289 106.02C88.1037 106.209 88.4234 106.323 88.756 106.35C89.0885 106.377 89.4223 106.316 89.724 106.174C90.0257 106.031 90.2847 105.812 90.4751 105.538C90.6975 105.218 90.9396 104.906 91.194 104.598C91.4486 106.251 92.0389 107.835 92.9286 109.251C93.8182 110.667 94.9884 111.886 96.3671 112.833C97.7458 113.78 99.3037 114.435 100.945 114.757C102.586 115.079 104.276 115.061 105.91 114.706C107.544 114.35 109.089 113.663 110.447 112.688C111.806 111.713 112.951 110.47 113.812 109.036C114.672 107.602 115.23 106.007 115.45 104.349C115.671 102.691 115.549 101.005 115.094 99.3959C115.587 99.3421 116.04 99.0959 116.353 98.7106C116.667 98.3254 116.816 97.8322 116.768 97.3379C116.695 96.3749 116.529 95.4213 116.271 94.4906ZM39.345 110.415C37.2536 110.415 35.2367 109.638 33.6858 108.235C32.1349 106.832 31.1605 104.902 30.9517 102.821L47.7394 102.821C47.5304 104.902 46.5559 106.832 45.0048 108.235C43.4537 109.638 41.4366 110.415 39.345 110.415ZM76.4592 89.5034H69.0221L72.3105 58.4148C72.442 57.1556 72.1512 55.8885 71.4838 54.8128C70.8164 53.737 69.8102 52.9136 68.6237 52.4723L59.2427 48.9715C58.8115 48.8114 58.4531 48.5003 58.2341 48.0959C58.0151 47.6915 57.9503 47.2214 58.0517 46.7728L59.4792 40.6181C64.3594 44.5093 70.2515 46.9222 76.4592 47.5717V89.5034ZM104.382 110.98C103.112 111.148 101.821 111.024 100.606 110.618C99.3906 110.212 98.2836 109.536 97.3686 108.639C96.4536 107.742 95.7544 106.65 95.3241 105.443C94.8937 104.236 94.7434 102.948 94.8846 101.675L95.4678 100.949C99.8516 98.2311 105.075 97.2036 110.162 98.0582L110.614 98.4074C111.309 99.6099 111.696 100.966 111.74 102.354C111.785 103.742 111.485 105.12 110.869 106.364C110.252 107.609 109.337 108.682 108.205 109.487C107.073 110.292 105.76 110.805 104.382 110.98Z" fill="#2E2E2E"/>
</g>
</svg>
