<svg width="54" height="54" viewBox="0 0 54 54" fill="none" xmlns="http://www.w3.org/2000/svg">
<rect opacity="0.12" width="54" height="54" rx="4" fill="#F2994A"/>
<path d="M34.4673 26.6785C30.0268 26.6785 26.4116 30.2936 26.4116 34.7341C26.4116 39.1746 30.0268 42.7897 34.4673 42.7897C38.9077 42.7897 42.5229 39.1746 42.5229 34.7341C42.5229 30.2936 38.9077 26.6785 34.4673 26.6785ZM32.4299 31.6837L34.4673 33.721L36.5046 31.6837C36.8181 31.3729 37.2097 31.3757 37.5177 31.6837C37.7974 31.9635 37.7974 32.417 37.5177 32.6968L35.4803 34.7341L37.5177 36.7715C37.7974 37.0512 37.7974 37.5048 37.5177 37.7845C37.2379 38.0642 36.7844 38.0642 36.5046 37.7845L34.4673 35.7472L32.4299 37.7845C32.1501 38.0642 31.6966 38.0642 31.4168 37.7845C31.1371 37.5048 31.1371 37.0512 31.4168 36.7715L33.4542 34.7341L31.4168 32.6968C31.1371 32.417 31.1371 31.9635 31.4168 31.6837C31.7034 31.3953 32.158 31.4118 32.4299 31.6837Z" fill="#F54748"/>
<path d="M12.4566 12C11.6618 12 11 12.6619 11 13.4566V16.167C11 16.9618 11.6618 17.6237 12.4566 17.6237H20.4801V12H12.4566ZM21.913 12V22.5534L23.809 20.6588C24.0888 20.3791 24.5423 20.3791 24.8221 20.6588L26.7685 22.6038V12L21.913 12ZM28.2013 12V17.6237H36.1492C36.944 17.6237 37.6073 16.9618 37.6073 16.167V13.4566C37.6073 12.6619 36.944 12 36.1492 12H28.2013ZM12.1992 18.9208V34.033C12.1992 35.5315 13.4897 36.1851 14.6787 36.1851H25.0851C25.0114 35.7105 24.962 35.2284 24.962 34.7341C24.962 29.507 29.2403 25.2288 34.4673 25.2288C35.1322 25.2288 35.7807 25.3 36.4081 25.4317V18.9208C33.5956 18.9688 30.642 18.9537 28.2013 18.9431V24.3332C28.2011 24.9713 27.4297 25.2908 26.9783 24.8398L24.3155 22.1783L21.7031 24.7894C21.2517 25.2404 20.4804 24.9209 20.4801 24.2829V18.954C17.5722 18.9511 14.7165 18.949 12.1992 18.9208V18.9208Z" fill="#F54748"/>
</svg>
