<svg width="94" height="92" viewBox="0 0 94 92" fill="none" xmlns="http://www.w3.org/2000/svg">
<g opacity="0.02">
<path d="M69.5743 43.5178C56.4096 43.5178 45.6914 54.2357 45.6914 67.4007C45.6914 80.5657 56.4096 91.2836 69.5743 91.2836C82.7391 91.2836 93.4572 80.5657 93.4572 67.4007C93.4572 54.2357 82.7391 43.5178 69.5743 43.5178ZM63.5341 58.357L69.5743 64.3972L75.6145 58.357C76.544 57.4356 77.7049 57.4439 78.618 58.357C79.4473 59.1865 79.4473 60.5311 78.618 61.3605L72.5778 67.4007L78.618 73.4409C79.4473 74.2704 79.4473 75.615 78.618 76.4444C77.7886 77.2737 76.444 77.2737 75.6145 76.4444L69.5743 70.4042L63.5341 76.4444C62.7046 77.2737 61.36 77.2737 60.5306 76.4444C59.7013 75.615 59.7013 74.2704 60.5306 73.4409L66.5708 67.4007L60.5306 61.3605C59.7013 60.5311 59.7013 59.1865 60.5306 58.357C61.3803 57.5019 62.7279 57.5508 63.5341 58.357Z" fill="#2E2E2E"/>
<path d="M4.31859 0C1.96211 0 0 1.96248 0 4.31859V12.3542C0 14.7104 1.96211 16.6728 4.31859 16.6728H28.1061V0H4.31859ZM32.3541 0V31.2881L37.9753 25.671C38.8048 24.8419 40.1494 24.8419 40.9789 25.671L46.7494 31.4374V8.91279e-05L32.3541 0ZM50.9975 0V16.6728H74.5609C76.9174 16.6728 78.8837 14.7104 78.8837 12.3542V4.31859C78.8837 1.96248 76.9174 0 74.5609 0H50.9975ZM3.55526 20.5185V65.3222C3.55526 69.7648 7.38135 71.7026 10.9064 71.7026H41.7588C41.5402 70.2956 41.3937 68.8664 41.3937 67.4006C41.3937 51.9038 54.0778 39.2199 69.5744 39.2199C71.5458 39.2199 73.4684 39.4312 75.3284 39.8214V20.5185C66.9901 20.6608 58.2334 20.616 50.9975 20.5845V36.5648C50.9967 38.4566 48.7098 39.4038 47.3717 38.0666L39.4771 30.1762L31.7319 37.9173C30.3937 39.2545 28.1068 38.3073 28.1061 36.4155V20.6169C19.4849 20.6084 11.0184 20.602 3.55526 20.5185V20.5185Z" fill="#2E2E2E"/>
</g>
</svg>
