<svg width="54" height="54" viewBox="0 0 54 54" fill="none" xmlns="http://www.w3.org/2000/svg">
<rect opacity="0.12" width="54" height="54" rx="4" fill="#56CCF2"/>
<g clip-path="url(#clip0_10_462)">
<path d="M27.1757 24.6311C29.2572 27.0186 32.4981 27.904 35.4873 24.7823C36.2715 25.2934 37.0025 25.9436 37.8569 26.2747C38.7161 26.6059 39.7012 26.6179 40.8001 26.7954C40.8146 26.9754 40.8702 27.3353 40.8702 27.6928C40.8751 31.2296 40.8823 34.7689 40.8678 38.3057C40.8606 40.3404 39.982 41.1826 37.8956 41.185C30.6804 41.1898 23.4676 41.1898 16.2524 41.1874C14.1733 41.1874 13.3213 40.3452 13.3165 38.2841C13.3092 34.4449 13.3141 30.6082 13.3141 26.7882C14.2532 26.6491 15.1996 26.6611 16.0177 26.3443C16.8406 26.0252 17.5377 25.3821 18.3049 24.8711C21.4974 28.0887 24.9755 27.2681 27.1757 24.6311ZM18.2081 28.5062C18.2081 32.415 18.2081 36.2349 18.2081 40.1053C20.7447 40.1053 23.2425 40.1053 25.7428 40.1053C25.7428 36.1894 25.7428 32.3742 25.7428 28.5062C23.2256 28.5062 20.7858 28.5062 18.2081 28.5062ZM32.9556 28.4511C32.2294 28.4511 31.4985 28.4847 30.7748 28.4415C29.9156 28.3911 29.6203 28.7774 29.6372 29.5908C29.6687 31.0305 29.6687 32.475 29.6372 33.9147C29.6203 34.6897 29.9325 35.028 30.7119 35.0184C32.2028 34.9968 33.6962 34.992 35.1896 35.0112C35.9302 35.0208 36.2207 34.6777 36.2158 33.9746C36.2037 32.4966 36.2061 31.0161 36.2207 29.538C36.2279 28.7966 35.9496 28.4007 35.1363 28.4439C34.4102 28.4823 33.6817 28.4535 32.9556 28.4511Z" fill="#56CCF2"/>
<path d="M19.4473 21.2839C20.0233 18.2102 20.5776 15.2684 21.1391 12.2739C22.9423 12.2739 24.6898 12.2739 26.5003 12.2739C26.5003 15.278 26.5003 18.2557 26.5003 21.2839C24.1646 21.2839 21.9112 21.2839 19.4473 21.2839Z" fill="#56CCF2"/>
<path d="M19.9701 12.2283C19.4255 15.1508 18.9172 17.9462 18.3581 20.732C18.3121 20.9648 17.9394 21.2983 17.7119 21.3031C15.6569 21.3487 13.5996 21.3295 11.3511 21.3295C11.8545 19.9858 12.3047 18.7908 12.7501 17.5935C13.2535 16.2426 13.7642 14.8941 14.2507 13.5384C14.5726 12.6458 15.1414 12.1851 16.1386 12.2187C17.3924 12.2595 18.6461 12.2283 19.9701 12.2283Z" fill="#56CCF2"/>
<path d="M34.5334 21.2647C32.2123 21.2647 30.046 21.2647 27.8096 21.2647C27.8096 18.251 27.8096 15.3044 27.8096 12.2787C29.4627 12.2787 31.094 12.2787 32.8803 12.2787C33.42 15.2012 33.9646 18.167 34.5334 21.2647Z" fill="#56CCF2"/>
<path d="M42.6538 21.2863C40.2625 21.2863 38.0526 21.2863 35.7145 21.2863C35.1675 18.2965 34.6205 15.326 34.0493 12.2115C35.3103 12.2115 36.4963 12.1395 37.663 12.2499C38.0696 12.2883 38.6045 12.6914 38.7909 13.0705C40.093 15.7291 41.3202 18.4237 42.6538 21.2863Z" fill="#56CCF2"/>
<path d="M26.8756 22.6276C26.469 23.3835 26.2632 24.1321 25.7791 24.5928C24.0026 26.2964 21.2312 26.3156 19.5829 24.6216C19.2223 24.2521 19.1666 23.4794 19.2054 22.906C19.2175 22.7164 19.9581 22.4429 20.372 22.4333C22.2841 22.3853 24.1986 22.4165 26.1107 22.4261C26.2197 22.4237 26.3261 22.4789 26.8756 22.6276Z" fill="#56CCF2"/>
<path d="M27.8848 22.4788C30.114 22.4788 32.3553 22.4788 34.599 22.4788C35.2888 23.5849 34.7684 24.3048 33.8535 24.9262C32.2221 26.0372 30.0849 25.9124 28.5383 24.6287C27.8558 24.0624 27.5435 23.4146 27.8848 22.4788Z" fill="#56CCF2"/>
<path d="M18.1523 22.3661C17.7287 24.4488 16.2837 25.6654 14.4539 25.627C12.7112 25.5886 11.3485 24.3696 11 22.3661C12.1908 22.3661 13.355 22.3661 14.5192 22.3661C15.698 22.3661 16.8743 22.3661 18.1523 22.3661Z" fill="#56CCF2"/>
<path d="M35.9736 22.4908C38.3577 22.4908 40.6716 22.4908 42.9976 22.4908C42.6951 24.42 41.1436 25.7421 39.3525 25.6749C37.5057 25.603 36.1648 24.384 35.9736 22.4908Z" fill="#56CCF2"/>
</g>
<defs>
<clipPath id="clip0_10_462">
<rect width="32" height="29" fill="white" transform="translate(11 12.1875)"/>
</clipPath>
</defs>
</svg>
