<svg width="126" height="117" viewBox="0 0 126 117" fill="none" xmlns="http://www.w3.org/2000/svg">
<g opacity="0.018">
<path d="M81.0393 20.7385L88.2555 23.5265C88.9389 23.7907 89.6744 23.2861 89.6744 22.5537V2.08589C89.6744 0.933959 88.7405 0 87.5885 0H72.9873C71.8353 0 70.9014 0.933959 70.9014 2.08589V22.5535C70.9014 23.2861 71.6369 23.7904 72.3203 23.5263L79.5365 20.7382C80.0196 20.551 80.5554 20.551 81.0393 20.7385Z" fill="#2E2E2E"/>
<path d="M109.492 0H95.9325C94.7805 0 93.8466 0.933959 93.8466 2.08589V27.0694C93.8466 28.6659 92.3121 29.567 91.009 29.0622L81.04 25.2106C80.5563 25.0237 80.0202 25.0237 79.5365 25.2106L69.5675 29.0622C68.2654 29.5649 66.7299 28.6719 66.7299 27.0642V2.08589C66.7299 0.933959 65.796 0 64.644 0H51.0868C47.6346 0 44.8291 2.80814 44.8291 6.25768V44.6645C44.8291 46.0446 46.1398 47.0239 47.4745 46.6732C51.6982 45.5632 56.2882 46.141 60.137 48.3875C85.108 62.9685 84.4887 62.3795 86.5488 64.4693C87.1967 65.1266 88.2068 65.2645 89.0175 64.8231C107.203 54.9253 110.345 52.7909 113.848 52.4563C114.924 52.3539 115.749 51.4601 115.749 50.3798V6.25768C115.749 2.81022 112.942 0 109.492 0Z" fill="#2E2E2E"/>
<path d="M29.9847 62.5772V105.859C29.9847 111.611 25.3071 116.289 19.5553 116.289H10.4295C4.67762 116.289 0 111.611 0 105.859V62.5772C0 56.8254 4.67762 52.1478 10.4295 52.1478H19.5553C25.3071 52.1478 29.9847 56.8254 29.9847 62.5772ZM123.396 60.8225C120.586 56.7002 115.16 55.3835 110.769 57.7588L91.4312 68.2605C90.5364 68.7465 90.1171 69.8098 90.4553 70.7703C94.9684 83.5905 82.55 96.6646 69.1265 91.8921L51.1618 85.5014C50.0745 85.1156 49.5087 83.9214 49.8946 82.8367C50.2779 81.7573 51.4642 81.1889 52.5463 81.5643C52.5523 81.5675 70.5204 87.9605 70.5267 87.9628C80.1541 91.3842 89.538 82.4631 86.6793 72.6706C86.6793 72.5431 86.1956 71.3064 86.1265 71.1531C86.1265 71.1531 85.349 69.2283 83.6965 67.521C82.1258 65.8625 82.9977 66.5694 58.0322 51.9916C54.2202 49.7675 49.4644 49.7258 45.6159 51.8873L34.9896 57.8571C34.2326 58.2824 33.8142 59.1313 33.9495 59.9889C34.284 62.1105 34.1612 67.3949 34.1568 101.29C34.1565 102.343 34.9424 103.233 35.9877 103.363C71.5328 107.782 69.1523 107.536 70.6127 107.536C74.1535 107.536 77.5978 106.413 80.4894 104.282L121.248 74.2507C125.344 71.2326 126.597 65.4388 123.396 60.8225Z" fill="#2E2E2E"/>
</g>
</svg>
