<svg width="54" height="54" viewBox="0 0 54 54" fill="none" xmlns="http://www.w3.org/2000/svg">
<rect opacity="0.12" width="54" height="54" rx="4" fill="#F54748"/>
<path d="M31.5486 17.079L33.3812 17.787C33.5547 17.8541 33.7415 17.726 33.7415 17.54V12.3422C33.7415 12.0497 33.5043 11.8125 33.2118 11.8125H29.5038C29.2113 11.8125 28.9741 12.0497 28.9741 12.3422V17.5399C28.9741 17.726 29.1609 17.854 29.3345 17.7869L31.167 17.0789C31.2897 17.0314 31.4257 17.0314 31.5486 17.079Z" fill="#F54748"/>
<path d="M38.774 11.8125H35.3306C35.0381 11.8125 34.8009 12.0497 34.8009 12.3422V18.6867C34.8009 19.0921 34.4112 19.321 34.0803 19.1928L31.5487 18.2147C31.4259 18.1672 31.2897 18.1672 31.1669 18.2147L28.6353 19.1928C28.3046 19.3205 27.9147 19.0937 27.9147 18.6854V12.3422C27.9147 12.0497 27.6775 11.8125 27.385 11.8125H23.9422C23.0655 11.8125 22.353 12.5256 22.353 13.4016V23.1549C22.353 23.5054 22.6859 23.7541 23.0248 23.6651C24.0974 23.3832 25.263 23.5299 26.2404 24.1004C32.5818 27.8032 32.4245 27.6536 32.9477 28.1843C33.1122 28.3513 33.3687 28.3863 33.5746 28.2742C38.1926 25.7606 38.9906 25.2186 39.8803 25.1337C40.1534 25.1076 40.363 24.8807 40.363 24.6063V13.4016C40.3631 12.5261 39.6501 11.8125 38.774 11.8125Z" fill="#F54748"/>
<path d="M18.5833 27.7039V38.6953C18.5833 40.156 17.3954 41.3438 15.9348 41.3438H13.6173C12.1566 41.3438 10.9688 40.156 10.9688 38.6953V27.7039C10.9688 26.2432 12.1566 25.0553 13.6173 25.0553H15.9348C17.3954 25.0553 18.5833 26.2432 18.5833 27.7039ZM42.305 27.2582C41.5912 26.2114 40.2133 25.877 39.0982 26.4802L34.1875 29.1471C33.9603 29.2705 33.8538 29.5406 33.9397 29.7845C35.0858 33.0401 31.9321 36.3603 28.5233 35.1483L23.9612 33.5254C23.6851 33.4274 23.5414 33.1242 23.6394 32.8487C23.7367 32.5746 24.038 32.4302 24.3128 32.5256C24.3143 32.5264 28.8773 34.1499 28.8788 34.1505C31.3237 35.0193 33.7067 32.7538 32.9808 30.267C32.9808 30.2347 32.8579 29.9206 32.8404 29.8817C32.8404 29.8817 32.6429 29.3929 32.2233 28.9593C31.8244 28.5381 32.0458 28.7177 25.7059 25.0157C24.7379 24.4509 23.5301 24.4403 22.5528 24.9892L19.8543 26.5052C19.6621 26.6132 19.5558 26.8288 19.5901 27.0466C19.6751 27.5853 19.6439 28.9273 19.6428 37.5348C19.6427 37.8023 19.8423 38.0282 20.1077 38.0612C29.1344 39.1835 28.5298 39.1211 28.9007 39.1211C29.7999 39.1211 30.6746 38.8357 31.4089 38.2948L41.7594 30.6683C42.7996 29.9019 43.1178 28.4306 42.305 27.2582Z" fill="#F54748"/>
</svg>
