<svg width="117" height="107" viewBox="0 0 117 107" fill="none" xmlns="http://www.w3.org/2000/svg">
<g opacity="0.02">
<g clip-path="url(#clip0_14_34)">
<path d="M59.1418 45.4971C66.7524 54.2263 78.602 57.4635 89.5312 46.0498C92.3984 47.9184 95.071 50.2959 98.1949 51.5066C101.336 52.7173 104.938 52.7612 108.956 53.4104C109.009 54.0684 109.213 55.3843 109.213 56.6915C109.23 69.623 109.257 82.5633 109.204 95.4948C109.177 102.934 105.965 106.014 98.3365 106.022C71.956 106.04 45.5843 106.04 19.2037 106.031C11.602 106.031 8.48692 102.952 8.46922 95.4158C8.44267 81.3789 8.46037 67.3508 8.46037 53.3841C11.894 52.8752 15.3542 52.9191 18.3453 51.761C21.3542 50.5942 23.9028 48.243 26.7082 46.3744C38.3807 58.1391 51.0975 55.1387 59.1418 45.4971ZM26.3542 59.6656C26.3542 73.9569 26.3542 87.9236 26.3542 102.075C35.6285 102.075 44.7613 102.075 53.9028 102.075C53.9028 87.7569 53.9028 73.8077 53.9028 59.6656C44.6993 59.6656 35.779 59.6656 26.3542 59.6656ZM80.2745 59.4638C77.6197 59.4638 74.9471 59.5866 72.3011 59.4287C69.1595 59.2445 68.0798 60.6569 68.1418 63.631C68.2568 68.8948 68.2568 74.1762 68.1418 79.4401C68.0798 82.2738 69.2214 83.5107 72.071 83.4757C77.5223 83.3967 82.9825 83.3792 88.4427 83.4493C91.1506 83.4844 92.2126 82.2299 92.1949 79.6594C92.1506 74.2552 92.1595 68.8422 92.2126 63.438C92.2391 60.7271 91.2214 59.2796 88.248 59.4375C85.5931 59.5778 82.9294 59.4726 80.2745 59.4638Z" fill="#2E2E2E"/>
<path d="M30.8848 33.2587C32.991 22.0204 35.0175 11.2646 37.0706 0.315857C43.6635 0.315857 50.0529 0.315857 56.6724 0.315857C56.6724 11.2997 56.6724 22.1871 56.6724 33.2587C48.1326 33.2587 39.8936 33.2587 30.8848 33.2587Z" fill="#2E2E2E"/>
<path d="M32.7965 0.14915C30.8053 10.8347 28.9469 21.0554 26.9027 31.2409C26.7345 32.0919 25.3717 33.3113 24.5398 33.3289C17.0266 33.4956 9.50444 33.4254 1.2832 33.4254C3.12391 28.5125 4.76993 24.1435 6.39825 19.7657C8.23895 14.8265 10.1062 9.89603 11.885 4.93924C13.062 1.67566 15.1416 -0.00876547 18.7876 0.114057C23.3717 0.2632 27.9558 0.14915 32.7965 0.14915Z" fill="#2E2E2E"/>
<path d="M86.044 33.1885C77.5573 33.1885 69.6369 33.1885 61.46 33.1885C61.46 22.1695 61.46 11.3962 61.46 0.333374C67.5042 0.333374 73.4688 0.333374 79.9998 0.333374C81.9732 11.019 83.9644 21.8625 86.044 33.1885Z" fill="#2E2E2E"/>
<path d="M115.735 33.2675C106.991 33.2675 98.9116 33.2675 90.3629 33.2675C88.3629 22.3362 86.3629 11.4752 84.2744 0.0877443C88.885 0.0877443 93.2213 -0.175448 97.4868 0.228113C98.9735 0.368482 100.929 1.84236 101.611 3.2285C106.372 12.9491 110.858 22.8012 115.735 33.2675Z" fill="#2E2E2E"/>
<path d="M58.0442 38.1717C56.5575 40.9352 55.8052 43.6724 54.0353 45.3568C47.5398 51.5857 37.407 51.6559 31.3805 45.4621C30.0619 44.111 29.8583 41.2861 29.9999 39.1893C30.0442 38.4963 32.7522 37.4961 34.2654 37.4611C41.2566 37.2856 48.2566 37.3996 55.2477 37.4347C55.646 37.426 56.0353 37.6277 58.0442 38.1717Z" fill="#2E2E2E"/>
<path d="M61.7345 37.6277C69.8849 37.6277 78.0796 37.6277 86.2832 37.6277C88.8053 41.6721 86.9026 44.304 83.5575 46.5762C77.5929 50.6382 69.7787 50.182 64.1239 45.4884C61.6283 43.4179 60.4867 41.0492 61.7345 37.6277Z" fill="#2E2E2E"/>
<path d="M26.1504 37.2153C24.6018 44.8303 19.3186 49.2783 12.6283 49.1379C6.25664 48.9976 1.27434 44.5408 0 37.2153C4.35398 37.2153 8.61062 37.2153 12.8673 37.2153C17.177 37.2153 21.4779 37.2153 26.1504 37.2153Z" fill="#2E2E2E"/>
<path d="M91.3096 37.6715C100.026 37.6715 108.487 37.6715 116.991 37.6715C115.885 44.7251 110.212 49.559 103.664 49.3134C96.9113 49.0502 92.0087 44.5935 91.3096 37.6715Z" fill="#2E2E2E"/>
</g>
</g>
<defs>
<clipPath id="clip0_14_34">
<rect width="117" height="106.031" fill="white"/>
</clipPath>
</defs>
</svg>
