<svg width="54" height="54" viewBox="0 0 54 54" fill="none" xmlns="http://www.w3.org/2000/svg">
<rect opacity="0.12" width="54" height="54" rx="4" fill="#F54748"/>
<path d="M27.1945 23.6868C30.4217 23.6868 33.0378 21.0706 33.0378 17.8434C33.0378 14.6162 30.4217 12 27.1945 12C23.9672 12 21.3511 14.6162 21.3511 17.8434C21.3511 21.0706 23.9672 23.6868 27.1945 23.6868Z" fill="#F54748"/>
<path d="M39.0154 23.6866C41.0556 23.6866 42.7095 22.0327 42.7095 19.9926C42.7095 17.9524 41.0556 16.2985 39.0154 16.2985C36.9752 16.2985 35.3213 17.9524 35.3213 19.9926C35.3213 22.0327 36.9752 23.6866 39.0154 23.6866Z" fill="#F54748"/>
<path d="M15.3733 23.6866C17.4135 23.6866 19.0674 22.0327 19.0674 19.9926C19.0674 17.9524 17.4135 16.2985 15.3733 16.2985C13.3331 16.2985 11.6792 17.9524 11.6792 19.9926C11.6792 22.0327 13.3331 23.6866 15.3733 23.6866Z" fill="#F54748"/>
<path d="M19.0129 27.0041C17.5588 25.8127 16.2419 25.9704 14.5605 25.9704C12.0459 25.9704 10 28.0042 10 30.5034V37.8385C10 38.9239 10.8859 39.8065 11.9753 39.8065C16.6786 39.8065 16.112 39.8916 16.112 39.6036C16.112 34.406 15.4964 30.5943 19.0129 27.0041Z" fill="#F54748"/>
<path d="M28.7936 25.9972C25.8568 25.7523 23.3042 26 21.1025 27.8174C17.418 30.7686 18.127 34.7423 18.127 39.6036C18.127 40.8897 19.1735 41.9557 20.4792 41.9557C34.6565 41.9557 35.2208 42.413 36.0615 40.5513C36.3372 39.9217 36.2617 40.1217 36.2617 34.0987C36.2617 29.3148 32.1194 25.9972 28.7936 25.9972Z" fill="#F54748"/>
<path d="M39.8279 25.9704C38.1373 25.9704 36.8277 25.8143 35.3755 27.004C38.8657 30.5676 38.2764 34.1192 38.2764 39.6036C38.2764 39.8933 37.806 39.8064 42.3425 39.8064C43.4709 39.8064 44.3884 38.8923 44.3884 37.7686V30.5034C44.3884 28.0041 42.3425 25.9704 39.8279 25.9704Z" fill="#F54748"/>
</svg>
