<svg width="115" height="100" viewBox="0 0 115 100" fill="none" xmlns="http://www.w3.org/2000/svg">
<g opacity="0.02">
<path d="M57.6966 38.949C68.4521 38.949 77.1711 30.2299 77.1711 19.4745C77.1711 8.71902 68.4521 0 57.6966 0C46.9412 0 38.2222 8.71902 38.2222 19.4745C38.2222 30.2299 46.9412 38.949 57.6966 38.949Z" fill="#2E2E2E"/>
<path d="M97.0932 38.9486C103.893 38.9486 109.405 33.4366 109.405 26.6371C109.405 19.8377 103.893 14.3257 97.0932 14.3257C90.2938 14.3257 84.7817 19.8377 84.7817 26.6371C84.7817 33.4366 90.2938 38.9486 97.0932 38.9486Z" fill="#2E2E2E"/>
<path d="M18.2997 38.9486C25.0992 38.9486 30.6112 33.4366 30.6112 26.6371C30.6112 19.8377 25.0992 14.3257 18.2997 14.3257C11.5003 14.3257 5.98828 19.8377 5.98828 26.6371C5.98828 33.4366 11.5003 38.9486 18.2997 38.9486Z" fill="#2E2E2E"/>
<path d="M30.4298 50.0047C25.5836 46.0342 21.1946 46.5598 15.5911 46.5598C7.21039 46.5598 0.39209 53.3378 0.39209 61.667V86.1131C0.39209 89.7304 3.3446 92.6718 6.97536 92.6718C22.6503 92.6718 20.7619 92.9554 20.7619 91.9957C20.7619 74.6733 18.7102 61.9699 30.4298 50.0047Z" fill="#2E2E2E"/>
<path d="M63.0262 46.6491C53.2388 45.8328 44.7316 46.6585 37.3938 52.7153C25.1143 62.5511 27.4775 75.7944 27.4775 91.9956C27.4775 96.282 30.9649 99.8346 35.3165 99.8346C82.566 99.8346 84.4466 101.359 87.2484 95.154C88.1673 93.0557 87.9155 93.7225 87.9155 73.6493C87.9155 57.7057 74.1103 46.6491 63.0262 46.6491Z" fill="#2E2E2E"/>
<path d="M99.8006 46.5596C94.1664 46.5596 89.8017 46.0394 84.9619 50.0045C96.594 61.8808 94.6298 73.7175 94.6298 91.9955C94.6298 92.9612 93.0622 92.6716 108.181 92.6716C111.942 92.6716 115 89.625 115 85.8801V61.6668C115 53.3376 108.181 46.5596 99.8006 46.5596Z" fill="#2E2E2E"/>
</g>
</svg>
