<svg width="23" height="19" viewBox="0 0 23 19" fill="none" xmlns="http://www.w3.org/2000/svg">
<path d="M11.9988 4.15755C10.7709 4.15755 9.57054 4.46541 8.54956 5.0422C7.52859 5.619 6.73283 6.43882 6.26293 7.39799C5.79303 8.35716 5.67008 9.41261 5.90964 10.4309C6.14919 11.4491 6.74049 12.3844 7.60876 13.1186C8.47702 13.8527 9.58327 14.3526 10.7876 14.5552C11.9919 14.7577 13.2402 14.6538 14.3747 14.2565C15.5091 13.8592 16.4787 13.1863 17.1609 12.3231C17.8431 11.4599 18.2073 10.445 18.2073 9.40679C18.2051 8.01515 17.5503 6.68103 16.3865 5.69699C15.2226 4.71296 13.6447 4.15934 11.9988 4.15755ZM14.9869 8.15374L11.7184 10.863C11.665 10.911 11.6004 10.949 11.5287 10.9746C11.457 11.0003 11.3797 11.013 11.3018 11.012C11.2229 11.0124 11.1447 10.9993 11.0718 10.9737C10.9989 10.9482 10.9327 10.9105 10.8773 10.863L9.01073 9.31196C8.89821 9.21671 8.83501 9.0876 8.83501 8.95298C8.83501 8.81836 8.89821 8.68925 9.01073 8.594C9.12338 8.49887 9.27609 8.44544 9.4353 8.44544C9.59452 8.44544 9.74723 8.49887 9.85988 8.594L11.3018 9.79963L14.1377 7.43578C14.2514 7.34057 14.4051 7.28744 14.5651 7.28808C14.7251 7.28871 14.8783 7.34306 14.9909 7.43917C15.1035 7.53527 15.1663 7.66527 15.1656 7.80054C15.1648 7.93582 15.1005 8.06531 14.9869 8.16052V8.15374ZM22.1967 10.863C22.6509 10.4547 22.9325 9.93076 22.9978 9.37292C22.9325 8.81509 22.6509 8.29117 22.1967 7.88281C21.9801 7.68286 21.8042 7.454 21.676 7.20549C21.6169 6.91866 21.6169 6.62535 21.676 6.33852C21.8286 5.80451 21.7695 5.24287 21.5077 4.74004C21.1384 4.30488 20.6131 3.98188 20.0097 3.81889C19.6878 3.72772 19.387 3.59023 19.1205 3.41249C18.8956 3.18101 18.7219 2.91715 18.6078 2.63357C18.4254 2.10258 18.0393 1.63794 17.5103 1.3128C16.9156 1.09145 16.2513 1.04148 15.6197 1.17056C15.2805 1.22051 14.9336 1.22051 14.5943 1.17056C14.3004 1.06215 14.0297 0.913393 13.7932 0.7303C13.3103 0.346282 12.6906 0.108137 12.0308 0.0529785C11.3711 0.108137 10.7514 0.346282 10.2684 0.7303C10.0319 0.913393 9.76126 1.06215 9.46735 1.17056C9.1281 1.22051 8.7812 1.22051 8.44195 1.17056C7.81036 1.04148 7.14609 1.09145 6.55138 1.3128C5.99847 1.62915 5.58894 2.09481 5.3898 2.63357C5.28197 2.90571 5.11936 3.16006 4.90914 3.3854C4.63536 3.57553 4.32328 3.72237 3.98789 3.81889C3.3716 3.97846 2.83414 4.3044 2.4578 4.74682C2.19601 5.24965 2.13691 5.81128 2.28957 6.34529C2.34866 6.63213 2.34866 6.92543 2.28957 7.21227C2.16136 7.46077 1.98542 7.68963 1.76886 7.88959C1.31467 8.29794 1.03301 8.82186 0.967773 9.37969C1.03301 9.93753 1.31467 10.4614 1.76886 10.8698C1.98542 11.0698 2.16136 11.2986 2.28957 11.5471C2.34866 11.834 2.34866 12.1273 2.28957 12.4141C2.13691 12.9481 2.19601 13.5097 2.4578 14.0126C2.85258 14.466 3.4173 14.7931 4.05998 14.9405C4.38185 15.0317 4.68267 15.1692 4.9492 15.3469C5.15545 15.5993 5.30482 15.8817 5.3898 16.18C5.57223 16.711 5.95831 17.1756 6.48729 17.5008C7.08201 17.7221 7.74627 17.7721 8.37786 17.643C8.71711 17.5931 9.06402 17.5931 9.40326 17.643C9.69718 17.7514 9.96786 17.9002 10.2044 18.0833C10.6873 18.4673 11.307 18.7054 11.9668 18.7606C12.6265 18.7054 13.2462 18.4673 13.7292 18.0833C13.9656 17.9002 14.2363 17.7514 14.5302 17.643C14.8695 17.5931 15.2164 17.5931 15.5556 17.643C16.1872 17.7721 16.8515 17.7221 17.4462 17.5008C17.9991 17.1844 18.4087 16.7188 18.6078 16.18C18.7156 15.9079 18.8782 15.6535 19.0885 15.4282C19.355 15.2504 19.6558 15.113 19.9777 15.0218C20.6057 14.8675 21.1552 14.5411 21.5398 14.0939C21.8016 13.591 21.8607 13.0294 21.708 12.4954C21.6489 12.2085 21.6489 11.9152 21.708 11.6284C21.8225 11.3622 21.9905 11.1147 22.2047 10.8969L22.1967 10.863ZM11.9988 15.672C10.5332 15.672 9.10055 15.3046 7.88197 14.6161C6.66339 13.9277 5.71362 12.9492 5.15276 11.8044C4.59191 10.6596 4.44517 9.39984 4.73109 8.1845C5.01701 6.96917 5.72275 5.85281 6.75907 4.97661C7.79539 4.1004 9.11574 3.50369 10.5532 3.26195C11.9906 3.0202 13.4805 3.14428 14.8345 3.61848C16.1885 4.09268 17.3458 4.8957 18.1601 5.92602C18.9743 6.95633 19.4089 8.16764 19.4089 9.40679C19.4068 11.0679 18.6254 12.6604 17.2362 13.835C15.847 15.0096 13.9634 15.6702 11.9988 15.672Z" fill="#fff"/>
</svg>
