<svg width="391" height="392" viewBox="0 0 391 392" fill="none" xmlns="http://www.w3.org/2000/svg">
<path d="M287.904 184.812C231.055 184.812 184.808 231.059 184.808 287.908C184.808 344.757 231.055 391.005 287.904 391.005C344.753 391.005 391 344.757 391 287.908C391 231.059 344.753 184.812 287.904 184.812ZM333.724 299.364H287.904C281.574 299.364 276.449 294.239 276.449 287.908V242.088C276.449 235.758 281.574 230.633 287.904 230.633C294.234 230.633 299.359 235.758 299.359 242.088V276.453H333.724C340.055 276.453 345.18 281.578 345.18 287.908C345.18 294.239 340.055 299.364 333.724 299.364Z" fill="#F1F1F2"/>
<path d="M367.328 35.1233C367.328 28.7067 362.289 23.6682 355.872 23.6682H298.597V58.0336C298.597 64.4473 293.558 69.4887 287.142 69.4887C280.725 69.4887 275.687 64.4473 275.687 58.0336V23.6682H229.866V58.0336C229.866 64.4473 224.828 69.4887 218.411 69.4887C211.994 69.4887 206.956 64.4473 206.956 58.0336V23.6682H161.135V58.0336C161.135 64.4473 156.097 69.4887 149.68 69.4887C143.264 69.4887 138.225 64.4473 138.225 58.0336V23.6682H92.4047V58.0336C92.4047 64.4473 87.3662 69.4887 80.9495 69.4887C74.5329 69.4887 69.4944 64.4473 69.4944 58.0336V23.6682H11.4551C5.03846 23.6682 0 28.7067 0 35.1233V92.399H367.328V35.1233Z" fill="#F1F1F2"/>
<path d="M172.591 229.865H175.341C179.523 221.739 184.243 213.939 190.018 206.955H172.591C166.26 206.955 161.135 201.83 161.135 195.5C161.135 189.17 166.26 184.045 172.591 184.045H195.501C200.193 184.045 204.2 186.876 205.971 190.912C227.918 172.372 256.228 161.135 287.142 161.135H264.232C257.901 161.135 252.776 156.01 252.776 149.68C252.776 143.349 257.901 138.224 264.232 138.224H287.142C293.472 138.224 298.597 143.349 298.597 149.68C298.597 156.01 293.472 161.135 287.142 161.135C317.578 161.135 345.527 171.987 367.328 190.017V115.314H0V332.962C0 339.292 5.12498 344.417 11.4551 344.417H175.046C166.219 327.21 161.135 307.772 161.135 287.141C161.135 274.531 163.397 262.516 166.86 251.022C163.498 249.026 161.135 245.518 161.135 241.321C161.135 234.99 166.26 229.865 172.591 229.865ZM172.591 138.224H195.501C201.831 138.224 206.956 143.349 206.956 149.68C206.956 156.01 201.831 161.135 195.501 161.135H172.591C166.26 161.135 161.135 156.01 161.135 149.68C161.135 143.349 166.26 138.224 172.591 138.224ZM103.86 298.596H80.9495C74.6194 298.596 69.4944 293.471 69.4944 287.141C69.4944 280.811 74.6194 275.686 80.9495 275.686H103.86C110.19 275.686 115.315 280.811 115.315 287.141C115.315 293.471 110.19 298.596 103.86 298.596ZM103.86 252.776H80.9495C74.6194 252.776 69.4944 247.651 69.4944 241.321C69.4944 234.99 74.6194 229.865 80.9495 229.865H103.86C110.19 229.865 115.315 234.99 115.315 241.321C115.315 247.651 110.19 252.776 103.86 252.776ZM103.86 206.955H80.9495C74.6194 206.955 69.4944 201.83 69.4944 195.5C69.4944 189.17 74.6194 184.045 80.9495 184.045H103.86C110.19 184.045 115.315 189.17 115.315 195.5C115.315 201.83 110.19 206.955 103.86 206.955ZM103.86 161.135H80.9495C74.6194 161.135 69.4944 156.01 69.4944 149.68C69.4944 143.349 74.6194 138.224 80.9495 138.224H103.86C110.19 138.224 115.315 143.349 115.315 149.68C115.315 156.01 110.19 161.135 103.86 161.135Z" fill="#F1F1F2"/>
<path d="M92.3993 11.4551C92.3993 5.03846 87.3608 0 80.9441 0C74.5275 0 69.489 5.03846 69.489 11.4551V23.6739H92.3993V11.4551Z" fill="#F1F1F2"/>
<path d="M161.13 11.4551C161.13 5.03846 156.092 0 149.675 0C143.258 0 138.22 5.03846 138.22 11.4551V23.6739H161.13V11.4551Z" fill="#F1F1F2"/>
<path d="M229.87 11.4551C229.87 5.03846 224.832 0 218.415 0C211.999 0 206.96 5.03846 206.96 11.4551V23.6739H229.87V11.4551Z" fill="#F1F1F2"/>
<path d="M298.602 11.4551C298.602 5.03846 293.563 0 287.147 0C280.73 0 275.691 5.03846 275.691 11.4551V23.6739H298.602V11.4551Z" fill="#F1F1F2"/>
</svg>
