<svg width="24" height="24" class="fill-current" viewBox="0 0 24 24" fill="none" xmlns="http://www.w3.org/2000/svg">
<path d="M17.8671 11.1754C14.4863 11.1754 11.7339 13.9278 11.7339 17.3086C11.7339 20.6894 14.4863 23.4417 17.8671 23.4417C21.2478 23.4417 24.0002 20.6894 24.0002 17.3086C24.0002 13.9278 21.2478 11.1754 17.8671 11.1754ZM16.3159 14.9861L17.8671 16.5373L19.4182 14.9861C19.6569 14.7495 19.955 14.7516 20.1895 14.9861C20.4024 15.1991 20.4024 15.5444 20.1895 15.7574L18.6384 17.3086L20.1895 18.8597C20.4024 19.0727 20.4024 19.418 20.1895 19.631C19.9765 19.844 19.6312 19.844 19.4182 19.631L17.8671 18.0799L16.3159 19.631C16.1029 19.844 15.7576 19.844 15.5446 19.631C15.3317 19.418 15.3317 19.0727 15.5446 18.8597L17.0957 17.3086L15.5446 15.7574C15.3317 15.5444 15.3317 15.1991 15.5446 14.9861C15.7628 14.7665 16.1089 14.7791 16.3159 14.9861Z" />
<path d="M1.10902 0C0.503872 0 0 0.503969 0 1.10902V3.17258C0 3.77765 0.503872 4.2816 1.10902 4.2816H7.21768V0H1.10902ZM8.30859 0V8.03482L9.75212 6.59235C9.96514 6.37943 10.3104 6.37943 10.5234 6.59235L12.0053 8.07317V2.28882e-05L8.30859 0ZM13.0962 0V4.2816H19.1474C19.7525 4.2816 20.2574 3.77765 20.2574 3.17258V1.10902C20.2574 0.503969 19.7525 0 19.1474 0H13.0962ZM0.912997 5.26917V16.7748C0.912997 17.9157 1.89554 18.4133 2.80078 18.4133H10.7237C10.6676 18.052 10.63 17.685 10.63 17.3086C10.63 13.329 13.8873 10.0717 17.8668 10.0717C18.3731 10.0717 18.8668 10.126 19.3444 10.2262V5.26917C17.2032 5.30572 14.9544 5.29421 13.0962 5.28614V9.38991C13.096 9.87571 12.5088 10.119 12.1651 9.77556L10.1378 7.74928L8.14879 9.73721C7.80515 10.0806 7.21787 9.83736 7.21768 9.35156V5.29444C5.00375 5.29226 2.82955 5.29062 0.912997 5.26919V5.26917Z" />
</svg>
