<svg width="19" height="21" viewBox="0 0 19 21" fill="none" xmlns="http://www.w3.org/2000/svg">
<path d="M16.0231 7.37994C16.0231 7.86294 15.5586 8.25565 14.9873 8.25565C14.4161 8.25565 13.9516 7.86294 13.9516 7.37994C13.9516 6.89695 14.4161 6.50424 14.9873 6.50424C15.5586 6.50424 16.0231 6.89695 16.0231 7.37994ZM7.28915 4.84311C6.34317 4.84311 5.57211 5.49504 5.57211 6.29542C5.57211 7.09635 6.34317 7.74773 7.28915 7.74773C8.23578 7.74773 9.00619 7.09635 9.00619 6.29542C9.00619 5.49559 8.23643 4.84311 7.28915 4.84311ZM18.9475 7.62975C18.88 9.00895 16.6317 11.5192 16.6317 11.5192C14.8373 13.6988 15.7178 15.3815 15.7178 15.3815C12.0963 16.0705 9.12607 20.5394 9.12607 20.5394C8.9944 19.8786 7.25508 17.0842 7.25508 17.0842C6.5266 16.3109 5.30548 16.5823 4.64578 16.651C2.75514 16.8471 2.28477 16.3768 2.28477 16.3768C1.87139 16.1636 2.06727 15.2735 2.06727 15.2735C2.21926 14.8126 1.97162 14.5878 1.81767 14.4083C1.40299 13.9181 1.64342 13.6916 1.64342 13.6916C1.77313 13.5525 1.686 13.4789 1.686 13.4789C1.22939 13.3509 1.19663 13.1399 1.19663 13.1399L1.20842 12.4309C1.28311 11.9446 1.02303 11.9158 1.02303 11.9158C-0.0218726 11.8986 0.00105621 11.3275 0.00105621 11.3275C-0.0415259 11.0157 1.21759 9.13911 1.21759 9.13911C1.80457 8.18309 0.969963 7.61092 0.912968 7.1174C0.653545 4.83646 1.56546 3.4412 2.80165 2.33729C4.84624 0.508333 7.4752 0.164919 9.19617 0.176551C13.6018 0.203691 15.3843 1.3857 16.7332 2.658C19.5417 5.30506 18.9475 7.62975 18.9475 7.62975ZM11.6705 5.46402H10.8353C10.754 5.21643 10.6381 4.98103 10.4926 4.76224L11.0829 4.26263L9.69274 3.08782L9.10249 3.58743C8.84307 3.46225 8.56596 3.36587 8.27247 3.29719V2.59153H6.30714V3.29719C6.01496 3.36587 5.73588 3.46391 5.47777 3.58743L4.88686 3.08782L3.49737 4.26263L4.08828 4.76224C3.94154 4.98103 3.82689 5.21588 3.74566 5.46402H2.90974V7.1257H3.74566C3.82689 7.3733 3.94219 7.6087 4.08828 7.82804L3.49737 8.3271L4.88686 9.50191L5.47777 9.00285C5.73654 9.12748 6.0143 9.22386 6.30714 9.29254V9.99875H8.27247V9.29254C8.5653 9.22386 8.84372 9.12637 9.10249 9.00285L9.69274 9.50191L11.0829 8.3271L10.4926 7.82804C10.64 7.6087 10.754 7.37385 10.8353 7.1257H11.6705V5.46402ZM17.7303 6.82605H17.2278C17.18 6.68757 17.1151 6.55686 17.0346 6.43223L17.3896 6.13202L16.4633 5.34881L16.1089 5.64902C15.9608 5.58034 15.8069 5.52551 15.6424 5.48507V5.06079H14.3322V5.48507C14.1685 5.52551 14.0138 5.58034 13.8658 5.64902L13.5107 5.34881L12.5844 6.13202L12.9395 6.43223C12.8589 6.55686 12.7934 6.68757 12.7462 6.82605H12.2437V7.93384H12.7462C12.794 8.07231 12.8589 8.20358 12.9395 8.32765L12.5844 8.62787L13.5107 9.41107L13.8658 9.11086C14.0138 9.17954 14.1678 9.23493 14.3322 9.27481V9.69965H15.6424V9.27481C15.8062 9.23493 15.9608 9.17954 16.1089 9.11086L16.464 9.41107L17.3903 8.62787L17.0352 8.32765C17.1158 8.20358 17.1813 8.07231 17.2285 7.93384H17.7309V6.82605H17.7303Z" fill="#fff"/>
</svg>
