<svg width="23" height="19" viewBox="0 0 23 19" fill="none" xmlns="http://www.w3.org/2000/svg">
<path d="M20.9797 8.55954H20.463L19.8976 6.11254C19.6929 5.23518 18.913 4.62099 18.016 4.62099H15.1498V2.27146C15.1498 1.01387 14.1262 0 12.8784 0H2.15454C0.965135 0 0 0.965135 0 2.15448V13.5803C0 14.7696 0.965135 15.7347 2.15454 15.7347H2.93444C3.35364 17.1288 4.6405 18.1428 6.16133 18.1428C7.68217 18.1428 8.97879 17.1288 9.39799 15.7347C9.58158 15.7347 14.105 15.7347 13.9995 15.7347C14.4187 17.1288 15.7055 18.1428 17.2264 18.1428C18.7569 18.1428 20.0438 17.1288 20.463 15.7347H20.9797C22.0521 15.7347 22.91 14.8768 22.91 13.8045V10.4898C22.91 9.41745 22.0521 8.55954 20.9797 8.55954ZM6.16133 16.193C5.36757 16.193 4.73797 15.5288 4.73797 14.7598C4.73797 13.9702 5.37167 13.3268 6.16133 13.3268C6.951 13.3268 7.5944 13.9702 7.5944 14.7598C7.5944 15.5415 6.95377 16.193 6.16133 16.193ZM9.67093 5.2059L6.76576 7.46766C6.35054 7.79066 5.7251 7.73056 5.39119 7.29219L4.27004 5.82009C3.93855 5.39113 4.02632 4.77694 4.45527 4.45521C4.87447 4.12378 5.48866 4.21149 5.82015 4.64044L6.34657 5.32288L8.47183 3.66555C8.89103 3.34388 9.50521 3.41213 9.8367 3.84108C10.1681 4.26998 10.0901 4.87447 9.67093 5.2059ZM17.2264 16.193C16.4325 16.193 15.803 15.5288 15.803 14.7598C15.803 13.9702 16.4465 13.3268 17.2264 13.3268C18.016 13.3268 18.6595 13.9702 18.6595 14.7598C18.6595 15.5425 18.0175 16.193 17.2264 16.193ZM15.6861 6.57077H17.5383C17.7626 6.57077 17.9673 6.71697 18.0453 6.93148L18.64 8.67652C18.7569 9.02747 18.5035 9.38817 18.133 9.38817H15.6861C15.3935 9.38817 15.1498 9.14445 15.1498 8.85199V7.10695C15.1498 6.8145 15.3935 6.57077 15.6861 6.57077Z" fill="white"/>
</svg>
