<svg width="351" height="411" viewBox="0 0 351 411" fill="none" xmlns="http://www.w3.org/2000/svg">
<path d="M350.998 343.978H57.1636C51.5634 343.978 51.6003 337.907 54.7671 335.172L120.121 279.044H329.447C332.05 279.044 334.208 276.695 334.259 274.096L336.878 138.932C336.924 136.526 335.163 134.384 332.781 134.027L286.547 127.072C268.571 152.711 238.96 168.306 207.344 168.306C185.282 168.306 163.705 160.67 146.587 146.817C131.996 135.01 121.121 119.109 115.382 101.404L84.5581 96.7853L84.6941 96.7493L64.3994 18.0099C62.9787 12.4896 58.0086 8.77515 52.3163 8.77515H0V33.345H42.6472L97.8882 264.592L38.7072 315.944C17.1094 333.044 29.6497 369.426 57.1636 369.426H107.844C105.071 372.936 103.455 378.461 103.455 383.876C103.455 398.745 115.603 410.687 130.588 410.687C145.573 410.687 157.72 398.802 157.72 383.933C157.72 378.518 156.103 372.937 153.331 369.427H257.531C254.758 372.937 253.142 378.461 253.142 383.876C253.142 398.746 265.29 410.687 280.275 410.687C295.26 410.687 307.408 398.803 307.408 383.933C307.408 378.518 305.791 372.938 303.019 369.428H351V343.978H350.998Z" fill="#F1F1F2"/>
<path d="M207.342 0C167.819 0 135.665 32.1199 135.665 71.601C135.665 111.082 167.819 143.202 207.342 143.202C246.866 143.202 279.02 111.082 279.02 71.601C279.02 32.1199 246.865 0 207.342 0ZM202.909 105.759C197.911 111.084 188.982 110.849 184.276 105.247L162.692 79.5695L181.781 63.4728L194.334 78.4069L231.968 38.3185L250.147 55.4402L202.909 105.759Z" fill="#F1F1F2"/>
</svg>
