<svg width="22" height="21" viewBox="0 0 22 21" fill="none" xmlns="http://www.w3.org/2000/svg">
<path d="M21.6578 17.3653H3.7054C3.36325 17.3653 3.3655 17.0516 3.55899 16.9103L7.55192 14.0109H20.3411C20.5001 14.0109 20.632 13.8896 20.6351 13.7553L20.7951 6.77313C20.7979 6.64884 20.6903 6.53819 20.5447 6.51974L17.72 6.16046C16.6217 7.48489 14.8126 8.29047 12.881 8.29047C11.5331 8.29047 10.2147 7.89602 9.16887 7.18046C8.27746 6.57051 7.61299 5.7491 7.26236 4.83454L5.37913 4.59593L5.38743 4.59407L4.14749 0.526604C4.06069 0.241438 3.75703 0.0495605 3.40925 0.0495605H0.212891V1.31877H2.8185L6.19355 13.2644L2.57778 15.9171C1.25822 16.8004 2.02439 18.6798 3.7054 18.6798H6.80183C6.63242 18.8611 6.53366 19.1465 6.53366 19.4262C6.53366 20.1943 7.27587 20.8112 8.19141 20.8112C9.10694 20.8112 9.8491 20.1973 9.8491 19.4292C9.8491 19.1495 9.75029 18.8612 9.58093 18.6799H15.9472C15.7778 18.8612 15.6791 19.1466 15.6791 19.4263C15.6791 20.1944 16.4213 20.8113 17.3368 20.8113C18.2523 20.8113 18.9945 20.1973 18.9945 19.4292C18.9945 19.1495 18.8957 18.8612 18.7264 18.6799H21.6579V17.3653H21.6578Z" fill="white"/>
</svg>
