<svg width="27" height="27" viewBox="0 0 27 27" fill="none" xmlns="http://www.w3.org/2000/svg">
<path d="M20.2666 9.60235H14.5701C15.0848 9.60235 15.5033 9.18378 15.5033 8.66831C15.5033 8.15285 15.084 7.7373 14.5701 7.7373H12.2403C11.7256 7.7373 11.3077 8.15285 11.3077 8.66831C11.3077 9.18378 11.7263 9.60235 12.2403 9.60235H6.54294C4.95796 9.60235 3.64546 11.0231 3.39038 12.5354H23.4215C23.1649 11.0223 21.8524 9.60235 20.2666 9.60235Z" />
<path d="M23.4682 14.1363V13.8699H3.39023H3.34331H0V15.2036H3.34331V23.4676C3.34331 25.2373 4.77691 26.6686 6.54356 26.6686H20.268C22.0361 26.6686 23.469 25.2373 23.469 23.4676V15.47H26.67V14.1363H23.4682Z" />
<path d="M8.50699 3.20479C8.60009 3.32741 8.69925 3.44549 8.80295 3.55676L9.06105 3.81562C9.22455 3.97987 9.37669 4.14412 9.4978 4.29172C9.55835 4.3659 9.60831 4.4363 9.6454 4.49458C9.68097 4.5521 9.71352 4.59676 9.72109 4.66337C9.73017 4.73452 9.69308 4.83065 9.62042 4.92678C9.54775 5.02139 9.44633 5.11298 9.32749 5.20457C9.46828 5.25906 9.62193 5.27723 9.78543 5.25755C9.94816 5.23863 10.1268 5.16596 10.2759 5.0108C10.4235 4.85563 10.506 4.62628 10.5189 4.42418C10.5333 4.21982 10.5022 4.03513 10.4561 3.86861C10.363 3.53708 10.2085 3.26837 10.0435 3.02162C9.96103 2.90051 9.85885 2.77789 9.78618 2.68327C9.71352 2.59774 9.64615 2.50994 9.58484 2.42289C9.33506 2.07547 9.16021 1.7621 9.09512 1.39424C9.02699 1.02184 9.10269 0.545738 9.32749 0C8.74391 0.122621 8.22466 0.610833 8.05511 1.29357C7.97109 1.6304 7.98926 2.00053 8.07933 2.32525C8.16865 2.65678 8.32684 2.94895 8.50699 3.20479Z" />
<path d="M11.9663 3.20486C12.0594 3.32748 12.1593 3.44556 12.2622 3.55683L12.5196 3.8157C12.6831 3.97995 12.8345 4.1442 12.9586 4.2918C13.0169 4.36597 13.0668 4.43637 13.1047 4.49465C13.1418 4.55218 13.1728 4.59684 13.1789 4.66344C13.1887 4.73459 13.1524 4.83072 13.0797 4.92685C13.0078 5.02147 12.9056 5.11305 12.7853 5.20464C12.9276 5.25914 13.082 5.2773 13.2447 5.25762C13.4067 5.2387 13.5876 5.16604 13.7352 5.01087C13.8843 4.8557 13.9653 4.62635 13.9789 4.42426C13.9933 4.21989 13.963 4.0352 13.9169 3.86868C13.8222 3.53715 13.6671 3.26844 13.5021 3.02169C13.4211 2.90058 13.3181 2.77796 13.2455 2.68335C13.1743 2.59781 13.1054 2.51001 13.0457 2.42297C12.7951 2.07554 12.6195 1.76218 12.5544 1.39432C12.4863 1.02343 12.5605 0.547325 12.7845 0.00158691C12.2017 0.124208 11.6832 0.61242 11.5144 1.29516C11.4304 1.63199 11.4478 2.00212 11.5379 2.32684C11.6287 2.65685 11.7839 2.94902 11.9663 3.20486Z" >
<path d="M15.1173 3.20479C15.2096 3.32741 15.3088 3.44549 15.4125 3.55676L15.6706 3.81562C15.8341 3.97987 15.9847 4.14412 16.1073 4.29172C16.1679 4.3659 16.2179 4.4363 16.2549 4.49458C16.2905 4.5521 16.3216 4.59676 16.3306 4.66337C16.3405 4.73452 16.3026 4.83065 16.23 4.92678C16.1581 5.02139 16.0559 5.11298 15.9355 5.20457C16.0778 5.25906 16.2322 5.27723 16.3935 5.25755C16.5562 5.23863 16.7363 5.16596 16.8855 5.0108C17.0331 4.85563 17.1148 4.62628 17.1277 4.42418C17.1428 4.21982 17.1118 4.03513 17.0656 3.86861C16.9725 3.53708 16.8188 3.26837 16.6531 3.02162C16.5706 2.90051 16.4684 2.77789 16.3957 2.68327C16.3231 2.59774 16.2549 2.50994 16.1944 2.42289C15.9446 2.07547 15.7698 1.7621 15.7054 1.39424C15.6365 1.02184 15.7122 0.545738 15.9355 0C15.3527 0.122621 14.8327 0.610833 14.6647 1.29357C14.5814 1.6304 14.5988 2.00053 14.6889 2.32525C14.7782 2.65678 14.9349 2.94895 15.1173 3.20479Z" />
</svg>
