<svg width="21" height="18" viewBox="0 0 21 18" fill="none" xmlns="http://www.w3.org/2000/svg">
<path d="M15.3957 8.56616C12.3558 8.56616 9.88281 10.6571 9.88281 13.2273C9.88281 15.7976 12.3558 17.8885 15.3957 17.8885C18.4356 17.8885 20.9086 15.7976 20.9086 13.2273C20.9086 10.6571 18.4356 8.56616 15.3957 8.56616ZM17.8459 13.7452H15.3957C15.0572 13.7452 14.7832 13.5135 14.7832 13.2273V11.1557C14.7832 10.8695 15.0572 10.6378 15.3957 10.6378C15.7342 10.6378 16.0083 10.8695 16.0083 11.1557V12.7094H17.8459C18.1844 12.7094 18.4585 12.9411 18.4585 13.2273C18.4585 13.5135 18.1844 13.7452 17.8459 13.7452Z" fill="white"/>
<path d="M19.6423 1.79842C19.6423 1.50832 19.3729 1.28052 19.0298 1.28052H15.967V2.83424C15.967 3.12421 15.6976 3.35214 15.3545 3.35214C15.0114 3.35214 14.7419 3.12421 14.7419 2.83424V1.28052H12.2918V2.83424C12.2918 3.12421 12.0223 3.35214 11.6792 3.35214C11.3361 3.35214 11.0667 3.12421 11.0667 2.83424V1.28052H8.61648V2.83424C8.61648 3.12421 8.34705 3.35214 8.00393 3.35214C7.66081 3.35214 7.39139 3.12421 7.39139 2.83424V1.28052H4.9412V2.83424C4.9412 3.12421 4.67178 3.35214 4.32866 3.35214C3.98554 3.35214 3.71611 3.12421 3.71611 2.83424V1.28052H0.612546C0.269424 1.28052 0 1.50832 0 1.79842V4.38796H19.6423V1.79842Z" fill="white"/>
<path d="M9.22903 10.6031H9.3761C9.59974 10.2358 9.8521 9.88306 10.1609 9.56733H9.22903C8.89053 9.56733 8.61648 9.33562 8.61648 9.04942C8.61648 8.76322 8.89053 8.53151 9.22903 8.53151H10.4541C10.705 8.53151 10.9193 8.65951 11.014 8.84199C12.1876 8.00376 13.7014 7.4957 15.3545 7.4957H14.1294C13.7909 7.4957 13.5168 7.26399 13.5168 6.97779C13.5168 6.6916 13.7909 6.45989 14.1294 6.45989H15.3545C15.693 6.45989 15.967 6.6916 15.967 6.97779C15.967 7.26399 15.693 7.4957 15.3545 7.4957C16.982 7.4957 18.4766 7.98636 19.6423 8.80153V5.42407H0V15.2643C0 15.5505 0.274051 15.7822 0.612546 15.7822H9.36031C8.8883 15.0043 8.61648 14.1254 8.61648 13.1927C8.61648 12.6226 8.73739 12.0793 8.92259 11.5596C8.74282 11.4694 8.61648 11.3108 8.61648 11.121C8.61648 10.8348 8.89053 10.6031 9.22903 10.6031ZM9.22903 6.45989H10.4541C10.7926 6.45989 11.0667 6.6916 11.0667 6.97779C11.0667 7.26399 10.7926 7.4957 10.4541 7.4957H9.22903C8.89053 7.4957 8.61648 7.26399 8.61648 6.97779C8.61648 6.6916 8.89053 6.45989 9.22903 6.45989ZM5.55375 13.7106H4.32866C3.99016 13.7106 3.71611 13.4789 3.71611 13.1927C3.71611 12.9065 3.99016 12.6748 4.32866 12.6748H5.55375C5.89224 12.6748 6.1663 12.9065 6.1663 13.1927C6.1663 13.4789 5.89224 13.7106 5.55375 13.7106ZM5.55375 11.639H4.32866C3.99016 11.639 3.71611 11.4072 3.71611 11.121C3.71611 10.8348 3.99016 10.6031 4.32866 10.6031H5.55375C5.89224 10.6031 6.1663 10.8348 6.1663 11.121C6.1663 11.4072 5.89224 11.639 5.55375 11.639ZM5.55375 9.56733H4.32866C3.99016 9.56733 3.71611 9.33562 3.71611 9.04942C3.71611 8.76322 3.99016 8.53151 4.32866 8.53151H5.55375C5.89224 8.53151 6.1663 8.76322 6.1663 9.04942C6.1663 9.33562 5.89224 9.56733 5.55375 9.56733ZM5.55375 7.4957H4.32866C3.99016 7.4957 3.71611 7.26399 3.71611 6.97779C3.71611 6.6916 3.99016 6.45989 4.32866 6.45989H5.55375C5.89224 6.45989 6.1663 6.6916 6.1663 6.97779C6.1663 7.26399 5.89224 7.4957 5.55375 7.4957Z" fill="white"/>
<path d="M4.94091 0.728356C4.94091 0.438247 4.67149 0.210449 4.32837 0.210449C3.98524 0.210449 3.71582 0.438247 3.71582 0.728356V1.28079H4.94091V0.728356Z" fill="white"/>
<path d="M8.61572 0.728356C8.61572 0.438247 8.34629 0.210449 8.00317 0.210449C7.66005 0.210449 7.39062 0.438247 7.39062 0.728356V1.28079H8.61572V0.728356Z" fill="white"/>
<path d="M12.2915 0.728356C12.2915 0.438247 12.0221 0.210449 11.679 0.210449C11.3358 0.210449 11.0664 0.438247 11.0664 0.728356V1.28079H12.2915V0.728356Z" fill="white"/>
<path d="M15.9673 0.728356C15.9673 0.438247 15.6979 0.210449 15.3547 0.210449C15.0116 0.210449 14.7422 0.438247 14.7422 0.728356V1.28079H15.9673V0.728356Z" fill="white"/>
</svg>
