<svg width="18" height="18" viewBox="0 0 18 18" fill="none" xmlns="http://www.w3.org/2000/svg">
<path d="M4.83676 16.4513C5.47822 16.4513 5.99822 15.9313 5.99822 15.2899C5.99822 14.6484 5.47822 14.1284 4.83676 14.1284C4.1953 14.1284 3.67529 14.6484 3.67529 15.2899C3.67529 15.9313 4.1953 16.4513 4.83676 16.4513Z" fill="white"/>
<path d="M9.48275 16.4513C10.1242 16.4513 10.6442 15.9313 10.6442 15.2899C10.6442 14.6484 10.1242 14.1284 9.48275 14.1284C8.84129 14.1284 8.32129 14.6484 8.32129 15.2899C8.32129 15.9313 8.84129 16.4513 9.48275 16.4513Z" fill="white"/>
<path d="M4.44941 12.5798H9.86958C10.0833 12.5798 10.2567 12.4068 10.2567 12.1927V7.54682C10.2567 7.33273 10.0833 7.15967 9.86958 7.15967H8.32096V8.70829C8.32096 8.92239 8.14752 9.09544 7.93381 9.09544H6.38519C6.17148 9.09544 5.99803 8.92239 5.99803 8.70829V7.15967H4.44941C4.2357 7.15967 4.06226 7.33273 4.06226 7.54682V12.1927C4.06226 12.4068 4.2357 12.5798 4.44941 12.5798Z" fill="white"/>
<path d="M11.8056 13.3543C11.8056 13.1402 11.6321 12.9672 11.4184 12.9672H2.901V5.22407C2.901 5.00997 2.72756 4.83691 2.51385 4.83691H0.578073C0.364363 4.83691 0.190918 5.00997 0.190918 5.22407C0.190918 5.43817 0.364363 5.61122 0.578073 5.61122H2.12669V13.3543C2.12669 13.5684 2.30014 13.7415 2.51385 13.7415H11.4184C11.6321 13.7415 11.8056 13.5684 11.8056 13.3543Z" fill="white"/>
<path d="M17.6129 0.190918H7.54682C7.33389 0.190918 7.15967 0.365138 7.15967 0.578073V6.3854C7.15967 6.59834 7.33389 6.77256 7.54682 6.77256H9.86975C10.2956 6.77256 10.6441 7.121 10.6441 7.54687V12.1927C10.6441 12.336 10.6015 12.4637 10.5357 12.5799H11.4184C11.8442 12.5799 12.1927 12.9283 12.1927 13.3542C12.1927 13.7801 11.8442 14.1285 11.4184 14.1285H10.5047C10.826 14.4111 11.0312 14.8254 11.0312 15.29C11.0312 16.1456 10.3382 16.8386 9.4826 16.8386C8.62699 16.8386 7.93398 16.1456 7.93398 15.29C7.93398 14.8254 8.13917 14.4111 8.46051 14.1285H7.54682C7.33389 14.1285 7.15967 14.3027 7.15967 14.5157V17.6129C7.15967 17.8258 7.33389 18.0001 7.54682 18.0001H17.6129C17.8258 18.0001 18 17.8258 18 17.6129V0.578073C18 0.365138 17.8258 0.190918 17.6129 0.190918ZM12.967 9.09549C12.967 8.88139 13.1404 8.70833 13.3542 8.70833H15.2899C15.5036 8.70833 15.6771 8.88139 15.6771 9.09549C15.6771 9.30958 15.5036 9.48264 15.2899 9.48264H13.3542C13.1404 9.48264 12.967 9.30958 12.967 9.09549ZM16.8385 10.6441C16.8385 10.857 16.6643 11.0313 16.4514 11.0313H14.1285C13.9155 11.0313 13.7413 10.857 13.7413 10.6441V9.8698H15.2899C15.7158 9.8698 16.0642 9.52136 16.0642 9.09549C16.0642 8.66962 15.7158 8.32118 15.2899 8.32118H13.7413V7.54687C13.7413 7.33393 13.9155 7.15971 14.1285 7.15971H16.4514C16.6643 7.15971 16.8385 7.33393 16.8385 7.54687V10.6441Z" fill="white"/>
</svg>
