<svg width="64" height="64" viewBox="0 0 64 64" fill="none" xmlns="http://www.w3.org/2000/svg">
<rect opacity="0.12" width="64" height="64" rx="4" fill="#5D5FEF"/>
<path d="M48.2351 13H16.2034C14.4419 13 13 14.4419 13 16.2034V41.8289C13 43.5898 14.4419 45.0322 16.2034 45.0322H30.6178V48.2351H25.813C24.0438 48.2351 22.6096 49.6679 22.6096 51.4385L41.8289 51.4351C41.8289 49.6679 40.3946 48.2322 38.6255 48.2322H33.8207V45.0322H48.2351C49.9966 45.0322 51.4385 43.5898 51.4385 41.8289V16.2034C51.4385 14.4419 49.9966 13 48.2351 13ZM26.0475 32.9232L24.3489 34.6216L19.8752 30.1484C19.2496 29.5224 19.2496 28.509 19.8752 27.8834L24.3489 23.4101L26.0474 25.1086L22.1402 29.0154L26.0475 32.9232ZM31.8487 36.2231H29.3853L32.5901 21.8087H35.0535L31.8487 36.2231ZM44.5628 30.1484L40.0896 34.6216L38.3911 32.9232L42.2984 29.0159L38.3911 25.1091L40.0896 23.4106L44.5633 27.8838C45.1884 28.5061 45.1884 29.5228 44.5628 30.1484Z" fill="#5D5FEF"/>
</svg>
