<svg width="686" height="404" viewBox="0 0 686 404" fill="none" xmlns="http://www.w3.org/2000/svg">
<g clip-path="url(#clip0_37_2971)">
<path d="M203.4 45.8333C208.011 52.3524 204.207 60.8448 199.611 65.6143C193.969 71.4863 188.23 70.5755 185.617 75.7684C182.46 82.0399 189.181 86.6576 185.673 93.2086C183.523 97.2351 180.565 96.2764 176.281 101.397C171.062 107.629 176.178 109.402 172.477 113.964C160.584 128.616 155.829 118.454 148.588 122.305C139.205 127.298 132.93 131.556 128.335 130.566C110.28 126.643 115.843 114.779 107.083 110.201C95.238 104.026 89.4595 78.7404 97.5878 69.8246C101.848 65.1589 106.052 64.5917 106.443 60.709C107.011 55.1007 98.5389 53.4709 97.6837 46.7201C96.7087 39.0666 106.867 35.3597 105.356 28.8965C103.886 22.5931 93.4557 22.8248 92.7924 18.3189C91.7773 11.4963 114.028 -0.727042 137.063 0.0319206C148.084 0.391429 166.027 3.94657 169.016 13.126C170.743 18.4228 166.251 21.8421 168.785 28.6888C170.623 33.666 174.691 36.4462 180.078 40.0333C185.185 43.4446 195.24 34.2971 203.4 45.8333Z" fill="#EEEEEE"/>
<path d="M148.34 41.7269C151.96 41.5431 153.815 65.7021 151.713 68.8738C149.611 72.0455 145.654 74.3783 145.399 77.8376C145.135 81.2968 146.677 142.573 147.964 141.686C149.243 140.8 159.857 124.741 157.739 121.003C155.621 117.264 153.215 111.48 153.719 106.598C154.214 101.709 154.222 94.7504 155.589 94.9182C156.956 95.086 155.813 107.078 156.764 109.402C157.715 111.727 157.883 113.549 159.25 113.589C160.616 113.629 160.648 100.942 162.734 101.166C164.82 101.389 163.406 120.084 162.686 123.551C161.967 127.01 159.513 138.962 157.251 143.364C154.99 147.766 148.108 152.376 147.94 153.878C147.772 155.38 148.875 191.067 148.875 191.067L130.852 191.394C130.852 191.394 137.51 121.027 136.024 118.686C134.537 116.345 125.13 97.3309 123.116 95.3896C121.102 93.4482 119.895 81.6004 120.958 81.4326C122.021 81.2649 122.612 92.8171 124.818 93.0008C127.032 93.1926 128.215 70.6474 129.821 70.8471C131.42 71.0468 128.263 94.2312 129.126 95.6612C129.989 97.0912 135.016 105.672 136.687 105.488C138.357 105.304 135.768 42.1983 137.198 41.4872C138.629 40.7762 139.708 41.3674 140.587 47.9664C141.466 54.5733 143.177 68.9936 144.168 68.9777C145.159 68.9617 147.629 66.7807 147.677 65.3346C147.724 63.8966 146.725 41.8068 148.34 41.7269Z" fill="#BDBDBD"/>
<path d="M538.979 113.381C536.365 117.072 538.523 121.881 541.121 124.582C544.318 127.905 547.563 127.394 549.049 130.334C550.84 133.889 547.035 136.494 549.017 140.208C550.24 142.493 551.911 141.95 554.332 144.842C557.29 148.373 554.388 149.372 556.482 151.952C563.212 160.245 565.913 154.493 570.006 156.674C575.321 159.502 578.869 161.915 581.475 161.348C591.697 159.127 588.548 152.408 593.511 149.819C600.217 146.32 603.494 132.004 598.89 126.963C596.477 124.318 594.095 123.999 593.871 121.802C593.551 118.63 598.347 117.703 598.834 113.884C599.386 109.554 593.639 107.453 594.494 103.794C595.326 100.223 601.232 100.351 601.608 97.8104C602.183 93.9437 589.587 87.0251 576.543 87.4565C570.301 87.6642 560.143 89.6775 558.456 94.8704C557.481 97.8743 560.023 99.8076 558.592 103.682C557.553 106.502 555.252 108.076 552.198 110.106C549.289 112.031 543.598 106.854 538.979 113.381Z" fill="#EEEEEE"/>
<path d="M570.158 111.056C568.103 110.952 567.056 124.63 568.247 126.427C569.438 128.225 571.676 129.543 571.82 131.5C571.972 133.458 571.093 168.154 570.373 167.651C569.646 167.148 563.636 158.056 564.842 155.939C566.041 153.822 567.4 150.546 567.12 147.782C566.841 145.018 566.833 141.071 566.057 141.167C565.282 141.263 565.929 148.054 565.394 149.372C564.85 150.69 564.763 151.721 563.987 151.745C563.212 151.769 563.196 144.587 562.013 144.706C560.83 144.834 561.638 155.42 562.045 157.377C562.453 159.334 563.843 166.101 565.122 168.594C566.401 171.086 570.301 173.699 570.397 174.546C570.493 175.392 569.87 195.597 569.87 195.597L580.076 195.781C580.076 195.781 576.304 155.939 577.151 154.613C577.99 153.287 583.313 142.525 584.456 141.423C585.599 140.32 586.278 133.618 585.679 133.522C585.079 133.426 584.744 139.969 583.489 140.073C582.234 140.177 581.563 127.418 580.66 127.53C579.756 127.642 581.539 140.768 581.051 141.583C580.564 142.39 577.718 147.255 576.767 147.151C575.824 147.047 577.287 111.32 576.48 110.921C575.664 110.521 575.057 110.849 574.561 114.587C574.066 118.326 573.099 126.491 572.539 126.483C571.98 126.475 570.581 125.245 570.549 124.422C570.501 123.607 571.069 111.104 570.158 111.056Z" fill="#BDBDBD"/>
<path d="M342.996 404C532.427 404 685.992 349.657 685.992 282.622C685.992 215.587 532.427 161.244 342.996 161.244C153.565 161.244 0 215.587 0 282.622C0 349.657 153.565 404 342.996 404Z" fill="url(#paint0_linear_37_2971)"/>
<path d="M386.843 132.85H366.805C362.41 132.85 358.845 129.287 358.845 124.893C358.845 120.499 362.41 116.936 366.805 116.936H386.843C403.035 116.936 416.215 103.762 416.215 87.5763V43.5405C416.215 39.1465 419.779 35.5834 424.175 35.5834C428.571 35.5834 432.136 39.1465 432.136 43.5405V87.5683C432.136 112.542 411.819 132.85 386.843 132.85Z" fill="#F54748"/>
<path d="M382.079 159.55H278.753C271.08 159.55 264.798 153.271 264.798 145.601V108.699C264.798 101.03 271.08 94.7505 278.753 94.7505H382.079C389.752 94.7505 396.034 101.03 396.034 108.699V145.601C396.034 153.271 389.752 159.55 382.079 159.55Z" fill="#F54748"/>
<path d="M263.647 37.285C260.962 37.285 258.788 39.4581 258.788 42.1424V83.7496H288.256V61.8834C288.256 48.294 277.234 37.285 263.647 37.285Z" fill="#F2DAD4"/>
<path d="M334.86 37.285C337.545 37.285 339.719 39.4581 339.719 42.1424V83.7496H310.251V61.8834C310.251 48.294 321.273 37.285 334.86 37.285Z" fill="#F54748"/>
<path d="M321.512 69.3452H328.865C329.529 69.3452 330.064 68.8099 330.064 68.1468V49.8998C330.064 49.2367 329.529 48.7014 328.865 48.7014C324.142 48.7014 320.314 52.5282 320.314 57.2497V68.1468C320.306 68.8099 320.849 69.3452 321.512 69.3452Z" fill="url(#paint1_linear_37_2971)"/>
<path d="M263.647 37.285C260.962 37.285 258.788 39.4581 258.788 42.1424V83.7496H288.256V61.8834C288.256 48.294 277.234 37.285 263.647 37.285Z" fill="#F54748"/>
<path d="M276.994 69.3452H269.641C268.978 69.3452 268.442 68.8099 268.442 68.1468V49.8998C268.442 49.2367 268.978 48.7014 269.641 48.7014C274.365 48.7014 278.193 52.5282 278.193 57.2497V68.1468C278.193 68.8099 277.658 69.3452 276.994 69.3452Z" fill="url(#paint2_linear_37_2971)"/>
<path d="M326.755 116.113H271.751C264.59 116.113 258.78 110.305 258.78 103.147V68.8579C258.78 61.6997 264.59 55.8916 271.751 55.8916H326.755C333.917 55.8916 339.727 61.6997 339.727 68.8579V103.147C339.727 110.313 333.917 116.113 326.755 116.113Z" fill="#F54748"/>
<path d="M308.125 116.113H290.829C285.45 116.113 281.094 111.759 281.094 106.383C281.094 101.006 285.45 96.652 290.829 96.652H308.125C313.504 96.652 317.86 101.006 317.86 106.383C317.86 111.759 313.496 116.113 308.125 116.113Z" fill="#E28D91"/>
<path d="M288.935 94.3271C288.144 94.3271 287.393 93.8798 287.049 93.1128C286.945 92.9131 285.81 90.8519 282.493 90.8519C279.072 90.8519 277.945 93.0968 277.937 93.1128C277.458 94.1594 276.227 94.6147 275.18 94.1354C274.133 93.6561 273.677 92.4257 274.157 91.3792C274.245 91.1874 276.379 86.6896 282.493 86.6896C288.607 86.6896 290.741 91.1874 290.829 91.3792C291.309 92.4257 290.853 93.6561 289.806 94.1354C289.519 94.2632 289.231 94.3271 288.935 94.3271Z" fill="#192B59"/>
<path d="M309.572 94.3431C309.276 94.3431 308.98 94.2792 308.692 94.1514C307.653 93.672 307.198 92.4257 307.677 91.3792C307.765 91.1874 309.899 86.6896 316.014 86.6896C322.128 86.6896 324.262 91.1874 324.35 91.3792C324.829 92.4257 324.374 93.6561 323.327 94.1354C322.288 94.6147 321.049 94.1594 320.569 93.1128C320.465 92.9131 319.33 90.8519 316.014 90.8519C312.689 90.8519 311.562 92.9131 311.442 93.1448C311.09 93.9037 310.355 94.3431 309.572 94.3431Z" fill="#192B59"/>
<path d="M305.823 106.726C305.112 105.823 303.809 105.664 302.906 106.375C302.322 106.83 301.635 107.126 300.852 107.293V104.505C301.315 104.258 301.731 103.882 302.027 103.371L303.441 100.918C304.576 98.9528 303.154 96.4922 300.884 96.4922H298.047C295.777 96.4922 294.354 98.9528 295.489 100.918L296.904 103.371C297.199 103.882 297.615 104.258 298.079 104.505V107.333C297.287 107.182 296.576 106.902 295.976 106.463C295.049 105.783 293.755 105.975 293.075 106.902C292.396 107.829 292.588 109.123 293.515 109.802C295.153 111.008 297.127 111.624 299.381 111.624C301.707 111.624 303.809 110.936 305.456 109.65C306.375 108.931 306.535 107.629 305.823 106.726Z" fill="#192B59"/>
<path d="M404.962 198.089H258.556C256.789 198.089 255.351 196.659 255.351 194.886V121.003H408.159V194.886C408.167 196.659 406.728 198.089 404.962 198.089Z" fill="#219653"/>
<path d="M408.446 146.192H255.079C252.993 146.192 251.403 144.315 251.754 142.262L255.359 121.003H408.166L411.771 142.262C412.115 144.323 410.532 146.192 408.446 146.192Z" fill="#6FCF97"/>
<path d="M194.882 348.672V370H192.04L181.303 353.55V370H178.476V348.672H181.303L192.084 365.166V348.672H194.882ZM198.764 362.251V361.914C198.764 360.771 198.93 359.712 199.262 358.735C199.594 357.749 200.072 356.895 200.697 356.172C201.322 355.439 202.079 354.873 202.968 354.473C203.856 354.062 204.853 353.857 205.956 353.857C207.069 353.857 208.07 354.062 208.959 354.473C209.857 354.873 210.619 355.439 211.244 356.172C211.879 356.895 212.362 357.749 212.694 358.735C213.026 359.712 213.192 360.771 213.192 361.914V362.251C213.192 363.394 213.026 364.453 212.694 365.43C212.362 366.406 211.879 367.261 211.244 367.993C210.619 368.716 209.862 369.282 208.974 369.692C208.095 370.093 207.099 370.293 205.985 370.293C204.872 370.293 203.871 370.093 202.982 369.692C202.094 369.282 201.332 368.716 200.697 367.993C200.072 367.261 199.594 366.406 199.262 365.43C198.93 364.453 198.764 363.394 198.764 362.251ZM201.474 361.914V362.251C201.474 363.042 201.566 363.789 201.752 364.492C201.938 365.186 202.216 365.801 202.587 366.338C202.968 366.875 203.441 367.3 204.008 367.612C204.574 367.915 205.233 368.066 205.985 368.066C206.728 368.066 207.377 367.915 207.934 367.612C208.5 367.3 208.969 366.875 209.34 366.338C209.711 365.801 209.989 365.186 210.175 364.492C210.37 363.789 210.468 363.042 210.468 362.251V361.914C210.468 361.133 210.37 360.396 210.175 359.702C209.989 358.999 209.706 358.379 209.325 357.842C208.954 357.295 208.485 356.865 207.919 356.553C207.362 356.24 206.708 356.084 205.956 356.084C205.214 356.084 204.56 356.24 203.993 356.553C203.437 356.865 202.968 357.295 202.587 357.842C202.216 358.379 201.938 358.999 201.752 359.702C201.566 360.396 201.474 361.133 201.474 361.914ZM226.728 357.3V370H224.003V354.15H226.581L226.728 357.3ZM226.171 361.475L224.911 361.431C224.921 360.347 225.062 359.346 225.336 358.428C225.609 357.5 226.015 356.694 226.552 356.011C227.089 355.327 227.758 354.8 228.559 354.429C229.359 354.048 230.287 353.857 231.342 353.857C232.084 353.857 232.768 353.965 233.393 354.18C234.018 354.385 234.56 354.712 235.019 355.161C235.478 355.61 235.834 356.187 236.088 356.89C236.342 357.593 236.469 358.442 236.469 359.438V370H233.759V359.57C233.759 358.74 233.617 358.076 233.334 357.578C233.061 357.08 232.67 356.719 232.162 356.494C231.654 356.26 231.059 356.143 230.375 356.143C229.574 356.143 228.905 356.284 228.368 356.567C227.831 356.851 227.401 357.241 227.079 357.739C226.757 358.237 226.522 358.809 226.376 359.453C226.239 360.088 226.171 360.762 226.171 361.475ZM236.439 359.98L234.623 360.537C234.633 359.668 234.774 358.833 235.048 358.032C235.331 357.231 235.736 356.519 236.264 355.894C236.801 355.269 237.46 354.775 238.241 354.414C239.022 354.043 239.916 353.857 240.922 353.857C241.771 353.857 242.523 353.97 243.178 354.194C243.842 354.419 244.398 354.766 244.848 355.234C245.307 355.693 245.653 356.284 245.888 357.007C246.122 357.729 246.239 358.589 246.239 359.585V370H243.515V359.556C243.515 358.667 243.373 357.979 243.09 357.49C242.816 356.992 242.426 356.646 241.918 356.45C241.42 356.245 240.824 356.143 240.131 356.143C239.535 356.143 239.008 356.245 238.549 356.45C238.09 356.655 237.704 356.938 237.392 357.3C237.079 357.651 236.84 358.057 236.674 358.516C236.518 358.975 236.439 359.463 236.439 359.98ZM259.687 367.29V359.131C259.687 358.506 259.56 357.964 259.306 357.505C259.062 357.036 258.69 356.675 258.192 356.421C257.694 356.167 257.079 356.04 256.347 356.04C255.663 356.04 255.062 356.157 254.545 356.392C254.037 356.626 253.637 356.934 253.344 357.314C253.061 357.695 252.919 358.105 252.919 358.545H250.209C250.209 357.979 250.355 357.417 250.648 356.86C250.941 356.304 251.361 355.801 251.908 355.352C252.465 354.893 253.129 354.531 253.9 354.268C254.682 353.994 255.551 353.857 256.508 353.857C257.66 353.857 258.676 354.053 259.555 354.443C260.443 354.834 261.137 355.425 261.635 356.216C262.143 356.997 262.396 357.979 262.396 359.16V366.543C262.396 367.07 262.44 367.632 262.528 368.228C262.626 368.823 262.768 369.336 262.953 369.766V370H260.126C259.989 369.688 259.882 369.272 259.804 368.755C259.726 368.228 259.687 367.739 259.687 367.29ZM260.155 360.391L260.185 362.295H257.445C256.674 362.295 255.985 362.358 255.38 362.485C254.774 362.603 254.267 362.783 253.856 363.027C253.446 363.271 253.134 363.579 252.919 363.95C252.704 364.312 252.597 364.736 252.597 365.225C252.597 365.723 252.709 366.177 252.934 366.587C253.158 366.997 253.495 367.324 253.944 367.568C254.403 367.803 254.965 367.92 255.629 367.92C256.459 367.92 257.191 367.744 257.826 367.393C258.461 367.041 258.964 366.611 259.335 366.104C259.716 365.596 259.921 365.103 259.95 364.624L261.107 365.928C261.039 366.338 260.854 366.792 260.551 367.29C260.248 367.788 259.843 368.267 259.335 368.726C258.837 369.175 258.241 369.551 257.548 369.854C256.864 370.146 256.093 370.293 255.233 370.293C254.159 370.293 253.217 370.083 252.406 369.663C251.605 369.243 250.98 368.682 250.531 367.979C250.092 367.266 249.872 366.47 249.872 365.591C249.872 364.741 250.038 363.994 250.37 363.35C250.702 362.695 251.181 362.153 251.806 361.724C252.431 361.284 253.183 360.952 254.062 360.728C254.94 360.503 255.922 360.391 257.006 360.391H260.155ZM273.295 354.15V356.23H264.726V354.15H273.295ZM267.626 350.298H270.336V366.074C270.336 366.611 270.419 367.017 270.585 367.29C270.751 367.563 270.966 367.744 271.229 367.832C271.493 367.92 271.776 367.964 272.079 367.964C272.304 367.964 272.538 367.944 272.782 367.905C273.036 367.856 273.227 367.817 273.354 367.788L273.368 370C273.153 370.068 272.87 370.132 272.519 370.19C272.177 370.259 271.762 370.293 271.273 370.293C270.609 370.293 269.999 370.161 269.442 369.897C268.886 369.634 268.441 369.194 268.109 368.579C267.787 367.954 267.626 367.114 267.626 366.06V350.298ZM282.816 368.066C283.461 368.066 284.057 367.935 284.604 367.671C285.15 367.407 285.6 367.046 285.951 366.587C286.303 366.118 286.503 365.586 286.552 364.99H289.13C289.081 365.928 288.764 366.802 288.178 367.612C287.602 368.413 286.845 369.062 285.907 369.561C284.97 370.049 283.939 370.293 282.816 370.293C281.625 370.293 280.585 370.083 279.696 369.663C278.817 369.243 278.085 368.667 277.499 367.935C276.923 367.202 276.488 366.362 276.195 365.415C275.912 364.458 275.771 363.447 275.771 362.383V361.768C275.771 360.703 275.912 359.697 276.195 358.75C276.488 357.793 276.923 356.948 277.499 356.216C278.085 355.483 278.817 354.907 279.696 354.487C280.585 354.067 281.625 353.857 282.816 353.857C284.057 353.857 285.141 354.111 286.068 354.619C286.996 355.117 287.724 355.801 288.251 356.67C288.788 357.529 289.081 358.506 289.13 359.6H286.552C286.503 358.945 286.317 358.354 285.995 357.827C285.683 357.3 285.253 356.88 284.706 356.567C284.169 356.245 283.539 356.084 282.816 356.084C281.986 356.084 281.288 356.25 280.722 356.582C280.165 356.904 279.721 357.344 279.389 357.9C279.066 358.447 278.832 359.058 278.686 359.731C278.549 360.396 278.48 361.074 278.48 361.768V362.383C278.48 363.076 278.549 363.76 278.686 364.434C278.822 365.107 279.052 365.718 279.374 366.265C279.706 366.812 280.15 367.251 280.707 367.583C281.273 367.905 281.977 368.066 282.816 368.066ZM294.887 347.5V370H292.177V347.5H294.887ZM294.242 361.475L293.114 361.431C293.124 360.347 293.285 359.346 293.598 358.428C293.91 357.5 294.35 356.694 294.916 356.011C295.482 355.327 296.156 354.8 296.938 354.429C297.729 354.048 298.603 353.857 299.56 353.857C300.341 353.857 301.044 353.965 301.669 354.18C302.294 354.385 302.826 354.717 303.266 355.176C303.715 355.635 304.057 356.23 304.291 356.963C304.525 357.686 304.643 358.569 304.643 359.614V370H301.918V359.585C301.918 358.755 301.796 358.091 301.552 357.593C301.308 357.085 300.951 356.719 300.482 356.494C300.014 356.26 299.438 356.143 298.754 356.143C298.08 356.143 297.465 356.284 296.908 356.567C296.361 356.851 295.888 357.241 295.487 357.739C295.097 358.237 294.789 358.809 294.564 359.453C294.35 360.088 294.242 360.762 294.242 361.475ZM311.645 354.15V370H308.92V354.15H311.645ZM308.715 349.946C308.715 349.507 308.847 349.136 309.11 348.833C309.384 348.53 309.784 348.379 310.312 348.379C310.829 348.379 311.225 348.53 311.498 348.833C311.781 349.136 311.923 349.507 311.923 349.946C311.923 350.366 311.781 350.728 311.498 351.03C311.225 351.323 310.829 351.47 310.312 351.47C309.784 351.47 309.384 351.323 309.11 351.03C308.847 350.728 308.715 350.366 308.715 349.946ZM318.705 357.534V370H315.995V354.15H318.559L318.705 357.534ZM318.061 361.475L316.933 361.431C316.942 360.347 317.104 359.346 317.416 358.428C317.729 357.5 318.168 356.694 318.734 356.011C319.301 355.327 319.975 354.8 320.756 354.429C321.547 354.048 322.421 353.857 323.378 353.857C324.159 353.857 324.862 353.965 325.487 354.18C326.112 354.385 326.645 354.717 327.084 355.176C327.533 355.635 327.875 356.23 328.109 356.963C328.344 357.686 328.461 358.569 328.461 359.614V370H325.736V359.585C325.736 358.755 325.614 358.091 325.37 357.593C325.126 357.085 324.77 356.719 324.301 356.494C323.832 356.26 323.256 356.143 322.572 356.143C321.898 356.143 321.283 356.284 320.727 356.567C320.18 356.851 319.706 357.241 319.306 357.739C318.915 358.237 318.607 358.809 318.383 359.453C318.168 360.088 318.061 360.762 318.061 361.475ZM342.846 354.15H345.307V369.663C345.307 371.06 345.023 372.251 344.457 373.237C343.891 374.224 343.1 374.971 342.084 375.479C341.078 375.996 339.916 376.255 338.598 376.255C338.051 376.255 337.406 376.167 336.664 375.991C335.932 375.825 335.209 375.537 334.496 375.127C333.793 374.727 333.202 374.185 332.724 373.501L334.145 371.89C334.809 372.69 335.502 373.247 336.225 373.56C336.957 373.872 337.68 374.028 338.393 374.028C339.252 374.028 339.994 373.867 340.619 373.545C341.244 373.223 341.728 372.744 342.069 372.109C342.421 371.484 342.597 370.713 342.597 369.795V357.637L342.846 354.15ZM331.933 362.251V361.943C331.933 360.732 332.074 359.634 332.357 358.647C332.65 357.651 333.065 356.797 333.603 356.084C334.149 355.371 334.809 354.824 335.58 354.443C336.352 354.053 337.221 353.857 338.188 353.857C339.184 353.857 340.053 354.033 340.795 354.385C341.547 354.727 342.182 355.229 342.699 355.894C343.227 356.548 343.642 357.339 343.944 358.267C344.247 359.194 344.457 360.244 344.574 361.416V362.764C344.467 363.926 344.257 364.971 343.944 365.898C343.642 366.826 343.227 367.617 342.699 368.271C342.182 368.926 341.547 369.429 340.795 369.78C340.043 370.122 339.164 370.293 338.158 370.293C337.211 370.293 336.352 370.093 335.58 369.692C334.818 369.292 334.164 368.73 333.617 368.008C333.07 367.285 332.65 366.436 332.357 365.459C332.074 364.473 331.933 363.403 331.933 362.251ZM334.643 361.943V362.251C334.643 363.042 334.721 363.784 334.877 364.478C335.043 365.171 335.292 365.781 335.624 366.309C335.966 366.836 336.4 367.251 336.928 367.554C337.455 367.847 338.085 367.993 338.817 367.993C339.716 367.993 340.458 367.803 341.044 367.422C341.63 367.041 342.094 366.538 342.436 365.913C342.787 365.288 343.061 364.609 343.256 363.877V360.347C343.148 359.81 342.982 359.292 342.758 358.794C342.543 358.286 342.26 357.837 341.908 357.446C341.566 357.046 341.142 356.729 340.634 356.494C340.126 356.26 339.53 356.143 338.847 356.143C338.104 356.143 337.465 356.299 336.928 356.611C336.4 356.914 335.966 357.334 335.624 357.871C335.292 358.398 335.043 359.014 334.877 359.717C334.721 360.41 334.643 361.152 334.643 361.943ZM359.574 356.641V370H356.864V354.15H359.501L359.574 356.641ZM364.525 354.062L364.511 356.582C364.286 356.533 364.071 356.504 363.866 356.494C363.671 356.475 363.446 356.465 363.192 356.465C362.567 356.465 362.016 356.562 361.537 356.758C361.059 356.953 360.653 357.227 360.321 357.578C359.989 357.93 359.726 358.35 359.53 358.838C359.345 359.316 359.223 359.844 359.164 360.42L358.402 360.859C358.402 359.902 358.495 359.004 358.681 358.164C358.876 357.324 359.174 356.582 359.574 355.938C359.975 355.283 360.482 354.775 361.098 354.414C361.723 354.043 362.465 353.857 363.324 353.857C363.52 353.857 363.744 353.882 363.998 353.931C364.252 353.97 364.428 354.014 364.525 354.062ZM373.314 370.293C372.211 370.293 371.21 370.107 370.312 369.736C369.423 369.355 368.656 368.823 368.012 368.14C367.377 367.456 366.889 366.646 366.547 365.708C366.205 364.771 366.034 363.745 366.034 362.632V362.017C366.034 360.728 366.225 359.58 366.605 358.574C366.986 357.559 367.504 356.699 368.158 355.996C368.812 355.293 369.555 354.761 370.385 354.399C371.215 354.038 372.074 353.857 372.963 353.857C374.096 353.857 375.072 354.053 375.893 354.443C376.723 354.834 377.401 355.381 377.929 356.084C378.456 356.777 378.847 357.598 379.101 358.545C379.354 359.482 379.481 360.508 379.481 361.621V362.837H367.646V360.625H376.771V360.42C376.732 359.717 376.586 359.033 376.332 358.369C376.088 357.705 375.697 357.158 375.16 356.729C374.623 356.299 373.891 356.084 372.963 356.084C372.348 356.084 371.781 356.216 371.264 356.479C370.746 356.733 370.302 357.114 369.931 357.622C369.56 358.13 369.271 358.75 369.066 359.482C368.861 360.215 368.759 361.06 368.759 362.017V362.632C368.759 363.384 368.861 364.092 369.066 364.756C369.281 365.41 369.589 365.986 369.989 366.484C370.399 366.982 370.893 367.373 371.469 367.656C372.055 367.939 372.719 368.081 373.461 368.081C374.418 368.081 375.229 367.886 375.893 367.495C376.557 367.104 377.138 366.582 377.636 365.928L379.276 367.231C378.935 367.749 378.5 368.242 377.973 368.711C377.445 369.18 376.796 369.561 376.024 369.854C375.263 370.146 374.359 370.293 373.314 370.293ZM388.988 368.066C389.633 368.066 390.229 367.935 390.775 367.671C391.322 367.407 391.771 367.046 392.123 366.587C392.475 366.118 392.675 365.586 392.724 364.99H395.302C395.253 365.928 394.936 366.802 394.35 367.612C393.773 368.413 393.017 369.062 392.079 369.561C391.142 370.049 390.111 370.293 388.988 370.293C387.797 370.293 386.757 370.083 385.868 369.663C384.989 369.243 384.257 368.667 383.671 367.935C383.095 367.202 382.66 366.362 382.367 365.415C382.084 364.458 381.942 363.447 381.942 362.383V361.768C381.942 360.703 382.084 359.697 382.367 358.75C382.66 357.793 383.095 356.948 383.671 356.216C384.257 355.483 384.989 354.907 385.868 354.487C386.757 354.067 387.797 353.857 388.988 353.857C390.229 353.857 391.312 354.111 392.24 354.619C393.168 355.117 393.896 355.801 394.423 356.67C394.96 357.529 395.253 358.506 395.302 359.6H392.724C392.675 358.945 392.489 358.354 392.167 357.827C391.854 357.3 391.425 356.88 390.878 356.567C390.341 356.245 389.711 356.084 388.988 356.084C388.158 356.084 387.46 356.25 386.894 356.582C386.337 356.904 385.893 357.344 385.561 357.9C385.238 358.447 385.004 359.058 384.857 359.731C384.721 360.396 384.652 361.074 384.652 361.768V362.383C384.652 363.076 384.721 363.76 384.857 364.434C384.994 365.107 385.224 365.718 385.546 366.265C385.878 366.812 386.322 367.251 386.879 367.583C387.445 367.905 388.148 368.066 388.988 368.066ZM397.631 362.251V361.914C397.631 360.771 397.797 359.712 398.129 358.735C398.461 357.749 398.939 356.895 399.564 356.172C400.189 355.439 400.946 354.873 401.835 354.473C402.724 354.062 403.72 353.857 404.823 353.857C405.937 353.857 406.938 354.062 407.826 354.473C408.725 354.873 409.486 355.439 410.111 356.172C410.746 356.895 411.229 357.749 411.562 358.735C411.894 359.712 412.06 360.771 412.06 361.914V362.251C412.06 363.394 411.894 364.453 411.562 365.43C411.229 366.406 410.746 367.261 410.111 367.993C409.486 368.716 408.729 369.282 407.841 369.692C406.962 370.093 405.966 370.293 404.853 370.293C403.739 370.293 402.738 370.093 401.85 369.692C400.961 369.282 400.199 368.716 399.564 367.993C398.939 367.261 398.461 366.406 398.129 365.43C397.797 364.453 397.631 363.394 397.631 362.251ZM400.341 361.914V362.251C400.341 363.042 400.434 363.789 400.619 364.492C400.805 365.186 401.083 365.801 401.454 366.338C401.835 366.875 402.309 367.3 402.875 367.612C403.441 367.915 404.101 368.066 404.853 368.066C405.595 368.066 406.244 367.915 406.801 367.612C407.367 367.3 407.836 366.875 408.207 366.338C408.578 365.801 408.856 365.186 409.042 364.492C409.237 363.789 409.335 363.042 409.335 362.251V361.914C409.335 361.133 409.237 360.396 409.042 359.702C408.856 358.999 408.573 358.379 408.192 357.842C407.821 357.295 407.353 356.865 406.786 356.553C406.229 356.24 405.575 356.084 404.823 356.084C404.081 356.084 403.427 356.24 402.86 356.553C402.304 356.865 401.835 357.295 401.454 357.842C401.083 358.379 400.805 358.999 400.619 359.702C400.434 360.396 400.341 361.133 400.341 361.914ZM418.168 356.641V370H415.458V354.15H418.095L418.168 356.641ZM423.119 354.062L423.104 356.582C422.88 356.533 422.665 356.504 422.46 356.494C422.265 356.475 422.04 356.465 421.786 356.465C421.161 356.465 420.609 356.562 420.131 356.758C419.652 356.953 419.247 357.227 418.915 357.578C418.583 357.93 418.319 358.35 418.124 358.838C417.938 359.316 417.816 359.844 417.758 360.42L416.996 360.859C416.996 359.902 417.089 359.004 417.274 358.164C417.47 357.324 417.768 356.582 418.168 355.938C418.568 355.283 419.076 354.775 419.691 354.414C420.316 354.043 421.059 353.857 421.918 353.857C422.113 353.857 422.338 353.882 422.592 353.931C422.846 353.97 423.021 354.014 423.119 354.062ZM435.321 366.924V347.5H438.046V370H435.556L435.321 366.924ZM424.657 362.251V361.943C424.657 360.732 424.804 359.634 425.097 358.647C425.399 357.651 425.824 356.797 426.371 356.084C426.928 355.371 427.587 354.824 428.349 354.443C429.12 354.053 429.979 353.857 430.927 353.857C431.923 353.857 432.792 354.033 433.534 354.385C434.286 354.727 434.921 355.229 435.438 355.894C435.966 356.548 436.381 357.339 436.684 358.267C436.986 359.194 437.196 360.244 437.313 361.416V362.764C437.206 363.926 436.996 364.971 436.684 365.898C436.381 366.826 435.966 367.617 435.438 368.271C434.921 368.926 434.286 369.429 433.534 369.78C432.782 370.122 431.903 370.293 430.897 370.293C429.97 370.293 429.12 370.093 428.349 369.692C427.587 369.292 426.928 368.73 426.371 368.008C425.824 367.285 425.399 366.436 425.097 365.459C424.804 364.473 424.657 363.403 424.657 362.251ZM427.382 361.943V362.251C427.382 363.042 427.46 363.784 427.616 364.478C427.782 365.171 428.036 365.781 428.378 366.309C428.72 366.836 429.154 367.251 429.682 367.554C430.209 367.847 430.839 367.993 431.571 367.993C432.47 367.993 433.207 367.803 433.783 367.422C434.369 367.041 434.838 366.538 435.189 365.913C435.541 365.288 435.814 364.609 436.01 363.877V360.347C435.893 359.81 435.722 359.292 435.497 358.794C435.282 358.286 434.999 357.837 434.647 357.446C434.306 357.046 433.881 356.729 433.373 356.494C432.875 356.26 432.284 356.143 431.601 356.143C430.858 356.143 430.219 356.299 429.682 356.611C429.154 356.914 428.72 357.334 428.378 357.871C428.036 358.398 427.782 359.014 427.616 359.717C427.46 360.41 427.382 361.152 427.382 361.943ZM451.493 365.796C451.493 365.405 451.405 365.044 451.229 364.712C451.063 364.37 450.717 364.062 450.189 363.789C449.672 363.506 448.891 363.262 447.846 363.057C446.967 362.871 446.171 362.651 445.458 362.397C444.755 362.144 444.154 361.836 443.656 361.475C443.168 361.113 442.792 360.688 442.528 360.2C442.265 359.712 442.133 359.141 442.133 358.486C442.133 357.861 442.27 357.271 442.543 356.714C442.826 356.157 443.222 355.664 443.729 355.234C444.247 354.805 444.867 354.468 445.59 354.224C446.312 353.979 447.118 353.857 448.007 353.857C449.276 353.857 450.36 354.082 451.259 354.531C452.157 354.98 452.846 355.581 453.324 356.333C453.803 357.075 454.042 357.9 454.042 358.809H451.332C451.332 358.369 451.2 357.944 450.937 357.534C450.683 357.114 450.307 356.768 449.809 356.494C449.32 356.221 448.72 356.084 448.007 356.084C447.255 356.084 446.645 356.201 446.176 356.436C445.717 356.66 445.38 356.948 445.165 357.3C444.96 357.651 444.857 358.022 444.857 358.413C444.857 358.706 444.906 358.97 445.004 359.204C445.111 359.429 445.297 359.639 445.561 359.834C445.824 360.02 446.195 360.195 446.674 360.361C447.152 360.527 447.763 360.693 448.505 360.859C449.804 361.152 450.873 361.504 451.713 361.914C452.553 362.324 453.178 362.827 453.588 363.423C453.998 364.019 454.203 364.741 454.203 365.591C454.203 366.284 454.057 366.919 453.764 367.495C453.48 368.071 453.065 368.569 452.519 368.989C451.981 369.399 451.337 369.722 450.585 369.956C449.843 370.181 449.008 370.293 448.08 370.293C446.684 370.293 445.502 370.044 444.535 369.546C443.568 369.048 442.836 368.403 442.338 367.612C441.84 366.821 441.591 365.986 441.591 365.107H444.315C444.354 365.85 444.569 366.44 444.96 366.88C445.351 367.31 445.829 367.617 446.396 367.803C446.962 367.979 447.523 368.066 448.08 368.066C448.822 368.066 449.442 367.969 449.94 367.773C450.448 367.578 450.834 367.31 451.098 366.968C451.361 366.626 451.493 366.235 451.493 365.796ZM469.247 370H466.537V352.48C466.537 351.338 466.742 350.376 467.152 349.595C467.572 348.804 468.173 348.208 468.954 347.808C469.735 347.397 470.663 347.192 471.737 347.192C472.05 347.192 472.362 347.212 472.675 347.251C472.997 347.29 473.31 347.349 473.612 347.427L473.466 349.639C473.261 349.59 473.026 349.556 472.763 349.536C472.509 349.517 472.255 349.507 472.001 349.507C471.425 349.507 470.927 349.624 470.507 349.858C470.097 350.083 469.784 350.415 469.569 350.854C469.354 351.294 469.247 351.836 469.247 352.48V370ZM472.616 354.15V356.23H464.032V354.15H472.616ZM474.916 362.251V361.914C474.916 360.771 475.082 359.712 475.414 358.735C475.746 357.749 476.225 356.895 476.85 356.172C477.475 355.439 478.231 354.873 479.12 354.473C480.009 354.062 481.005 353.857 482.108 353.857C483.222 353.857 484.223 354.062 485.111 354.473C486.01 354.873 486.771 355.439 487.396 356.172C488.031 356.895 488.515 357.749 488.847 358.735C489.179 359.712 489.345 360.771 489.345 361.914V362.251C489.345 363.394 489.179 364.453 488.847 365.43C488.515 366.406 488.031 367.261 487.396 367.993C486.771 368.716 486.015 369.282 485.126 369.692C484.247 370.093 483.251 370.293 482.138 370.293C481.024 370.293 480.023 370.093 479.135 369.692C478.246 369.282 477.484 368.716 476.85 367.993C476.225 367.261 475.746 366.406 475.414 365.43C475.082 364.453 474.916 363.394 474.916 362.251ZM477.626 361.914V362.251C477.626 363.042 477.719 363.789 477.904 364.492C478.09 365.186 478.368 365.801 478.739 366.338C479.12 366.875 479.594 367.3 480.16 367.612C480.727 367.915 481.386 368.066 482.138 368.066C482.88 368.066 483.529 367.915 484.086 367.612C484.652 367.3 485.121 366.875 485.492 366.338C485.863 365.801 486.142 365.186 486.327 364.492C486.522 363.789 486.62 363.042 486.62 362.251V361.914C486.62 361.133 486.522 360.396 486.327 359.702C486.142 358.999 485.858 358.379 485.478 357.842C485.106 357.295 484.638 356.865 484.071 356.553C483.515 356.24 482.86 356.084 482.108 356.084C481.366 356.084 480.712 356.24 480.146 356.553C479.589 356.865 479.12 357.295 478.739 357.842C478.368 358.379 478.09 358.999 477.904 359.702C477.719 360.396 477.626 361.133 477.626 361.914ZM502.44 366.338V354.15H505.165V370H502.572L502.44 366.338ZM502.953 362.998L504.081 362.969C504.081 364.023 503.969 365 503.744 365.898C503.529 366.787 503.178 367.559 502.689 368.213C502.201 368.867 501.562 369.38 500.771 369.751C499.979 370.112 499.018 370.293 497.885 370.293C497.113 370.293 496.405 370.181 495.761 369.956C495.126 369.731 494.579 369.385 494.12 368.916C493.661 368.447 493.305 367.837 493.051 367.085C492.807 366.333 492.685 365.43 492.685 364.375V354.15H495.395V364.404C495.395 365.117 495.473 365.708 495.629 366.177C495.795 366.636 496.015 367.002 496.288 367.275C496.571 367.539 496.884 367.725 497.226 367.832C497.577 367.939 497.938 367.993 498.31 367.993C499.462 367.993 500.375 367.773 501.049 367.334C501.723 366.885 502.206 366.284 502.499 365.532C502.802 364.771 502.953 363.926 502.953 362.998ZM512.006 357.534V370H509.296V354.15H511.859L512.006 357.534ZM511.361 361.475L510.233 361.431C510.243 360.347 510.404 359.346 510.717 358.428C511.029 357.5 511.469 356.694 512.035 356.011C512.602 355.327 513.275 354.8 514.057 354.429C514.848 354.048 515.722 353.857 516.679 353.857C517.46 353.857 518.163 353.965 518.788 354.18C519.413 354.385 519.945 354.717 520.385 355.176C520.834 355.635 521.176 356.23 521.41 356.963C521.645 357.686 521.762 358.569 521.762 359.614V370H519.037V359.585C519.037 358.755 518.915 358.091 518.671 357.593C518.427 357.085 518.07 356.719 517.602 356.494C517.133 356.26 516.557 356.143 515.873 356.143C515.199 356.143 514.584 356.284 514.027 356.567C513.48 356.851 513.007 357.241 512.606 357.739C512.216 358.237 511.908 358.809 511.684 359.453C511.469 360.088 511.361 360.762 511.361 361.475ZM535.868 366.924V347.5H538.593V370H536.103L535.868 366.924ZM525.204 362.251V361.943C525.204 360.732 525.351 359.634 525.644 358.647C525.946 357.651 526.371 356.797 526.918 356.084C527.475 355.371 528.134 354.824 528.896 354.443C529.667 354.053 530.526 353.857 531.474 353.857C532.47 353.857 533.339 354.033 534.081 354.385C534.833 354.727 535.468 355.229 535.985 355.894C536.513 356.548 536.928 357.339 537.23 358.267C537.533 359.194 537.743 360.244 537.86 361.416V362.764C537.753 363.926 537.543 364.971 537.23 365.898C536.928 366.826 536.513 367.617 535.985 368.271C535.468 368.926 534.833 369.429 534.081 369.78C533.329 370.122 532.45 370.293 531.444 370.293C530.517 370.293 529.667 370.093 528.896 369.692C528.134 369.292 527.475 368.73 526.918 368.008C526.371 367.285 525.946 366.436 525.644 365.459C525.351 364.473 525.204 363.403 525.204 362.251ZM527.929 361.943V362.251C527.929 363.042 528.007 363.784 528.163 364.478C528.329 365.171 528.583 365.781 528.925 366.309C529.267 366.836 529.701 367.251 530.229 367.554C530.756 367.847 531.386 367.993 532.118 367.993C533.017 367.993 533.754 367.803 534.33 367.422C534.916 367.041 535.385 366.538 535.736 365.913C536.088 365.288 536.361 364.609 536.557 363.877V360.347C536.439 359.81 536.269 359.292 536.044 358.794C535.829 358.286 535.546 357.837 535.194 357.446C534.853 357.046 534.428 356.729 533.92 356.494C533.422 356.26 532.831 356.143 532.147 356.143C531.405 356.143 530.766 356.299 530.229 356.611C529.701 356.914 529.267 357.334 528.925 357.871C528.583 358.398 528.329 359.014 528.163 359.717C528.007 360.41 527.929 361.152 527.929 361.943Z" fill="#2E2E2E"/>
</g>
<defs>
<linearGradient id="paint0_linear_37_2971" x1="342.999" y1="106.237" x2="342.999" y2="296.834" gradientUnits="userSpaceOnUse">
<stop stop-color="#E5E5E5"/>
<stop offset="0.4764" stop-color="#F4F4F4"/>
<stop offset="1" stop-color="white"/>
</linearGradient>
<linearGradient id="paint1_linear_37_2971" x1="320.975" y1="73.5801" x2="331.296" y2="45.2915" gradientUnits="userSpaceOnUse">
<stop stop-color="#A50404"/>
<stop offset="1" stop-color="#E64D4E"/>
</linearGradient>
<linearGradient id="paint2_linear_37_2971" x1="273.875" y1="66.2381" x2="271.047" y2="46.8619" gradientUnits="userSpaceOnUse">
<stop stop-color="#A50404"/>
<stop offset="1" stop-color="#E64D4E"/>
</linearGradient>
<clipPath id="clip0_37_2971">
<rect width="686" height="404" fill="white"/>
</clipPath>
</defs>
</svg>
