<svg width="463" height="433" viewBox="0 0 463 433" fill="none" xmlns="http://www.w3.org/2000/svg">
<g opacity="0.06">
<path d="M208.052 243.398C217.385 237.567 225.838 230.455 233.163 222.302L259.57 237.552L283.614 195.905L257.26 180.688C260.611 170.459 262.582 159.608 262.951 148.36L292.933 143.074L284.579 95.7155L254.603 101.002C250.46 90.7346 244.903 81.1876 238.163 72.6078L257.758 49.2585L220.919 18.3496L201.341 41.6791C191.778 36.5548 181.423 32.7243 170.509 30.4258V0H122.421V30.4258C111.506 32.7243 101.151 36.5548 91.5872 41.6791L72.01 18.3496L35.1717 49.2596L54.7644 72.6089C48.0254 81.1887 42.4677 90.7368 38.325 101.003L8.34927 95.7166L0 143.075L29.9769 148.361C30.3463 159.61 32.3184 170.459 35.6691 180.692L9.31324 195.907L33.3585 237.553L59.7662 222.308C67.0887 230.458 75.5416 237.57 84.8758 243.402L74.4519 272.037L119.642 288.482L130.051 259.885C135.416 260.644 140.894 261.047 146.465 261.047C152.036 261.047 157.516 260.646 162.88 259.885L173.289 288.484L218.476 272.035L208.052 243.398ZM146.463 205.897C112.6 205.897 85.0512 178.349 85.0512 144.485C85.0512 110.624 112.6 83.0736 146.463 83.0736C180.326 83.0736 207.875 110.624 207.875 144.485C207.875 178.349 180.327 205.897 146.463 205.897Z" fill="#2E2E2E"/>
<path d="M414.755 279.503L394.025 286.209C390.072 279.339 385.186 273.119 379.56 267.703L391.146 249.213L361.976 230.938L350.397 249.412C343.114 246.723 335.395 245.03 327.428 244.481L324.422 222.908L290.328 227.661L293.333 249.233C285.823 251.939 278.857 255.682 272.585 260.258L256.402 245.651L233.338 271.204L249.533 285.828C245.605 292.576 242.61 299.892 240.688 307.584L218.911 306.797L217.666 341.195L239.441 341.985C240.816 349.924 243.286 357.416 246.674 364.343L229.493 377.736L250.653 404.885L267.869 391.469C273.866 396.522 280.565 400.729 287.756 403.944L283.192 425.279L316.856 432.47L321.414 411.168C325.292 411.179 329.214 410.916 333.163 410.366C337.114 409.817 340.961 408.988 344.685 407.923L354.894 427.171L385.307 411.043L375.087 391.773C381.131 386.715 386.415 380.834 390.806 374.333L411.032 382.535L423.966 350.633L403.779 342.447C405.14 334.865 405.465 326.976 404.621 318.962L425.356 312.252L414.755 279.503ZM327.72 371.267C303.708 374.61 281.452 357.801 278.109 333.792C274.76 309.783 291.573 287.525 315.584 284.183C339.593 280.835 361.843 297.647 365.194 321.659C368.535 345.667 351.728 367.918 327.72 371.267Z" fill="#2E2E2E"/>
<path d="M461.194 160.208L462.001 133.044L444.811 132.533C443.733 126.547 441.808 120.618 438.982 114.918L452.482 104.253L435.639 82.933L422.141 93.594C417.327 89.5937 412.002 86.3323 406.349 83.8705L409.839 67.0054L383.233 61.4951L379.736 78.3492C373.605 78.358 367.432 79.2282 361.382 81.0095L353.23 65.8694L329.302 78.7562L337.454 93.8985C332.642 97.9639 328.512 102.649 325.127 107.758L309.139 101.394L299.09 126.644L315.092 133.018C314.038 139.093 313.833 145.324 314.525 151.546L298.191 156.948L306.719 182.751L323.053 177.351C326.251 182.851 330.14 187.715 334.552 191.911L325.518 206.545L348.639 220.824L357.693 206.164C363.522 208.255 369.636 209.529 375.84 209.929L378.323 226.973L405.217 223.045L402.739 206.022C405.609 204.967 408.442 203.696 411.214 202.203C413.989 200.712 416.609 199.041 419.071 197.229L431.918 208.667L449.992 188.375L437.136 176.924C440.218 171.519 442.513 165.713 443.977 159.697L461.194 160.208ZM396.44 174.764C379.586 183.838 358.495 177.513 349.425 160.665C340.348 143.815 346.675 122.719 363.529 113.65C380.374 104.574 401.464 110.904 410.542 127.753C419.61 144.604 413.288 165.689 396.44 174.764Z" fill="#2E2E2E"/>
</g>
</svg>
