<svg width="21" height="17" viewBox="0 0 21 17" fill="none" xmlns="http://www.w3.org/2000/svg">
<path d="M9.45693 9.56468C9.88116 9.34058 10.2654 9.06726 10.5983 8.75393L11.7986 9.33998L12.8915 7.73941L11.6936 7.15463C11.846 6.76148 11.9355 6.34446 11.9523 5.91219L13.3151 5.70902L12.9354 3.88897L11.5729 4.09213C11.3846 3.69754 11.1319 3.33063 10.8256 3.0009L11.7163 2.10354L10.0418 0.915659L9.15187 1.81225C8.71721 1.61532 8.2465 1.4681 7.75043 1.37977V0.210449H5.5646V1.37977C5.06847 1.4681 4.59777 1.61532 4.16306 1.81225L3.27318 0.915659L1.59872 2.10358L2.48929 3.00094C2.18297 3.33067 1.93035 3.69763 1.74205 4.09218L0.379512 3.88901L0 5.70907L1.36259 5.91223C1.37938 6.34455 1.46902 6.76148 1.62133 7.15475L0.423329 7.7395L1.5163 9.34002L2.71665 8.75414C3.04949 9.06734 3.43371 9.3407 3.85799 9.56481L3.38418 10.6653L5.43826 11.2973L5.91142 10.1983C6.15527 10.2275 6.40428 10.2429 6.65751 10.2429C6.91074 10.2429 7.1598 10.2275 7.40365 10.1983L7.87676 11.2974L9.93074 10.6652L9.45693 9.56468ZM6.65741 8.12345C5.1182 8.12345 3.86596 7.06472 3.86596 5.76328C3.86596 4.46193 5.1182 3.40312 6.65741 3.40312C8.19662 3.40312 9.44886 4.46193 9.44886 5.76328C9.44886 7.06472 8.19667 8.12345 6.65741 8.12345Z" fill="white"/>
<path d="M18.8531 10.9522L17.9109 11.2099C17.7312 10.9458 17.5091 10.7068 17.2534 10.4986L17.78 9.78805L16.4541 9.08568L15.9278 9.79568C15.5967 9.69234 15.2459 9.62728 14.8837 9.60617L14.7471 8.7771L13.1973 8.95975L13.334 9.78882C12.9926 9.89279 12.676 10.0367 12.3908 10.2125L11.6553 9.65114L10.6069 10.6332L11.343 11.1952C11.1645 11.4545 11.0284 11.7357 10.941 12.0314L9.95113 12.0011L9.89453 13.3231L10.8843 13.3534C10.9468 13.6585 11.0591 13.9465 11.2131 14.2127L10.4321 14.7274L11.3939 15.7708L12.1765 15.2552C12.4491 15.4494 12.7536 15.6111 13.0804 15.7346L12.873 16.5546L14.4032 16.831L14.6104 16.0123C14.7866 16.0127 14.9649 16.0026 15.1444 15.9815C15.324 15.9603 15.4988 15.9285 15.6681 15.8876L16.1322 16.6273L17.5146 16.0074L17.05 15.2669C17.3248 15.0725 17.5649 14.8465 17.7645 14.5966L18.6839 14.9118L19.2718 13.6858L18.3542 13.3712C18.4161 13.0798 18.4309 12.7766 18.3925 12.4686L19.335 12.2107L18.8531 10.9522ZM14.897 14.4788C13.8055 14.6073 12.7939 13.9613 12.642 13.0386C12.4897 12.1158 13.2539 11.2604 14.3454 11.132C15.4367 11.0033 16.448 11.6494 16.6004 12.5723C16.7522 13.4949 15.9882 14.3501 14.897 14.4788Z" fill="white"/>
<path d="M20.9639 6.36746L21.0006 5.32348L20.2192 5.30386C20.1702 5.07378 20.0827 4.84594 19.9543 4.62688L20.5679 4.21699L19.8023 3.39763L19.1888 3.80735C18.9699 3.65361 18.7279 3.52827 18.471 3.43366L18.6296 2.7855L17.4202 2.57373L17.2613 3.22146C16.9826 3.2218 16.702 3.25524 16.427 3.3237L16.0565 2.74184L14.9688 3.2371L15.3393 3.81905C15.1206 3.97529 14.9329 4.15535 14.7791 4.3517L14.0523 4.10712L13.5955 5.07751L14.3229 5.32247C14.275 5.55594 14.2657 5.79543 14.2971 6.03454L13.5547 6.24216L13.9423 7.23383L14.6848 7.0263C14.8301 7.23764 15.0069 7.42457 15.2074 7.58586L14.7968 8.14826L15.8478 8.69702L16.2593 8.1336C16.5243 8.21397 16.8022 8.26292 17.0842 8.27831L17.1971 8.93333L18.4195 8.78239L18.3069 8.12817C18.4373 8.08761 18.5661 8.03878 18.6921 7.98138C18.8182 7.92407 18.9373 7.85986 19.0492 7.79021L19.6332 8.22982L20.4547 7.44996L19.8703 7.00985C20.0105 6.80215 20.1147 6.57902 20.1813 6.34779L20.9639 6.36746ZM18.0206 6.92685C17.2545 7.27558 16.2958 7.03248 15.8835 6.38501C15.4709 5.73745 15.7585 4.92669 16.5246 4.57813C17.2903 4.22932 18.2489 4.47259 18.6615 5.12015C19.0737 5.76775 18.7863 6.57808 18.0206 6.92685Z" fill="white"/>
</svg>
