<svg width="64" height="64" viewBox="0 0 64 64" fill="none" xmlns="http://www.w3.org/2000/svg">
<rect opacity="0.12" width="64" height="64" rx="4" fill="#F2994A"/>
<path d="M38.918 45.6172H24.1523C23.4633 45.6172 22.9219 46.1586 22.9219 46.8477C22.9219 47.5367 23.4633 48.0781 24.1523 48.0781H25.3828V49.3086C25.3828 51.3512 27.0316 53 29.0742 53H33.9961C36.0387 53 37.6875 51.3512 37.6875 49.3086V48.0781H38.918C39.607 48.0781 40.1484 47.5367 40.1484 46.8477C40.1484 46.1586 39.607 45.6172 38.918 45.6172Z" fill="#F2994A"/>
<path d="M45.0703 24.5352C45.0703 17.0785 38.9918 11 31.5352 11C24.0785 11 18 17.0785 18 24.5352C18 28.6449 19.9934 31.3027 21.9375 33.8867C23.4879 35.9293 24.9398 37.8981 25.309 40.5313H24.1523C23.4633 40.5313 22.9219 41.0727 22.9219 41.7617C22.9219 42.4508 23.4633 42.9922 24.1523 42.9922H38.918C39.607 42.9922 40.1484 42.4508 40.1484 41.7617C40.1484 41.0727 39.607 40.5313 38.918 40.5313H37.7613C38.1305 37.8981 39.5824 35.9293 41.1328 33.8867C43.077 31.3027 45.0703 28.6449 45.0703 24.5352ZM29.1102 29.159L31.5712 19.3153C31.737 18.6556 32.3931 18.2482 33.0636 18.4201C33.7245 18.5847 34.1234 19.2528 33.96 19.9113L31.4991 29.7551C31.3346 30.4159 30.6647 30.8148 30.0067 30.6503C29.3458 30.4856 28.9468 29.8176 29.1102 29.159ZM23.2824 25.4051C22.8018 24.9245 22.8018 24.1458 23.2824 23.6651L25.7433 21.2042C26.224 20.7236 27.0027 20.7236 27.4833 21.2042C27.9639 21.6848 27.9639 22.4635 27.4833 22.9442L25.8923 24.5352L27.4833 26.1262C27.9639 26.6068 27.9639 27.3855 27.4833 27.8661C27.0027 28.3467 26.224 28.3467 25.7433 27.8661L23.2824 25.4051ZM39.7879 23.6652C40.2685 24.1458 40.2685 24.9246 39.7879 25.4052L37.327 27.8661C36.8464 28.3467 36.0677 28.3467 35.587 27.8661C35.1064 27.3855 35.1064 26.6068 35.587 26.1262L37.178 24.5352L35.587 22.9442C35.1064 22.4635 35.1064 21.6848 35.587 21.2042C36.0676 20.7236 36.8464 20.7236 37.327 21.2042L39.7879 23.6652Z" fill="#F2994A"/>
</svg>
