<svg width="25" height="25" viewBox="0 0 25 25" fill="none" xmlns="http://www.w3.org/2000/svg">
<path d="M1.33812 6.2196H6.84669C7.0017 6.2196 7.15519 6.25014 7.2984 6.30946C7.44161 6.36878 7.57173 6.45572 7.68134 6.56533C7.79095 6.67494 7.87789 6.80506 7.93721 6.94827C7.99653 7.09148 8.02706 7.24497 8.02706 7.39998V11.728C8.02706 12.0411 7.9027 12.3413 7.68133 12.5627C7.45996 12.784 7.15972 12.9084 6.84666 12.9084H1.33809C1.02504 12.9084 0.724802 12.7841 0.503439 12.5627C0.282076 12.3413 0.157715 12.0411 0.157715 11.728V7.40001C0.157715 7.245 0.188247 7.0915 0.247568 6.94829C0.306889 6.80508 0.393836 6.67495 0.503447 6.56534C0.613058 6.45573 0.743185 6.36878 0.886398 6.30946C1.02961 6.25014 1.18311 6.21961 1.33812 6.21961V6.2196Z" fill="white"/>
<path d="M12.7487 4.64556C13.8351 4.64556 14.7159 3.76482 14.7159 2.67837C14.7159 1.59192 13.8351 0.711182 12.7487 0.711182C11.6622 0.711182 10.7815 1.59192 10.7815 2.67837C10.7815 3.76482 11.6622 4.64556 12.7487 4.64556Z" fill="white"/>
<path d="M4.48657 14.03C4.48668 14.6409 4.72691 15.2273 5.15545 15.6626H11.5515V14.0279C11.5515 13.924 11.5102 13.8244 11.4368 13.7509C11.3633 13.6774 11.2637 13.6362 11.1598 13.6362H4.87831C4.7742 13.6367 4.67453 13.6784 4.6011 13.7522C4.52768 13.826 4.4865 13.9259 4.48657 14.03Z" fill="white"/>
<path d="M24.0538 20.1307C23.862 19.4214 23.4317 18.7998 22.8355 18.3703C22.2392 17.9408 21.5133 17.7298 20.7797 17.7726C20.8413 17.5427 20.8731 17.3059 20.8742 17.068C20.8668 16.6907 20.7679 16.3209 20.5861 15.9903C20.4042 15.6597 20.1449 15.3781 19.8302 15.1699C18.9853 14.6094 18.3536 13.1841 18.2581 11.6848H19.0116C19.3231 11.6849 19.622 11.5615 19.8426 11.3415C20.0633 11.1216 20.1877 10.8231 20.1885 10.5115V9.7302C20.1877 9.41867 20.0633 9.12021 19.8426 8.90029C19.622 8.68037 19.3231 8.55695 19.0116 8.55712H16.3207C14.0457 7.90195 13.3612 7.14738 12.9522 6.6953C12.9438 6.68608 12.9355 6.67686 12.9274 6.66783C12.9683 6.36619 12.9137 6.05933 12.7713 5.79028C12.6289 5.52123 12.4059 5.30349 12.1336 5.16757C11.9391 5.07476 11.7262 5.02702 11.5108 5.02791C11.2953 5.02879 11.0828 5.07829 10.8892 5.17271C10.6955 5.26713 10.5256 5.40403 10.3922 5.57322C10.2588 5.74241 10.1653 5.93952 10.1186 6.14988L8.98969 11.544C8.95642 11.7042 8.95703 11.8696 8.99148 12.0296C9.02593 12.1896 9.09346 12.3406 9.18973 12.4729C9.286 12.6052 9.40889 12.716 9.55049 12.798C9.6921 12.88 9.84929 12.9315 10.012 12.9492L11.9463 13.1632C12.046 13.1737 12.1378 13.2222 12.2028 13.2985C12.2678 13.3749 12.301 13.4732 12.2955 13.5734L11.9907 18.7297C11.6743 18.4532 11.4494 18.0871 11.3456 17.68C11.2419 17.2728 11.2642 16.8438 11.4096 16.4496H5.39574C4.76138 17.5003 3.74601 19.4706 4.15684 20.7522C4.23343 20.9934 4.36652 21.2129 4.54504 21.3923C4.72355 21.5716 4.94233 21.7058 5.18316 21.7835C5.36002 21.8376 5.54552 21.8578 5.72987 21.8429C5.77453 22.4793 6.05883 23.075 6.52544 23.5101C6.99206 23.9451 7.60627 24.187 8.2442 24.1869C8.88214 24.1869 9.49634 23.945 9.96294 23.51C10.4295 23.075 10.7138 22.4792 10.7585 21.8428L17.5019 21.8427C17.5674 21.8391 17.6316 21.8226 17.6907 21.794C17.7498 21.7654 17.8026 21.7254 17.8462 21.6763C17.8939 21.9087 17.9716 22.134 18.0771 22.3465C18.1067 22.4083 18.1519 22.4614 18.2084 22.5003C18.2649 22.5392 18.3306 22.5626 18.3989 22.5681C18.4673 22.5737 18.5359 22.5612 18.5979 22.5319C18.6599 22.5026 18.7131 22.4575 18.7522 22.4012C18.7979 22.3355 18.8477 22.2713 18.9 22.208C18.9523 22.5478 19.0736 22.8732 19.2565 23.1643C19.4393 23.4553 19.6798 23.7059 19.9631 23.9005C20.2465 24.0951 20.5667 24.2296 20.904 24.2958C21.2413 24.362 21.5886 24.3584 21.9244 24.2853C22.2603 24.2122 22.5776 24.0711 22.8569 23.8707C23.1362 23.6703 23.3715 23.4149 23.5483 23.1201C23.7251 22.8253 23.8397 22.4975 23.885 22.1567C23.9304 21.816 23.9054 21.4696 23.8118 21.1389C23.9133 21.1278 24.0063 21.0772 24.0707 20.998C24.1351 20.9189 24.1657 20.8175 24.1559 20.7159C24.1409 20.518 24.1068 20.322 24.0538 20.1307ZM8.24406 23.4035C7.81423 23.4035 7.39972 23.2438 7.08098 22.9554C6.76223 22.6671 6.56198 22.2706 6.51906 21.8429L9.96925 21.8428C9.9263 22.2706 9.72601 22.6671 9.40723 22.9554C9.08845 23.2438 8.67392 23.4035 8.24406 23.4035ZM15.8717 19.1058H14.3432L15.0191 12.7165C15.0461 12.4577 14.9863 12.1973 14.8492 11.9762C14.712 11.7551 14.5052 11.5859 14.2614 11.4952L12.3334 10.7757C12.2448 10.7428 12.1711 10.6789 12.1261 10.5958C12.0811 10.5127 12.0678 10.416 12.0886 10.3239L12.382 9.05895C13.385 9.85867 14.5959 10.3546 15.8717 10.488V19.1058ZM21.6104 23.5197C21.3494 23.5541 21.084 23.5286 20.8342 23.4452C20.5845 23.3618 20.357 23.2228 20.169 23.0385C19.9809 22.8543 19.8372 22.6296 19.7488 22.3817C19.6603 22.1337 19.6295 21.8688 19.6585 21.6072L19.7783 21.458C20.6793 20.8995 21.7528 20.6883 22.7982 20.864L22.8911 20.9357C23.034 21.1829 23.1135 21.4615 23.1227 21.7468C23.1318 22.0321 23.0702 22.3153 22.9435 22.571C22.8167 22.8268 22.6287 23.0473 22.3961 23.2128C22.1635 23.3783 21.8936 23.4837 21.6104 23.5197Z" fill="white"/>
</svg>
