<svg width="22" height="22" viewBox="0 0 22 22" fill="none" xmlns="http://www.w3.org/2000/svg">
<path d="M16.6379 8.21097H12.2229C12.6218 8.21097 12.9462 7.88656 12.9462 7.48706C12.9462 7.08756 12.6212 6.7655 12.2229 6.7655H10.4173C10.0183 6.7655 9.69453 7.08756 9.69453 7.48706C9.69453 7.88656 10.0189 8.21097 10.4173 8.21097H6.00167C4.77327 8.21097 3.75604 9.31208 3.55835 10.4842H19.083C18.8841 9.31149 17.8669 8.21097 16.6379 8.21097Z" fill="white"/>
<path d="M19.1192 11.7249V11.5184H3.55819H3.52182H0.930664V12.5521H3.52182V18.9569C3.52182 20.3285 4.6329 21.4378 6.0021 21.4378H16.6389C18.0093 21.4378 19.1198 20.3285 19.1198 18.9569V12.7586H21.6007V11.7249H19.1192Z" fill="white"/>
<path d="M7.52377 3.25272C7.59592 3.34776 7.67277 3.43927 7.75314 3.52551L7.95318 3.72614C8.07989 3.85343 8.19781 3.98073 8.29167 4.09513C8.3386 4.15262 8.37732 4.20717 8.40606 4.25235C8.43363 4.29693 8.45886 4.33154 8.46473 4.38316C8.47177 4.43831 8.44302 4.51281 8.3867 4.58731C8.33039 4.66064 8.25178 4.73162 8.15968 4.80261C8.26879 4.84484 8.38788 4.85892 8.51459 4.84367C8.64072 4.829 8.77916 4.77269 8.89473 4.65243C9.00912 4.53217 9.07306 4.35442 9.08304 4.19779C9.09418 4.0394 9.07013 3.89626 9.03435 3.7672C8.96219 3.51025 8.84252 3.302 8.71463 3.11076C8.65069 3.0169 8.57149 2.92186 8.51518 2.84853C8.45886 2.78224 8.40665 2.71419 8.35913 2.64673C8.16554 2.37747 8.03003 2.1346 7.97958 1.8495C7.92678 1.56087 7.98545 1.19188 8.15968 0.768921C7.70738 0.863955 7.30495 1.24233 7.17355 1.77148C7.10843 2.03253 7.12251 2.31939 7.19232 2.57106C7.26154 2.828 7.38415 3.05444 7.52377 3.25272Z" fill="white"/>
<path d="M10.2049 3.25277C10.2771 3.34781 10.3545 3.43932 10.4343 3.52555L10.6337 3.72618C10.7605 3.85348 10.8778 3.98078 10.974 4.09518C11.0192 4.15267 11.0579 4.20722 11.0872 4.25239C11.116 4.29698 11.14 4.33159 11.1447 4.38321C11.1523 4.43836 11.1242 4.51286 11.0679 4.58736C11.0121 4.66069 10.9329 4.73167 10.8397 4.80265C10.9499 4.84489 11.0696 4.85897 11.1957 4.84372C11.3213 4.82905 11.4615 4.77274 11.5759 4.65248C11.6914 4.53222 11.7542 4.35447 11.7648 4.19784C11.7759 4.03945 11.7525 3.89631 11.7167 3.76725C11.6433 3.5103 11.5231 3.30205 11.3952 3.11081C11.3324 3.01694 11.2526 2.92191 11.1963 2.84858C11.1412 2.78229 11.0878 2.71424 11.0415 2.64678C10.8473 2.37751 10.7112 2.13465 10.6607 1.84955C10.6079 1.5621 10.6654 1.1931 10.8391 0.770142C10.3874 0.865176 9.98552 1.24355 9.8547 1.7727C9.78958 2.03375 9.80307 2.32061 9.87288 2.57228C9.94328 2.82805 10.0635 3.05449 10.2049 3.25277Z" fill="white"/>
<path d="M12.6469 3.25272C12.7185 3.34776 12.7953 3.43927 12.8757 3.52551L13.0757 3.72614C13.2025 3.85343 13.3192 3.98073 13.4142 4.09513C13.4612 4.15262 13.4999 4.20717 13.5286 4.25235C13.5562 4.29693 13.5802 4.33154 13.5873 4.38316C13.5949 4.43831 13.5656 4.51281 13.5093 4.58731C13.4535 4.66064 13.3743 4.73162 13.2811 4.80261C13.3913 4.84484 13.511 4.85892 13.636 4.84367C13.7621 4.829 13.9017 4.77269 14.0173 4.65243C14.1317 4.53217 14.195 4.35442 14.205 4.19779C14.2167 4.0394 14.1927 3.89626 14.1569 3.7672C14.0847 3.51025 13.9657 3.302 13.8372 3.11076C13.7732 3.0169 13.6941 2.92186 13.6377 2.84853C13.5814 2.78224 13.5286 2.71419 13.4817 2.64673C13.2881 2.37747 13.1526 2.1346 13.1027 1.8495C13.0493 1.56087 13.108 1.19188 13.2811 0.768921C12.8294 0.863955 12.4263 1.24233 12.2961 1.77148C12.2316 2.03253 12.2451 2.31939 12.3149 2.57106C12.3841 2.828 12.5055 3.05444 12.6469 3.25272Z" fill="white"/>
</svg>
