<svg width="26" height="20" viewBox="0 0 26 20" fill="none" xmlns="http://www.w3.org/2000/svg">
<path d="M3.71237 4.29669C4.14382 4.29669 4.49358 3.94692 4.49358 3.51547C4.49358 3.08402 4.14382 2.73425 3.71237 2.73425C3.28091 2.73425 2.93115 3.08402 2.93115 3.51547C2.93115 3.94692 3.28091 4.29669 3.71237 4.29669Z" fill="white"/>
<path d="M6.44674 1.56243C6.8782 1.56243 7.22796 1.21267 7.22796 0.781216C7.22796 0.349762 6.8782 0 6.44674 0C6.01529 0 5.66553 0.349762 5.66553 0.781216C5.66553 1.21267 6.01529 1.56243 6.44674 1.56243Z" fill="white"/>
<path d="M25.0721 4.73698L24.9805 4.55403C24.8456 4.28297 24.6108 4.0748 24.3255 3.97331C24.0402 3.87181 23.7266 3.8849 23.4508 4.00982L17.6121 6.67572L17.617 6.68675C17.4348 6.7353 17.2646 6.82104 17.1171 6.93858C16.9696 7.05612 16.8481 7.20291 16.7601 7.36971C16.6722 7.53652 16.6197 7.71972 16.606 7.9078C16.5923 8.09588 16.6177 8.28476 16.6805 8.46256L16.5656 8.53916C15.0329 7.7726 11.3157 8.39059 7.84262 9.59869C7.63856 9.66965 7.43511 9.74279 7.23229 9.81811C6.84847 8.39615 7.84174 7.36119 7.89579 7.30636L7.34239 6.75501C6.96389 7.16433 6.68077 7.65242 6.51338 8.1842C6.31573 8.80709 6.31027 9.47507 6.4977 10.1011C5.87273 10.3507 5.27217 10.6145 4.70388 10.8886C4.38871 9.71865 4.36073 8.51148 4.40365 7.63915C4.41249 7.46285 4.38596 7.28657 4.32562 7.12068C4.26528 6.95479 4.17235 6.80265 4.05231 6.67323C3.93226 6.54381 3.78753 6.43973 3.62664 6.3671C3.46575 6.29448 3.29195 6.25479 3.11549 6.25037C2.93902 6.24595 2.76345 6.2769 2.59913 6.34138C2.4348 6.40586 2.28505 6.50257 2.15868 6.62582C2.03231 6.74907 1.93188 6.89636 1.86331 7.05903C1.79474 7.22169 1.75942 7.39642 1.75943 7.57295V10.3355C1.75931 10.3915 1.73702 10.4451 1.69744 10.4846C1.65785 10.5242 1.60421 10.5464 1.54826 10.5465C1.41745 10.5464 1.28792 10.5722 1.16712 10.6224C1.04633 10.6726 0.93666 10.7462 0.844421 10.839C0.752183 10.9317 0.679198 11.0418 0.629668 11.1629C0.580138 11.284 0.555041 11.4136 0.55582 11.5445C0.573137 12.1782 0.686075 12.8058 0.890815 13.4058C0.293136 14.0457 0.0793753 14.6257 0.255588 15.1324C0.911761 17.019 2.41941 18.4777 4.50077 19.2397C5.52385 19.6093 6.60396 19.7961 7.69174 19.7915C8.87957 19.7874 10.0583 19.5844 11.1791 19.1909C13.432 18.4073 15.3026 16.9491 16.4463 15.085C17.6055 13.1958 17.8825 11.1163 17.2263 9.22981C17.2136 9.19388 17.1989 9.15868 17.1824 9.12434C17.347 9.24092 17.5355 9.31946 17.7342 9.3543C17.9329 9.38914 18.1369 9.37941 18.3314 9.3258L18.3361 9.33527L18.3944 9.30686C18.5128 9.26809 18.6254 9.21327 18.7289 9.14392L24.5315 6.31734C24.6716 6.25002 24.7969 6.1555 24.9001 6.03928C25.0033 5.92307 25.0824 5.78748 25.1327 5.64042C25.183 5.49335 25.2036 5.33774 25.1932 5.18266C25.1828 5.02757 25.1416 4.87611 25.0721 4.73708L25.0721 4.73698ZM0.993496 14.8758C0.939446 14.7204 1.0289 14.4835 1.23724 14.2055C1.46782 14.6436 1.78293 15.0316 2.16434 15.3472C1.99261 15.3311 1.82217 15.3034 1.65421 15.2642C1.28426 15.1744 1.04969 15.0366 0.993643 14.876V14.8757L0.993496 14.8758ZM14.9891 10.5919C14.9068 11.292 14.7697 11.4363 14.7639 11.4421L14.7715 11.4496C14.4481 11.6698 14.0934 11.8895 13.7119 12.1062C13.9668 11.6017 14.1352 11.0579 14.2101 10.4976C14.2229 10.403 14.2697 10.3163 14.3415 10.2535C14.4134 10.1906 14.5056 10.1559 14.6011 10.1558C14.6563 10.1558 14.7108 10.1675 14.7611 10.1901C14.8114 10.2126 14.8564 10.2456 14.893 10.2868C14.9297 10.328 14.9572 10.3765 14.9738 10.429C14.9903 10.4816 14.9956 10.5371 14.9892 10.5919L14.9891 10.5919ZM7.31852 11.5777L7.91869 11.0776C7.77684 10.9086 7.64945 10.728 7.53784 10.5377C7.72421 10.4689 7.91185 10.4016 8.09934 10.3364C10.2355 9.59337 12.3179 9.122 13.9625 9.00921C14.7277 8.95677 15.3728 8.98734 15.8276 9.09773C16.1978 9.18748 16.4324 9.32546 16.4883 9.48624C16.5442 9.64703 16.4458 9.90078 16.2113 10.2009C16.0756 10.3703 15.9266 10.5285 15.7656 10.6741C15.7986 10.3673 15.7094 10.0599 15.5174 9.81835C15.3253 9.57682 15.0459 9.42065 14.7395 9.38364C14.4332 9.34664 14.1246 9.43178 13.8806 9.62064C13.6365 9.80949 13.4767 10.0869 13.4357 10.3927C13.2373 11.8531 12.3739 12.7042 12.1331 12.9161C11.2354 13.3318 10.3174 13.7021 9.38249 14.0256C8.984 14.1642 8.58825 14.2932 8.19524 14.4124C6.65199 14.1146 5.56083 13.182 4.94982 11.6368C5.53241 11.3526 6.15289 11.0794 6.7995 10.8214C6.94734 11.0899 7.12116 11.3432 7.31847 11.5778L7.31852 11.5777ZM1.39812 11.3901C1.41774 11.3702 1.44112 11.3545 1.4669 11.3437C1.49268 11.333 1.52034 11.3276 1.54826 11.3277C1.81136 11.3274 2.06361 11.2227 2.24965 11.0367C2.4357 10.8506 2.54035 10.5984 2.54065 10.3353V7.57295C2.54074 7.42923 2.59787 7.29144 2.69949 7.18982C2.8011 7.0882 2.9389 7.03107 3.08262 7.03098C3.15609 7.03101 3.22879 7.04599 3.29629 7.07499C3.3638 7.104 3.4247 7.14643 3.4753 7.1997C3.5259 7.25297 3.56514 7.31597 3.59063 7.38488C3.61613 7.45378 3.62735 7.52716 3.62361 7.60053C3.56775 8.7354 3.6258 10.405 4.21963 11.9139C4.56165 12.783 5.04542 13.4982 5.65741 14.0395C6.00592 14.3468 6.39818 14.6007 6.82132 14.7928C5.94911 15.0154 5.06355 15.182 4.17007 15.2916C4.03126 15.3077 3.77677 15.2391 3.77677 15.2391C2.90435 15.0937 2.24178 14.5425 1.80743 13.6009C1.51745 12.9511 1.35767 12.2508 1.33713 11.5396C1.33686 11.5119 1.34211 11.4844 1.35258 11.4587C1.36305 11.433 1.37853 11.4097 1.39812 11.3901ZM17.8995 8.58882L17.991 8.52784C18.0342 8.49963 18.0714 8.46313 18.1005 8.42045C18.1295 8.37778 18.1498 8.32977 18.1602 8.2792C18.1706 8.22863 18.1708 8.17651 18.1609 8.12585C18.151 8.07518 18.1312 8.02698 18.1026 7.98403C18.0739 7.94108 18.0371 7.90423 17.9941 7.87562C17.9511 7.847 17.9029 7.82718 17.8523 7.81731C17.8016 7.80744 17.7495 7.80771 17.6989 7.8181C17.6483 7.82849 17.6003 7.84881 17.5577 7.87786L17.3844 7.99334C17.3867 7.89444 17.414 7.79773 17.4637 7.71223C17.5134 7.62672 17.584 7.55521 17.6689 7.50436C17.7537 7.45351 17.8501 7.42499 17.9489 7.42145C18.0478 7.41791 18.1459 7.43946 18.2342 7.48411C18.3225 7.52875 18.398 7.59503 18.4537 7.67676C18.5095 7.75849 18.5436 7.853 18.5529 7.95148C18.5622 8.04996 18.5465 8.1492 18.5071 8.23993C18.4677 8.33067 18.4059 8.40995 18.3276 8.47037L18.1128 8.5751C18.0433 8.59344 17.9709 8.59811 17.8997 8.58887L17.8995 8.58882Z" fill="white"/>
<path d="M5.27441 5.07794H6.05563V5.85916H5.27441V5.07794Z" fill="white"/>
<path d="M4.88428 8.59338H5.66549V9.3746H4.88428V8.59338Z" fill="white"/>
<path d="M7.22754 12.1088H8.00876V12.89H7.22754V12.1088Z" fill="white"/>
<path d="M0.978516 4.68726H1.75973V5.46847H0.978516V4.68726Z" fill="white"/>
<path d="M4.27694 15.1681L4.71028 14.5181C3.75563 13.8817 3.71349 13.2953 3.71237 13.2707C3.71271 13.2773 3.71237 13.2807 3.71237 13.2807H2.93115C2.93115 13.3821 2.96889 14.2963 4.27694 15.1681Z" fill="white"/>
<path d="M7.61911 4.68736C7.61911 4.28904 7.7962 3.81103 8.13124 3.30505C8.2926 3.06095 8.47518 2.83157 8.67687 2.61958L8.40032 2.34371L8.12411 2.0675C8.07163 2.12004 6.83789 3.36906 6.83789 4.68736H7.61911Z" fill="white"/>
</svg>
