<svg width="22" height="21" viewBox="0 0 22 21" fill="none" xmlns="http://www.w3.org/2000/svg">
<path d="M13.65 3.64401L14.8654 4.13391C14.9805 4.18032 15.1044 4.09166 15.1044 3.96297V0.366518C15.1044 0.164108 14.9471 0 14.7531 0H12.2937C12.0997 0 11.9424 0.164108 11.9424 0.366518V3.96293C11.9424 4.09166 12.0663 4.18027 12.1814 4.13386L13.3968 3.64396C13.4782 3.61107 13.5685 3.61107 13.65 3.64401Z" fill="#fff"/>
<path d="M18.4427 0H16.1588C15.9648 0 15.8075 0.164108 15.8075 0.366518V4.75644C15.8075 5.03696 15.549 5.19529 15.3295 5.1066L13.6504 4.42982C13.569 4.39697 13.4787 4.39697 13.3972 4.42982L11.7181 5.1066C11.4988 5.19493 11.2401 5.03801 11.2401 4.75552V0.366518C11.2401 0.164108 11.0828 0 10.8888 0H8.60528C8.02382 0 7.55127 0.493424 7.55127 1.09955V7.8481C7.55127 8.0906 7.77204 8.26268 7.99685 8.20106C8.70826 8.00603 9.48138 8.10755 10.1296 8.50229C14.3356 11.0643 14.2313 10.9608 14.5783 11.328C14.6874 11.4435 14.8576 11.4678 14.9941 11.3902C18.0571 9.65105 18.5863 9.27601 19.1765 9.21723C19.3576 9.19922 19.4967 9.04217 19.4967 8.85236V1.09955C19.4967 0.493791 19.0238 0 18.4427 0Z" fill="#fff"/>
<path d="M5.05046 10.9956V18.6008C5.05046 19.6115 4.26259 20.4334 3.29378 20.4334H1.75668C0.787871 20.4334 0 19.6115 0 18.6008V10.9956C0 9.98492 0.787871 9.163 1.75668 9.163H3.29378C4.26259 9.163 5.05046 9.98492 5.05046 10.9956ZM20.7842 10.6873C20.3107 9.96293 19.3968 9.73156 18.6573 10.1489L15.4002 11.9942C15.2494 12.0796 15.1788 12.2664 15.2358 12.4352C15.9959 14.6879 13.9043 16.9852 11.6433 16.1466L8.6174 15.0237C8.43427 14.9559 8.33897 14.746 8.40396 14.5554C8.46852 14.3658 8.66834 14.2659 8.8506 14.3319C8.85161 14.3324 11.8781 15.4557 11.8791 15.4562C13.5007 16.0573 15.0813 14.4898 14.5998 12.7691C14.5998 12.7467 14.5183 12.5294 14.5067 12.5025C14.5067 12.5025 14.3757 12.1643 14.0974 11.8643C13.8328 11.5729 13.9797 11.6971 9.77461 9.13556C9.13255 8.74476 8.3315 8.73743 7.68328 9.11723L5.89345 10.1662C5.76595 10.2409 5.69547 10.3901 5.71826 10.5408C5.77461 10.9136 5.75392 11.8421 5.75317 17.7978C5.75313 17.9829 5.8855 18.1392 6.06156 18.1621C12.0486 18.9386 11.6476 18.8955 11.8936 18.8955C12.49 18.8955 13.0701 18.698 13.5572 18.3237L20.4223 13.0468C21.1122 12.5165 21.3233 11.4984 20.7842 10.6873Z" fill="#fff"/>
</svg>
