<svg width="26" height="21" viewBox="0 0 26 21" fill="none" xmlns="http://www.w3.org/2000/svg">
<path d="M23.375 10.3604H22.8013L22.1735 7.64367C21.9463 6.66958 21.0804 5.98769 20.0846 5.98769H16.9024V3.37916C16.9024 1.98293 15.7659 0.8573 14.3806 0.8573H2.47457C1.15405 0.8573 0.0825195 1.92883 0.0825195 3.24928V15.9346C0.0825195 17.2551 1.15405 18.3266 2.47457 18.3266H3.34044C3.80585 19.8744 5.23458 21.0001 6.92306 21.0001C8.61154 21.0001 10.0511 19.8744 10.5165 18.3266C10.7203 18.3266 15.7425 18.3266 15.6252 18.3266C16.0906 19.8744 17.5194 21.0001 19.2079 21.0001C20.9072 21.0001 22.3359 19.8744 22.8013 18.3266H23.375C24.5656 18.3266 25.518 17.3741 25.518 16.1835V12.5035C25.518 11.3129 24.5656 10.3604 23.375 10.3604ZM6.92306 18.8353C6.04179 18.8353 5.34279 18.098 5.34279 17.2442C5.34279 16.3675 6.04635 15.6532 6.92306 15.6532C7.79977 15.6532 8.5141 16.3675 8.5141 17.2442C8.5141 18.112 7.80285 18.8353 6.92306 18.8353ZM10.8195 6.63708L7.59412 9.14817C7.13312 9.50678 6.43873 9.44005 6.06802 8.95335L4.82327 7.31898C4.45524 6.84273 4.55268 6.16084 5.02893 5.80364C5.49433 5.43567 6.17623 5.53305 6.54426 6.00929L7.12871 6.76696L9.48825 4.92693C9.95366 4.5698 10.6356 4.64557 11.0036 5.12181C11.3716 5.59799 11.2849 6.26911 10.8195 6.63708ZM19.2079 18.8353C18.3264 18.8353 17.6276 18.098 17.6276 17.2442C17.6276 16.3675 18.342 15.6532 19.2079 15.6532C20.0846 15.6532 20.799 16.3675 20.799 17.2442C20.799 18.1132 20.0862 18.8353 19.2079 18.8353ZM17.4978 8.15242H19.5542C19.8032 8.15242 20.0305 8.31473 20.1171 8.55289L20.7773 10.4903C20.9072 10.8799 20.6257 11.2804 20.2144 11.2804H17.4978C17.173 11.2804 16.9024 11.0098 16.9024 10.6851V8.7477C16.9024 8.42301 17.173 8.15242 17.4978 8.15242Z" />
</svg>
