<svg width="28" height="28" viewBox="0 0 28 28" fill="none" xmlns="http://www.w3.org/2000/svg">
<path d="M1.35135 6.30615H7.65767C7.83513 6.30615 8.01085 6.34111 8.1748 6.40902C8.33875 6.47693 8.48772 6.57646 8.6132 6.70194C8.73868 6.82743 8.83822 6.97639 8.90613 7.14034C8.97404 7.30429 9.00899 7.48001 9.00899 7.65747V12.6123C9.00899 12.9707 8.86662 13.3144 8.61319 13.5678C8.35976 13.8213 8.01604 13.9636 7.65764 13.9636H1.35132C0.992927 13.9636 0.649214 13.8213 0.395792 13.5678C0.142371 13.3144 0 12.9707 0 12.6123V7.65751C0 7.48005 0.0349537 7.30432 0.102865 7.14037C0.170777 6.97641 0.270317 6.82744 0.395801 6.70196C0.521286 6.57647 0.670258 6.47693 0.834211 6.40902C0.998165 6.34111 1.17389 6.30616 1.35135 6.30616V6.30615Z" />
<path d="M14.4142 4.50416C15.658 4.50416 16.6663 3.49587 16.6663 2.25208C16.6663 1.00829 15.658 0 14.4142 0C13.1704 0 12.1621 1.00829 12.1621 2.25208C12.1621 3.49587 13.1704 4.50416 14.4142 4.50416Z" />
<path d="M4.95557 15.2476C4.95569 15.947 5.23072 16.6183 5.72131 17.1167H13.0436V15.2452C13.0436 15.1263 12.9964 15.0122 12.9123 14.9281C12.8282 14.844 12.7141 14.7968 12.5952 14.7968H5.40404C5.28485 14.7973 5.17074 14.8451 5.08669 14.9296C5.00263 15.0141 4.95548 15.1284 4.95557 15.2476Z" />
<path d="M27.3571 22.2318C27.1374 21.4198 26.6449 20.7081 25.9623 20.2164C25.2796 19.7248 24.4486 19.4831 23.6087 19.5321C23.6793 19.269 23.7157 18.9979 23.717 18.7255C23.7085 18.2936 23.5953 17.8702 23.3871 17.4917C23.1789 17.1132 22.882 16.7909 22.5218 16.5525C21.5544 15.9109 20.8313 14.2792 20.7219 12.5628H21.5846C21.9412 12.5629 22.2834 12.4216 22.536 12.1698C22.7886 11.918 22.931 11.5762 22.932 11.2196V10.3251C22.931 9.96843 22.7886 9.62674 22.536 9.37497C22.2834 9.1232 21.9412 8.98191 21.5846 8.98211H18.504C15.8995 8.23205 15.116 7.3682 14.6477 6.85065C14.638 6.8401 14.6286 6.82954 14.6193 6.81921C14.6661 6.47388 14.6036 6.12258 14.4406 5.81457C14.2776 5.50656 14.0223 5.25728 13.7105 5.10168C13.4879 4.99542 13.2442 4.94077 12.9975 4.94179C12.7508 4.9428 12.5076 4.99947 12.2859 5.10756C12.0641 5.21565 11.8697 5.37238 11.7169 5.56607C11.5642 5.75976 11.4571 5.98543 11.4037 6.22624L10.1113 12.4015C10.0732 12.585 10.0739 12.7743 10.1134 12.9575C10.1528 13.1406 10.2301 13.3135 10.3403 13.465C10.4505 13.6165 10.5912 13.7432 10.7533 13.8371C10.9154 13.931 11.0954 13.99 11.2816 14.0102L13.4961 14.2552C13.6102 14.2673 13.7153 14.3228 13.7897 14.4102C13.8642 14.4976 13.9022 14.6102 13.8959 14.7248L13.5469 20.6279C13.1847 20.3113 12.9272 19.8923 12.8084 19.4261C12.6896 18.96 12.7152 18.4688 12.8817 18.0175H5.99689C5.27065 19.2205 4.10824 21.4761 4.57856 22.9433C4.66625 23.2195 4.81861 23.4707 5.02298 23.676C5.22735 23.8814 5.47781 24.035 5.75352 24.124C5.95599 24.1859 6.16835 24.209 6.3794 24.1919C6.43053 24.9205 6.756 25.6025 7.29019 26.1005C7.82438 26.5985 8.52754 26.8755 9.25786 26.8754C9.98818 26.8754 10.6913 26.5985 11.2255 26.1005C11.7597 25.6024 12.0851 24.9204 12.1362 24.1919L19.8562 24.1917C19.9313 24.1876 20.0047 24.1686 20.0724 24.1359C20.14 24.1032 20.2005 24.0574 20.2504 24.0012C20.3051 24.2673 20.394 24.5252 20.5148 24.7684C20.5486 24.8393 20.6004 24.9 20.6651 24.9445C20.7297 24.9891 20.8049 25.0158 20.8832 25.0222C20.9614 25.0285 21.04 25.0142 21.111 24.9807C21.1819 24.9472 21.2429 24.8956 21.2877 24.8311C21.34 24.7558 21.397 24.6823 21.4568 24.61C21.5167 24.9989 21.6556 25.3714 21.8649 25.7047C22.0742 26.0379 22.3496 26.3247 22.6739 26.5475C22.9983 26.7703 23.3649 26.9243 23.751 27.0001C24.1372 27.0759 24.5348 27.0718 24.9193 26.9881C25.3038 26.9044 25.6671 26.7428 25.9868 26.5134C26.3065 26.284 26.5759 25.9916 26.7783 25.6541C26.9807 25.3166 27.1119 24.9413 27.1638 24.5512C27.2157 24.1612 27.1872 23.7646 27.08 23.386C27.1961 23.3733 27.3026 23.3154 27.3764 23.2247C27.4501 23.1341 27.4851 23.018 27.4739 22.9018C27.4568 22.6752 27.4177 22.4508 27.3571 22.2318ZM9.2577 25.9785C8.76562 25.9785 8.29109 25.7957 7.92618 25.4656C7.56128 25.1355 7.33202 24.6815 7.28288 24.1919L11.2327 24.1919C11.1836 24.6815 10.9543 25.1355 10.5893 25.4656C10.2244 25.7957 9.74981 25.9785 9.2577 25.9785ZM17.99 21.0584H16.2402L17.0139 13.7438C17.0448 13.4476 16.9764 13.1495 16.8194 12.8964C16.6623 12.6432 16.4256 12.4495 16.1464 12.3457L13.9392 11.522C13.8378 11.4843 13.7535 11.4111 13.7019 11.316C13.6504 11.2209 13.6352 11.1102 13.659 11.0047L13.9949 9.55661C15.1431 10.4721 16.5294 11.0399 17.99 11.1927V21.0584ZM24.5598 26.1116C24.261 26.1509 23.9571 26.1217 23.6712 26.0263C23.3853 25.9308 23.1249 25.7716 22.9096 25.5607C22.6943 25.3498 22.5298 25.0926 22.4286 24.8087C22.3273 24.5248 22.2919 24.2216 22.3251 23.9221L22.4624 23.7513C23.4938 23.1119 24.7228 22.8701 25.9196 23.0712L26.0259 23.1534C26.1895 23.4363 26.2806 23.7553 26.291 24.0819C26.3015 24.4086 26.231 24.7327 26.0859 25.0255C25.9408 25.3183 25.7255 25.5707 25.4592 25.7602C25.193 25.9497 24.884 26.0704 24.5598 26.1116Z" />
</svg>
