<svg width="23" height="23" viewBox="0 0 23 23" fill="none" xmlns="http://www.w3.org/2000/svg">
<path d="M20.3583 5.2943C20.3795 5.50699 20.3906 5.72262 20.3906 5.94078C20.3906 9.50553 17.4904 12.4056 13.9257 12.4056C10.361 12.4056 7.46092 9.50553 7.46092 5.94078C7.46092 5.72262 7.47191 5.50699 7.49312 5.2943H6.01133L5.44571 0.768921H0.996094V2.06189H4.30428L5.75886 13.6986H21.4218L22.4105 5.2943H20.3583Z" fill="white"/>
<path d="M6.08211 16.2847H4.22851C3.1591 16.2847 2.28906 17.1547 2.28906 18.2241C2.28906 19.2936 3.1591 20.1636 4.22851 20.1636H4.33971C4.26795 20.3659 4.22851 20.5834 4.22851 20.81C4.22851 21.8795 5.09855 22.7495 6.16796 22.7495C7.5054 22.7495 8.44229 21.4213 7.99617 20.1636H14.0369C13.59 21.4236 14.5307 22.7495 15.8652 22.7495C16.9346 22.7495 17.8047 21.8795 17.8047 20.81C17.8047 20.5834 17.7652 20.3659 17.6934 20.1636H19.0976V18.8706H4.22851C3.87204 18.8706 3.58203 18.5806 3.58203 18.2241C3.58203 17.8676 3.87204 17.5776 4.22851 17.5776H20.9654L21.2697 14.9917H5.92049L6.08211 16.2847Z" fill="white"/>
<path d="M13.9258 11.1126C16.7775 11.1126 19.0976 8.79255 19.0976 5.94078C19.0976 3.08902 16.7775 0.768921 13.9258 0.768921C11.074 0.768921 8.75391 3.08902 8.75391 5.94078C8.75391 8.79255 11.074 11.1126 13.9258 11.1126ZM13.2793 4.00134H14.5723V5.67301L15.6758 6.7766L14.7615 7.69086L13.2792 6.20851V4.00134H13.2793Z" fill="white"/>
</svg>
