<svg width="386" height="399" viewBox="0 0 386 399" fill="none" xmlns="http://www.w3.org/2000/svg">
<path d="M347.401 27.9448C347.401 12.537 334.864 0 319.456 0H66.5459C51.138 0 38.6011 12.537 38.6011 27.9448V96.5H347.401V27.9448Z" fill="#F1F1F2"/>
<path d="M370.922 122.231H15.0781C6.76304 122.231 0 128.994 0 137.309V287.286C0 295.601 6.76304 302.364 15.0781 302.364H70.7667V253.109C70.7667 230.6 89.0695 212.297 111.578 212.297H274.422C296.931 212.297 315.233 230.6 315.233 253.109V302.364H370.922C379.237 302.364 386 295.601 386 287.286V137.309C386 128.994 379.237 122.231 370.922 122.231ZM334.533 180.131H315.233C308.125 180.131 302.367 174.373 302.367 167.264C302.367 160.155 308.125 154.397 315.233 154.397H334.533C341.642 154.397 347.4 160.155 347.4 167.264C347.4 174.373 341.642 180.131 334.533 180.131ZM274.422 238.031H111.578C103.263 238.031 96.5 244.794 96.5 253.109V383.786C96.5 392.101 103.263 398.864 111.578 398.864H274.422C282.737 398.864 289.5 392.101 289.5 383.786V253.109C289.5 244.794 282.737 238.031 274.422 238.031ZM231.6 360.264H154.4C147.291 360.264 141.533 354.506 141.533 347.397C141.533 340.289 147.291 334.531 154.4 334.531H231.6C238.709 334.531 244.467 340.289 244.467 347.397C244.467 354.506 238.709 360.264 231.6 360.264ZM231.6 302.364H154.4C147.291 302.364 141.533 296.606 141.533 289.497C141.533 282.389 147.291 276.631 154.4 276.631H231.6C238.709 276.631 244.467 282.389 244.467 289.497C244.467 296.606 238.709 302.364 231.6 302.364Z" fill="#F1F1F2"/>
</svg>
