<svg width="21" height="14" viewBox="0 0 21 14" fill="none" xmlns="http://www.w3.org/2000/svg">
<path d="M19.4434 0.989502H0.790382C0.354513 0.989502 0 1.28924 0 1.65777V8.30479C0 8.67332 0.354513 8.97306 0.790382 8.97306H3.70953V6.79006C3.70953 5.79247 4.66894 4.98128 5.84882 4.98128H14.3849C15.5648 4.98128 16.5242 5.79247 16.5242 6.79006V8.97306H19.4434C19.8793 8.97306 20.2338 8.67332 20.2338 8.30479V1.65777C20.2338 1.28924 19.8793 0.989502 19.4434 0.989502ZM17.5359 3.55565H16.5242C16.1516 3.55565 15.8498 3.30046 15.8498 2.98539C15.8498 2.67033 16.1516 2.41514 16.5242 2.41514H17.5359C17.9086 2.41514 18.2104 2.67033 18.2104 2.98539C18.2104 3.30046 17.9086 3.55565 17.5359 3.55565ZM14.3849 6.12179H5.84882C5.41296 6.12179 5.05844 6.42153 5.05844 6.79006V12.5817C5.05844 12.9502 5.41296 13.25 5.84882 13.25H14.3849C14.8208 13.25 15.1753 12.9502 15.1753 12.5817V6.79006C15.1753 6.42153 14.8208 6.12179 14.3849 6.12179ZM12.1403 11.5392H8.09351C7.72087 11.5392 7.41905 11.284 7.41905 10.969C7.41905 10.6539 7.72087 10.3987 8.09351 10.3987H12.1403C12.5129 10.3987 12.8147 10.6539 12.8147 10.969C12.8147 11.284 12.5129 11.5392 12.1403 11.5392ZM12.1403 8.97306H8.09351C7.72087 8.97306 7.41905 8.71787 7.41905 8.40281C7.41905 8.08774 7.72087 7.83255 8.09351 7.83255H12.1403C12.5129 7.83255 12.8147 8.08774 12.8147 8.40281C12.8147 8.71787 12.5129 8.97306 12.1403 8.97306Z" fill="white"/>
</svg>
