<svg width="341" height="433" viewBox="0 0 341 433" fill="none" xmlns="http://www.w3.org/2000/svg">
<path d="M287.572 152.912C287.572 163.165 279.236 171.501 268.983 171.501C258.731 171.501 250.395 163.165 250.395 152.912C250.395 142.66 258.731 134.324 268.983 134.324C279.236 134.324 287.572 142.66 287.572 152.912ZM130.821 99.0628C113.843 99.0628 100.005 112.901 100.005 129.891C100.005 146.892 113.843 160.719 130.821 160.719C147.811 160.719 161.637 146.892 161.637 129.891C161.637 112.913 147.822 99.0628 130.821 99.0628ZM340.057 158.215C338.846 187.491 298.495 240.776 298.495 240.776C266.291 287.042 282.093 322.761 282.093 322.761C217.097 337.387 163.789 432.246 163.789 432.246C161.426 418.22 130.21 358.903 130.21 358.903C117.135 342.49 95.2193 348.251 83.3795 349.709C49.4474 353.871 41.0056 343.889 41.0056 343.889C33.5866 339.362 37.1021 320.468 37.1021 320.468C39.8298 310.686 35.3855 305.912 32.6225 302.103C25.18 291.697 29.495 286.889 29.495 286.889C31.823 283.938 30.2592 282.374 30.2592 282.374C22.0642 279.658 21.4764 275.178 21.4764 275.178L21.688 260.129C23.0284 249.806 18.3606 249.194 18.3606 249.194C-0.392556 248.83 0.0189563 236.708 0.0189563 236.708C-0.74528 230.088 21.8526 190.254 21.8526 190.254C32.3873 169.96 17.4083 157.815 16.3854 147.339C11.7294 98.9217 28.0958 69.3046 50.2822 45.8719C86.9773 7.0487 134.16 -0.240942 165.047 0.0059652C244.116 0.582082 276.108 25.6726 300.317 52.6795C350.721 108.869 340.057 158.215 340.057 158.215ZM209.455 112.243H194.464C193.006 106.987 190.925 101.99 188.315 97.3462L198.909 86.7409L173.959 61.8033L163.366 72.4086C158.71 69.7514 153.736 67.7056 148.469 66.2477V51.2686H113.197V66.2477C107.953 67.7056 102.944 69.7867 98.3116 72.4086L87.7063 61.8033L62.7687 86.7409L73.3739 97.3462C70.7402 101.99 68.6827 106.976 67.2248 112.243H52.2222V147.515H67.2248C68.6827 152.771 70.752 157.768 73.3739 162.424L62.7687 173.017L87.7063 197.955L98.3116 187.362C102.956 190.007 107.941 192.053 113.197 193.511V208.501H148.469V193.511C153.725 192.053 158.722 189.983 163.366 187.362L173.959 197.955L198.909 173.017L188.315 162.424C190.961 157.768 193.006 152.783 194.464 147.515H209.455V112.243ZM318.212 141.155H309.194C308.336 138.215 307.172 135.44 305.725 132.795L312.098 126.422L295.473 109.797L289.112 116.17C286.455 114.712 283.692 113.548 280.741 112.69V103.683H257.226V112.69C254.286 113.548 251.512 114.712 248.854 116.17L242.482 109.797L225.857 126.422L232.229 132.795C230.783 135.44 229.607 138.215 228.761 141.155H219.743V164.67H228.761C229.619 167.609 230.783 170.395 232.229 173.029L225.857 179.402L242.482 196.027L248.854 189.654C251.512 191.112 254.275 192.288 257.226 193.134V202.152H280.741V193.134C283.68 192.288 286.455 191.112 289.112 189.654L295.485 196.027L312.11 179.402L305.737 173.029C307.183 170.395 308.359 167.609 309.206 164.67H318.224V141.155H318.212Z" fill="#F1F1F2"/>
</svg>
