<svg width="31" height="26" viewBox="0 0 31 26" fill="none" xmlns="http://www.w3.org/2000/svg">
<path d="M4.36055 5.95292C4.89556 5.95292 5.32926 5.51921 5.32926 4.98421C5.32926 4.44921 4.89556 4.0155 4.36055 4.0155C3.82555 4.0155 3.39185 4.44921 3.39185 4.98421C3.39185 5.51921 3.82555 5.95292 4.36055 5.95292Z" />
<path d="M7.75118 2.56242C8.28618 2.56242 8.71989 2.12871 8.71989 1.59371C8.71989 1.05871 8.28618 0.625 7.75118 0.625C7.21618 0.625 6.78247 1.05871 6.78247 1.59371C6.78247 2.12871 7.21618 2.56242 7.75118 2.56242Z" />
<path d="M30.8465 6.49888L30.7331 6.27203C30.5657 5.9359 30.2745 5.67778 29.9208 5.55192C29.567 5.42607 29.1782 5.4423 28.8362 5.5972L21.5962 8.90292L21.6023 8.9166C21.3763 8.9768 21.1653 9.08312 20.9824 9.22886C20.7996 9.37461 20.6489 9.55663 20.5398 9.76347C20.4307 9.97031 20.3656 10.1975 20.3486 10.4307C20.3316 10.6639 20.3631 10.8981 20.441 11.1186L20.2986 11.2136C18.398 10.263 13.7887 11.0294 9.48205 12.5274C9.22902 12.6154 8.97675 12.7061 8.72525 12.7995C8.24931 11.0363 9.48096 9.7529 9.54798 9.68491L8.86177 9.00124C8.39243 9.5088 8.04136 10.114 7.83379 10.7734C7.58872 11.5458 7.58194 12.3741 7.81436 13.1504C7.03939 13.4598 6.2947 13.787 5.59002 14.1269C5.19921 12.6762 5.16452 11.1793 5.21774 10.0976C5.2287 9.87896 5.1958 9.66037 5.12098 9.45467C5.04615 9.24896 4.93092 9.06032 4.78207 8.89983C4.63321 8.73935 4.45375 8.61029 4.25424 8.52023C4.05474 8.43018 3.83923 8.38097 3.62041 8.37549C3.40159 8.37001 3.18389 8.40838 2.98013 8.48833C2.77636 8.56829 2.59066 8.68821 2.43397 8.84104C2.27727 8.99387 2.15274 9.17652 2.06771 9.37822C1.98269 9.57992 1.93889 9.79659 1.9389 10.0155V13.4411C1.93876 13.5104 1.91111 13.5769 1.86203 13.626C1.81294 13.675 1.74642 13.7026 1.67705 13.7026C1.51484 13.7026 1.35422 13.7346 1.20444 13.7968C1.05466 13.8591 0.918665 13.9504 0.804289 14.0654C0.689914 14.1804 0.599413 14.3169 0.537996 14.467C0.476579 14.6172 0.445457 14.7779 0.446423 14.9401C0.467897 15.726 0.607941 16.5042 0.861818 17.2482C0.120695 18.0417 -0.144368 18.7609 0.0741367 19.3892C0.887791 21.7286 2.75728 23.5373 5.33816 24.4823C6.60678 24.9406 7.94612 25.1722 9.29497 25.1664C10.7679 25.1614 12.2295 24.9097 13.6193 24.4217C16.4129 23.4501 18.7324 21.6419 20.1506 19.3304C21.588 16.9878 21.9315 14.4093 21.1178 12.07C21.102 12.0254 21.0838 11.9818 21.0633 11.9392C21.2675 12.0838 21.5012 12.1812 21.7477 12.2244C21.9941 12.2676 22.247 12.2555 22.4882 12.189L22.4939 12.2008L22.5663 12.1655C22.7131 12.1175 22.8527 12.0495 22.9811 11.9635L30.1763 8.45852C30.35 8.37505 30.5054 8.25784 30.6334 8.11374C30.7614 7.96963 30.8594 7.8015 30.9218 7.61914C30.9842 7.43678 31.0096 7.24383 30.9967 7.05152C30.9838 6.85921 30.9328 6.6714 30.8466 6.49901L30.8465 6.49888ZM0.989142 19.071C0.92212 18.8784 1.03304 18.5846 1.29138 18.2399C1.57731 18.7831 1.96804 19.2642 2.44099 19.6555C2.22804 19.6356 2.01669 19.6013 1.80843 19.5526C1.34968 19.4413 1.05883 19.2704 0.989324 19.0712V19.0709L0.989142 19.071ZM18.3437 13.7589C18.2416 14.6271 18.0716 14.806 18.0644 14.8132L18.0738 14.8226C17.6728 15.0956 17.233 15.368 16.76 15.6367C17.0761 15.0111 17.2849 14.3368 17.3777 13.6421C17.3937 13.5248 17.4516 13.4172 17.5407 13.3393C17.6299 13.2614 17.7442 13.2184 17.8626 13.2183C17.931 13.2182 17.9986 13.2327 18.061 13.2607C18.1233 13.2887 18.1791 13.3295 18.2246 13.3806C18.27 13.4317 18.3041 13.4918 18.3247 13.557C18.3452 13.6223 18.3518 13.6911 18.3438 13.759L18.3437 13.7589ZM8.83217 14.9814L9.57638 14.3612C9.40049 14.1517 9.24252 13.9278 9.10413 13.6918C9.33523 13.6065 9.5679 13.523 9.80039 13.4421C12.4492 12.5208 15.0314 11.9363 17.0707 11.7964C18.0196 11.7314 18.8194 11.7693 19.3835 11.9062C19.8424 12.0175 20.1334 12.1886 20.2027 12.388C20.272 12.5873 20.15 12.902 19.8593 13.2741C19.691 13.4842 19.5062 13.6804 19.3066 13.8609C19.3475 13.4805 19.2369 13.0993 18.9987 12.7998C18.7606 12.5003 18.4141 12.3066 18.0342 12.2607C17.6544 12.2149 17.2717 12.3204 16.9691 12.5546C16.6665 12.7888 16.4683 13.1327 16.4175 13.512C16.1714 15.3229 15.1009 16.3783 14.8023 16.641C13.6891 17.1564 12.5507 17.6156 11.3915 18.0168C10.8974 18.1887 10.4066 18.3486 9.9193 18.4965C8.00568 18.1271 6.65264 16.9707 5.89498 15.0546C6.6174 14.7023 7.3868 14.3635 8.18858 14.0435C8.3719 14.3765 8.58744 14.6906 8.83211 14.9814L8.83217 14.9814ZM1.49087 14.7487C1.5152 14.7241 1.5442 14.7046 1.57617 14.6913C1.60813 14.678 1.64243 14.6712 1.67705 14.6713C2.0033 14.671 2.31608 14.5412 2.54678 14.3105C2.77747 14.0798 2.90724 13.767 2.90761 13.4408V10.0155C2.90772 9.83728 2.97856 9.6664 3.10457 9.5404C3.23058 9.41439 3.40145 9.34355 3.57965 9.34344C3.67076 9.34348 3.7609 9.36205 3.84461 9.39802C3.92831 9.43398 4.00383 9.48659 4.06658 9.55265C4.12932 9.6187 4.17798 9.69683 4.20959 9.78227C4.24121 9.86772 4.25512 9.9587 4.25048 10.0497C4.18122 11.4569 4.25321 13.5272 4.98954 15.3983C5.41366 16.476 6.01353 17.3628 6.77239 18.034C7.20455 18.4151 7.69095 18.7299 8.21565 18.968C7.1341 19.2441 6.03601 19.4507 4.92809 19.5866C4.75596 19.6066 4.44041 19.5215 4.44041 19.5215C3.3586 19.3412 2.53702 18.6577 1.99842 17.4901C1.63885 16.6844 1.44072 15.816 1.41525 14.9341C1.41491 14.8997 1.42143 14.8656 1.43441 14.8338C1.44739 14.802 1.46659 14.773 1.49087 14.7487ZM21.9526 11.2752L22.0661 11.1995C22.1197 11.1646 22.1658 11.1193 22.2018 11.0664C22.2378 11.0135 22.263 10.9539 22.2759 10.8912C22.2887 10.8285 22.289 10.7639 22.2768 10.7011C22.2645 10.6383 22.2399 10.5785 22.2044 10.5252C22.1689 10.472 22.1232 10.4263 22.0699 10.3908C22.0166 10.3553 21.9568 10.3307 21.894 10.3185C21.8312 10.3062 21.7665 10.3066 21.7038 10.3195C21.6412 10.3324 21.5816 10.3575 21.5287 10.3936L21.3139 10.5368C21.3167 10.4141 21.3505 10.2942 21.4122 10.1882C21.4739 10.0822 21.5614 9.99348 21.6666 9.93043C21.7718 9.86738 21.8913 9.83201 22.0139 9.82762C22.1365 9.82323 22.2582 9.84996 22.3676 9.90532C22.4771 9.96068 22.5707 10.0429 22.6398 10.1442C22.709 10.2455 22.7513 10.3627 22.7628 10.4849C22.7744 10.607 22.7548 10.73 22.706 10.8425C22.6571 10.9551 22.5806 11.0534 22.4834 11.1283L22.2171 11.2581C22.1309 11.2809 22.0411 11.2867 21.9528 11.2752L21.9526 11.2752Z" />
<path d="M6.29736 6.92163H7.26607V7.89034H6.29736V6.92163Z" />
<path d="M5.81372 11.2808H6.78243V12.2495H5.81372V11.2808Z" />
<path d="M8.71924 15.6399H9.68795V16.6086H8.71924V15.6399Z" />
<path d="M0.970459 6.43726H1.93917V7.40596H0.970459V6.43726Z" />
<path d="M5.06063 19.4336L5.59796 18.6277C4.4142 17.8385 4.36195 17.1114 4.36055 17.0808C4.36098 17.089 4.36055 17.0932 4.36055 17.0932H3.39185C3.39185 17.2189 3.43865 18.3525 5.06063 19.4336Z" />
<path d="M9.20479 6.43734C9.20479 5.94342 9.42439 5.3507 9.83984 4.72328C10.0399 4.42059 10.2663 4.13616 10.5164 3.87329L10.1735 3.53122L9.831 3.18872C9.76592 3.25387 8.23608 4.80265 8.23608 6.43734H9.20479Z" />
</svg>
