<svg width="481" height="483" viewBox="0 0 481 483" fill="none" xmlns="http://www.w3.org/2000/svg">
<path d="M240.385 105.791C213.627 105.791 187.469 113.725 165.221 128.592C142.972 143.458 125.631 164.588 115.391 189.309C105.151 214.031 102.472 241.234 107.692 267.478C112.912 293.722 125.798 317.829 144.719 336.75C163.64 355.671 187.747 368.557 213.991 373.777C240.235 378.997 267.438 376.318 292.16 366.078C316.881 355.838 338.011 338.497 352.878 316.249C367.744 294 375.679 267.842 375.679 241.084C375.632 205.216 361.363 170.83 336.001 145.468C310.639 120.106 276.253 105.837 240.385 105.791ZM305.501 208.788L234.275 278.617C233.112 279.852 231.704 280.832 230.141 281.493C228.578 282.154 226.894 282.482 225.198 282.457C223.477 282.465 221.773 282.13 220.184 281.47C218.595 280.811 217.154 279.841 215.945 278.617L175.27 238.64C172.818 236.185 171.441 232.857 171.441 229.387C171.441 225.918 172.818 222.59 175.27 220.135C177.725 217.683 181.053 216.306 184.522 216.306C187.992 216.306 191.32 217.683 193.775 220.135L225.198 251.209L286.996 190.283C289.473 187.829 292.823 186.46 296.31 186.476C299.797 186.493 303.134 187.894 305.588 190.371C308.042 192.848 309.411 196.198 309.395 199.685C309.378 203.171 307.978 206.509 305.501 208.962V208.788ZM462.615 278.617C472.513 268.092 478.651 254.588 480.072 240.211C478.651 225.833 472.513 212.33 462.615 201.805C457.896 196.651 454.062 190.753 451.268 184.348C449.981 176.955 449.981 169.395 451.268 162.003C454.595 148.239 453.307 133.764 447.602 120.804C439.554 109.588 428.107 101.263 414.957 97.0619C407.943 94.7121 401.388 91.1686 395.58 86.5876C390.679 80.6214 386.895 73.8208 384.407 66.5119C380.432 52.826 372.018 40.8506 360.491 32.4704C347.531 26.7655 333.055 25.4774 319.292 28.8043C311.899 30.0919 304.339 30.0919 296.947 28.8043C290.542 26.0103 284.643 22.1762 279.489 17.4572C268.965 7.55957 255.461 1.42165 241.084 0C226.706 1.42165 213.203 7.55957 202.678 17.4572C197.524 22.1762 191.626 26.0103 185.221 28.8043C177.828 30.0919 170.268 30.0919 162.875 28.8043C149.112 25.4774 134.636 26.7655 121.677 32.4704C109.628 40.624 100.703 52.6258 96.3636 66.5119C94.0138 73.5259 90.4703 80.0814 85.8893 85.8893C79.9231 90.7896 73.1225 94.5743 65.8136 97.0619C52.3835 101.175 40.6714 109.575 32.4704 120.978C26.7655 133.938 25.4774 148.414 28.8043 162.177C30.0919 169.57 30.0919 177.13 28.8043 184.522C26.0103 190.927 22.1762 196.826 17.4572 201.98C7.55957 212.504 1.42165 226.008 0 240.385C1.42165 254.763 7.55957 268.266 17.4572 278.791C22.1762 283.945 26.0103 289.843 28.8043 296.248C30.0919 303.641 30.0919 311.201 28.8043 318.594C25.4774 332.357 26.7655 346.833 32.4704 359.792C41.0732 371.479 53.3794 379.909 67.3847 383.709C74.3987 386.059 80.9542 389.602 86.7622 394.183C91.2568 400.689 94.5119 407.968 96.3636 415.655C100.339 429.341 108.753 441.317 120.28 449.697C133.24 455.402 147.715 456.69 161.479 453.363C168.872 452.075 176.431 452.075 183.824 453.363C190.229 456.157 196.128 459.991 201.281 464.71C211.806 474.608 225.31 480.746 239.687 482.167C254.065 480.746 267.568 474.608 278.093 464.71C283.247 459.991 289.145 456.157 295.55 453.363C302.943 452.075 310.503 452.075 317.895 453.363C331.659 456.69 346.134 455.402 359.094 449.697C371.143 441.543 380.067 429.541 384.407 415.655C386.757 408.641 390.3 402.086 394.881 396.278C400.689 391.697 407.245 388.153 414.259 385.804C427.945 381.828 439.92 373.415 448.3 361.887C454.005 348.927 455.293 334.452 451.966 320.688C450.679 313.296 450.679 305.736 451.966 298.343C454.461 291.482 458.123 285.104 462.79 279.489L462.615 278.617ZM240.385 402.563C208.448 402.563 177.228 393.092 150.673 375.348C124.117 357.605 103.42 332.385 91.1983 302.879C78.9763 273.373 75.7785 240.905 82.0092 209.581C88.2399 178.257 103.619 149.484 126.203 126.901C148.786 104.318 177.559 88.9382 208.882 82.7075C240.206 76.4768 272.674 79.6746 302.181 91.8966C331.687 104.119 356.907 124.816 374.65 151.371C392.394 177.926 401.864 209.146 401.864 241.084C401.818 283.896 384.79 324.942 354.517 355.215C324.244 385.489 283.198 402.516 240.385 402.563Z" fill="#F1F1F2"/>
</svg>
