<svg width="420" height="355" viewBox="0 0 420 355" fill="none" xmlns="http://www.w3.org/2000/svg">
<path d="M384.88 0H34.9909C15.7503 0 0 13.3168 0 29.5848V266.25C0 282.514 15.7503 295.835 34.9909 295.835H192.442V325.415H139.959C120.634 325.415 104.968 338.648 104.968 355L314.903 354.969C314.903 338.648 299.237 325.388 279.912 325.388H227.428V295.835H384.88C404.12 295.835 419.871 282.514 419.871 266.25V29.5848C419.871 13.3168 404.12 0 384.88 0ZM142.52 184.001L123.966 199.688L75.099 158.375C68.2659 152.593 68.2659 143.234 75.099 137.456L123.966 96.1429L142.519 111.829L99.8402 147.911L142.52 184.001ZM205.888 214.478H178.98L213.986 81.3527H240.895L205.888 214.478ZM344.766 158.375L295.904 199.688L277.351 184.001L320.031 147.915L277.351 111.834L295.904 96.1473L344.772 137.46C351.6 143.207 351.6 152.597 344.766 158.375Z" fill="#F1F1F2"/>
</svg>
