<svg width="20" height="18" viewBox="0 0 20 18" fill="none" xmlns="http://www.w3.org/2000/svg">
<path d="M18.3333 0.210449H1.66675C0.750244 0.210449 0 0.84478 0 1.61968V12.8929C0 13.6676 0.750244 14.3022 1.66675 14.3022H9.16675V15.7112H6.66675C5.74624 15.7112 5 16.3415 5 17.1204L15 17.1189C15 16.3415 14.2538 15.7099 13.3333 15.7099H10.8333V14.3022H18.3333C19.2498 14.3022 20 13.6676 20 12.8929V1.61968C20 0.84478 19.2498 0.210449 18.3333 0.210449ZM6.78877 8.97511L5.90498 9.72231L3.57725 7.75442C3.25176 7.47901 3.25176 7.03323 3.57725 6.75799L5.90498 4.7901L6.78872 5.5373L4.75576 7.256L6.78877 8.97511ZM9.80723 10.4268H8.52549L10.193 4.08558H11.4747L9.80723 10.4268ZM16.4225 7.75442L14.095 9.72231L13.2113 8.97511L15.2443 7.2562L13.2113 5.5375L14.095 4.7903L16.4228 6.75819C16.748 7.03195 16.748 7.47922 16.4225 7.75442Z" fill="#FFFFFF"/>
</svg>
