<svg width="64" height="64" viewBox="0 0 64 64" fill="none" xmlns="http://www.w3.org/2000/svg">
<rect width="64" height="64" rx="4" fill="#228CC9" fill-opacity="0.11"/>
<path d="M9.04968 31.4264C9.04968 26.2388 9.13213 21.0458 9.00846 15.8582C8.96036 13.9425 9.26954 12.9416 12.1689 13.6896C25.4565 17.139 38.7647 17.1444 52.0523 13.6627C54.3334 13.0653 55.0136 13.5927 54.9998 15.4654C54.9105 26.2011 54.9174 36.9423 54.9998 47.678C55.0136 49.4808 54.299 49.8897 52.2035 49.3516C38.7991 45.9075 25.381 45.8107 11.9765 49.3301C9.71612 49.922 8.96036 49.4377 9.00159 47.5327C9.13213 42.1676 9.04968 36.797 9.04968 31.4264ZM12.3132 31.2972C12.3132 35.7745 12.3544 40.2464 12.2857 44.7236C12.2651 46.1766 12.801 46.5963 14.6973 46.2412C19.1356 45.4071 23.6084 44.6591 28.1017 44.0133C29.7849 43.7712 30.3827 43.2277 30.369 41.8985C30.314 35.0049 30.3002 28.1169 30.3827 21.2234C30.3964 19.7651 29.7369 19.2054 27.9231 18.9471C23.5397 18.3283 19.1769 17.6126 14.8553 16.7784C12.801 16.3802 12.2445 16.8269 12.2788 18.409C12.375 22.7033 12.3132 27.0029 12.3132 31.2972ZM51.7088 31.4963C51.7088 27.1159 51.6813 22.7355 51.7295 18.3552C51.7432 17.0367 51.4684 16.3479 49.4141 16.7408C44.9826 17.5803 40.5168 18.3229 36.0303 18.9633C34.1684 19.2269 33.6324 19.905 33.6462 21.3041C33.708 28.0954 33.7149 34.892 33.6531 41.6832C33.6393 43.0824 34.1684 43.7604 36.0371 44.0241C40.3999 44.6483 44.7696 45.3479 49.0706 46.2089C51.4684 46.6878 51.7638 45.9291 51.7295 44.3685C51.6539 40.0796 51.7088 35.7853 51.7088 31.4963Z" fill="#228CC9"/>
<path d="M22.553 32.5888C20.866 32.5888 19.0389 32.5839 17.2184 32.5888C16.1715 32.5938 15.5647 32.3062 15.5713 31.4434C15.578 30.5657 16.2582 30.3227 17.2651 30.3178C18.1453 30.3128 19.0322 30.3227 19.9124 30.3029C21.5528 30.2682 23.5666 30.3921 21.3661 28.5673C20.5792 27.9128 20.9726 27.3822 21.6928 26.8814C22.6264 26.2318 23.2132 26.7375 23.9267 27.1739C30.2082 31.017 30.2415 31.369 24.4202 35.4302C23.6066 35.9955 22.9064 37.0368 21.4927 35.9608C20.3191 35.0632 21.246 34.5228 21.9995 33.9128C22.3463 33.6253 22.8597 33.3773 22.553 32.5888Z" fill="#228CC9"/>
<path d="M42.2925 30.2967C44.5304 30.2967 46.5332 30.3017 48.5359 30.2917C49.8863 30.2868 50.6904 30.5906 50.6145 31.5917C50.5462 32.5082 49.6435 32.6427 48.5511 32.6526C47.5421 32.6626 46.5256 32.5979 45.5243 32.6776C44.4697 32.7622 43.0587 32.1496 42.4366 32.9814C41.8677 33.7335 43.1498 34.0821 43.9312 34.4757C44.887 34.9637 44.5836 35.4569 43.9008 35.945C43.218 36.4281 42.4442 36.6523 41.6249 36.1243C39.5539 34.7894 36.9443 33.6339 35.6319 32.025C34.1678 30.222 37.7409 29.6093 39.1291 28.5584C40.176 27.7615 41.1774 25.9236 43.3849 26.8052C46.4953 28.0554 42.6264 28.8722 42.2925 30.2967Z" fill="#228CC9"/>
</svg>
