<svg width="64" height="64" viewBox="0 0 64 64" fill="none" xmlns="http://www.w3.org/2000/svg">
<rect width="64" height="64" rx="4" fill="#EF5DA8" fill-opacity="0.11"/>
<path d="M32.0887 20.0038C36.1485 20.0038 40.2083 19.995 44.265 20.0068C47.2114 20.0126 48.9005 21.6841 48.9123 24.6481C48.9328 29.8301 48.9299 35.012 48.9123 40.1908C48.9034 42.9874 47.2643 44.7383 44.4765 44.753C36.1632 44.797 27.8498 44.8029 19.5365 44.75C16.7223 44.7323 15.136 42.9934 15.133 40.1791C15.1272 34.9502 15.1243 29.7184 15.136 24.4895C15.1389 21.7341 16.8457 20.0215 19.6158 20.0097C23.7725 19.9921 27.9291 20.0038 32.0887 20.0038ZM32.0623 29.0222C28.546 29.0222 25.0268 29.0662 21.5105 28.9987C20.2503 28.9752 19.6951 29.457 19.6863 30.676C19.6775 31.8717 20.2033 32.4621 21.4576 32.4592C28.4931 32.4386 35.5257 32.4386 42.5612 32.4592C43.8479 32.4621 44.2445 31.8628 44.2445 30.6496C44.2445 29.4657 43.8332 28.9869 42.6141 29.0046C39.0978 29.0545 35.5786 29.0193 32.0623 29.0222ZM31.8625 36.5365C33.913 36.5365 35.9634 36.5307 38.0139 36.5394C38.7894 36.5424 39.609 36.4983 39.6413 35.5172C39.6736 34.5154 38.8364 34.4361 38.0697 34.4361C34.0187 34.4303 29.9678 34.4303 25.9169 34.4361C25.1502 34.4361 24.3159 34.5272 24.3629 35.5348C24.4099 36.513 25.2354 36.5424 26.008 36.5394C27.9585 36.5277 29.912 36.5365 31.8625 36.5365Z" fill="#EF5DA8"/>
<path d="M9.68105 28.7552C9.90584 28.5702 10.2573 28.6394 10.5222 28.7602C10.8782 28.9226 11.1717 29.1763 11.3731 29.519C11.6198 29.9391 11.2791 30.2446 11.0088 30.5295C10.909 30.6352 10.8003 30.7352 10.6974 30.838C9.11116 32.3949 9.11116 32.3949 10.7386 33.9959C11.191 34.4424 11.7609 34.8125 11.0558 35.5469C10.4154 36.2137 9.87493 36.2784 9.19341 35.6262C8.31213 34.7802 7.38092 33.9871 6.47027 33.1704C6.06783 32.8091 5.78876 32.3039 6.20883 31.8926C7.31924 30.7998 8.51189 29.7893 9.68105 28.7552V28.7552Z" fill="#EF5DA8"/>
<path d="M53.4553 28.8608C53.7204 28.7518 54.0255 28.7424 54.2864 28.8612C54.688 29.044 54.9689 29.4111 55.296 29.6979C59.1325 33.082 58.686 32.0185 55.2167 35.1999C54.6468 35.7228 54.0563 36.6716 53.0311 35.6611C52.4877 35.1265 52.3907 34.7358 52.9812 34.2364C53.0928 34.1424 53.1927 34.0366 53.2984 33.9338C54.8877 32.3974 54.8789 32.4063 53.2926 30.8435C52.9724 30.5263 52.3761 30.2677 52.6346 29.6743C52.7991 29.3057 53.0784 29.0157 53.4553 28.8608Z" fill="#EF5DA8"/>
</svg>
