<svg width="422" height="363" viewBox="0 0 422 363" fill="none" xmlns="http://www.w3.org/2000/svg">
<path d="M304.2 235.79C307.717 235.79 309.475 234.303 309.475 231.33L325.3 203.083L279.583 183.757L265.517 212.003C263.759 213.49 263.759 216.463 265.517 217.95L270.792 222.41C279.584 225.383 286.617 228.356 293.65 234.303C295.408 235.789 297.167 235.789 298.925 235.789C302.442 237.277 302.442 237.277 304.2 235.79V235.79Z" fill="#F1F1F2"/>
<path d="M344.632 217.957C341.115 216.47 335.84 219.443 334.082 222.417L314.741 258.097C314.741 259.583 312.982 261.07 314.741 262.557C320.016 284.857 305.949 308.643 291.883 322.023C277.816 333.916 253.199 341.349 226.824 341.349C202.207 341.349 181.107 333.916 167.041 322.023C165.283 320.537 160.008 316.077 158.249 310.13C156.491 311.617 154.732 314.59 151.216 314.59H63.2999C58.0249 314.59 54.508 311.617 54.508 307.157V203.09C54.508 198.63 58.0249 195.656 63.2999 195.656H151.217C156.492 195.656 160.009 198.63 160.009 203.09V298.236C163.526 292.289 168.801 287.829 175.834 286.343C177.592 286.343 177.592 286.343 179.35 284.857C181.109 283.37 184.625 281.883 188.142 278.91C189.9 277.424 189.9 275.937 189.9 274.45C189.9 272.964 189.9 272.964 191.659 271.477C193.417 268.503 193.417 265.53 195.175 261.07V259.583C195.175 258.097 195.175 256.609 195.175 255.123V204.577C195.175 200.117 198.692 197.143 203.967 197.143H258.475L265.508 182.277H61.5418C56.2668 182.277 52.7499 179.303 52.7499 174.843V115.377C52.7499 110.917 56.2668 107.943 61.5418 107.943H297.158C298.916 107.943 300.675 107.943 300.675 109.43L318.258 75.2367C320.016 73.7503 318.258 70.7767 318.258 67.8032C316.5 66.3167 314.741 64.8296 311.225 64.8296H307.708H43.9588C19.3419 64.8296 0 81.1831 0 101.996V324.996C0 345.809 19.3419 362.162 43.958 362.162H307.707C332.324 362.162 351.665 345.809 351.665 324.996V229.85C351.665 222.417 348.149 219.443 344.632 217.957V217.957Z" fill="#F1F1F2"/>
<path d="M221.553 247.684C211.003 256.604 207.487 265.524 205.728 272.958C203.97 278.904 202.211 283.365 196.936 287.824C186.386 296.744 181.111 298.232 181.111 298.232C177.594 299.718 175.836 301.205 175.836 304.178C175.836 307.152 175.836 308.638 177.594 311.612C189.903 322.019 205.727 326.478 225.069 326.478C246.169 326.478 267.269 320.532 277.819 311.612C295.402 296.745 305.952 265.525 286.611 249.172C269.027 232.818 240.894 232.818 221.553 247.684V247.684Z" fill="#F1F1F2"/>
<path d="M392.108 0.89917C379.799 0.89917 369.25 6.8456 363.975 15.7656L286.608 170.379L332.325 189.706L418.483 36.5792C420.241 33.6056 422 29.1456 422 24.6863C422 11.3063 407.933 0.89917 392.108 0.89917V0.89917Z" fill="#F1F1F2"/>
</svg>
