<svg width="21" height="19" viewBox="0 0 21 19" fill="none" xmlns="http://www.w3.org/2000/svg">
<path d="M15.0717 12.0028C15.246 12.0028 15.3331 11.9292 15.3331 11.7818L16.1172 10.3823L13.8521 9.4248L13.1552 10.8243C13.0681 10.8979 13.0681 11.0453 13.1552 11.1189L13.4165 11.3399C13.8521 11.4872 14.2006 11.6345 14.549 11.9291C14.6361 12.0028 14.7233 12.0028 14.8104 12.0028C14.9846 12.0765 14.9846 12.0765 15.0717 12.0028Z" fill="white"/>
<path d="M17.075 11.1193C16.9008 11.0456 16.6394 11.1929 16.5523 11.3402L15.594 13.108C15.594 13.1817 15.5069 13.2553 15.594 13.329C15.8554 14.4339 15.1584 15.6124 14.4615 16.2753C13.7646 16.8645 12.5449 17.2328 11.2381 17.2328C10.0185 17.2328 8.97306 16.8645 8.27615 16.2753C8.18904 16.2016 7.92769 15.9807 7.84055 15.6861C7.75344 15.7597 7.6663 15.907 7.49209 15.907H3.13623C2.87488 15.907 2.70063 15.7597 2.70063 15.5387V10.3827C2.70063 10.1617 2.87488 10.0143 3.13623 10.0143H7.49213C7.75348 10.0143 7.92773 10.1617 7.92773 10.3827V15.0967C8.10198 14.8021 8.36333 14.5811 8.71179 14.5075C8.79889 14.5075 8.79889 14.5075 8.88604 14.4339C8.97314 14.3602 9.14739 14.2865 9.32164 14.1392C9.40875 14.0656 9.40874 13.9919 9.40874 13.9183C9.40874 13.8446 9.40874 13.8446 9.49585 13.7709C9.58295 13.6236 9.58295 13.4763 9.6701 13.2553V13.1817C9.6701 13.108 9.6701 13.0343 9.6701 12.9607V10.4563C9.6701 10.2354 9.84435 10.088 10.1057 10.088H12.8063L13.1547 9.35146H3.04913C2.78778 9.35146 2.61353 9.20414 2.61353 8.98316V6.03686C2.61353 5.81589 2.78778 5.66856 3.04913 5.66856H14.7229C14.81 5.66856 14.8972 5.66856 14.8972 5.74221L15.7683 4.0481C15.8554 3.97445 15.7683 3.82713 15.7683 3.6798C15.6812 3.60615 15.5941 3.53247 15.4199 3.53247H15.2456H2.17797C0.958308 3.53247 0 4.34272 0 5.37391V16.4226C0 17.4538 0.958308 18.264 2.17793 18.264H15.2456C16.4652 18.264 17.4235 17.4538 17.4235 16.4226V11.7085C17.4235 11.3402 17.2493 11.1929 17.075 11.1193Z" fill="white"/>
<path d="M10.977 12.5921C10.4543 13.0341 10.2801 13.476 10.1929 13.8443C10.1058 14.1389 10.0187 14.36 9.75733 14.5809C9.23462 15.0228 8.97327 15.0965 8.97327 15.0965C8.79902 15.1702 8.71191 15.2438 8.71191 15.3911C8.71191 15.5385 8.71191 15.6121 8.79902 15.7594C9.40887 16.2751 10.1929 16.496 11.1512 16.496C12.1966 16.496 13.242 16.2014 13.7647 15.7594C14.6359 15.0229 15.1586 13.4761 14.2003 12.6658C13.3291 11.8556 11.9353 11.8556 10.977 12.5921V12.5921Z" fill="white"/>
<path d="M19.4273 0.36499C18.8174 0.36499 18.2947 0.65961 18.0334 1.10156L14.2002 8.76199L16.4653 9.71953L20.734 2.13278C20.8211 1.98545 20.9083 1.76448 20.9083 1.54354C20.9083 0.880618 20.2113 0.36499 19.4273 0.36499V0.36499Z" fill="white"/>
</svg>
